<svg width="161" height="52" viewBox="0 0 161 52" fill="none" xmlns="http://www.w3.org/2000/svg">
<ellipse cx="80.7207" cy="26.4774" rx="24.9909" ry="24.848" fill="#F9627D"/>
<path fill-rule="evenodd" clip-rule="evenodd" d="M6.23626 0H154.708C156.872 0 157.658 0.219744 158.448 0.631467C159.23 1.0343 159.87 1.65674 160.284 2.41798C160.708 3.18906 160.932 3.95301 160.932 6.06002V45.94C160.932 48.047 160.707 48.8117 160.284 49.5812C159.87 50.3426 159.231 50.9654 158.449 51.3685C157.657 51.781 156.872 52 154.708 52H6.23626C4.07224 52 3.28681 51.781 2.49649 51.3685C1.71447 50.9657 1.0749 50.3433 0.660821 49.582C0.237143 48.8109 0.0122681 48.047 0.0122681 45.94V6.06081C0.0122681 3.95301 0.237958 3.18906 0.660821 2.41798C1.07468 1.65686 1.71396 1.03443 2.49567 0.631467C3.28762 0.218951 4.07224 0 6.23626 0Z" fill="#051926"/>
<path d="M35.8696 25.3963C35.8368 21.9111 38.8087 20.2157 38.9447 20.1367C37.2617 17.7553 34.6537 17.4294 33.7368 17.4034C31.5458 17.1801 29.4203 18.6759 28.3043 18.6759C27.1662 18.6759 25.4472 17.4254 23.5954 17.462C21.211 17.4979 18.9823 18.8372 17.759 20.9179C15.2353 25.1592 17.1174 31.3924 19.5354 34.8206C20.7448 36.5013 22.1582 38.3751 24.0092 38.3091C25.8183 38.2374 26.4943 37.1897 28.6788 37.1897C30.8428 37.1897 31.4778 38.3091 33.3648 38.2668C35.3067 38.2374 36.53 36.5804 37.6976 34.8858C39.0955 32.9631 39.656 31.0657 39.6789 30.9688C39.6346 30.9533 35.9073 29.5716 35.8696 25.3963ZM32.3053 15.1475C33.2788 13.9662 33.9449 12.3588 33.7597 10.727C32.3504 10.7873 30.5887 11.6728 29.5744 12.8289C28.6763 13.8473 27.875 15.5174 28.0815 17.0865C29.6645 17.2013 31.2893 16.3117 32.3053 15.1475ZM60.2968 11.4488H62.7812C63.5842 11.4488 64.2856 11.6101 64.887 11.9335C65.473 12.2432 65.9541 12.7179 66.2701 13.2982C66.5913 13.8847 66.7527 14.5552 66.7527 15.3104C66.7527 16.0657 66.5913 16.7361 66.2693 17.3227C65.9533 17.903 65.4722 18.3777 64.8862 18.6873C64.2856 19.0108 63.5842 19.1729 62.7812 19.1729H60.2968V11.448V11.4488ZM62.7599 18.0185C63.6276 18.0185 64.306 17.7789 64.7944 17.3015C65.2819 16.8225 65.5261 16.1593 65.5261 15.3104C65.5261 14.4689 65.2819 13.8073 64.7944 13.325C64.306 12.8436 63.6276 12.6024 62.7599 12.6024H61.512V18.0185H62.7599ZM70.3768 19.3448C69.8196 19.3448 69.3198 19.2177 68.879 18.9619C68.4441 18.7132 68.0873 18.3494 67.8482 17.9109C67.5995 17.4539 67.4726 16.9412 67.4795 16.4217C67.4795 15.875 67.6024 15.3789 67.8482 14.9324C68.094 14.4868 68.4381 14.1365 68.879 13.8815C69.3206 13.6257 69.8196 13.4986 70.3768 13.4986C70.934 13.4986 71.433 13.6273 71.8738 13.8864C72.3154 14.1454 72.6588 14.4974 72.9046 14.9438C73.1504 15.3895 73.2733 15.8823 73.2733 16.4217C73.2733 16.9675 73.1504 17.4645 72.9046 17.9101C72.6588 18.3566 72.3146 18.7069 71.8738 18.9619C71.433 19.2177 70.9331 19.3448 70.3768 19.3448ZM70.3768 18.2555C70.68 18.2555 70.9626 18.1822 71.2232 18.0348C71.4829 17.8873 71.6911 17.6747 71.8468 17.3977C72.0024 17.1207 72.0803 16.7948 72.0803 16.4217C72.0803 16.0469 72.0024 15.7235 71.8468 15.4506C71.7012 15.1871 71.4854 14.9687 71.2232 14.8192C70.9656 14.6726 70.6736 14.5964 70.3768 14.5984C70.0728 14.5984 69.7909 14.6717 69.5304 14.8192C69.2698 14.9666 69.0617 15.1776 68.906 15.4506C68.7503 15.7235 68.6733 16.0477 68.6733 16.4217C68.6733 16.7956 68.7511 17.1207 68.906 17.3977C69.0617 17.6747 69.2698 17.8865 69.5304 18.0348C69.7909 18.1814 70.0728 18.2555 70.3768 18.2555ZM73.6428 13.6705H74.9333L76.051 17.6079H76.0944L77.3423 13.6705H78.5689L79.8062 17.6079H79.8488L80.9664 13.6705H82.2364L80.4666 19.1729H79.208L77.938 15.2241H77.9052L76.6475 19.1729H75.4102L73.642 13.6705H73.6428ZM83.0066 13.6705H84.1456V14.3931H84.1997C84.3594 14.134 84.5962 13.9206 84.9109 13.7511C85.2187 13.5842 85.564 13.4973 85.9146 13.4986C86.5865 13.4986 87.0986 13.6941 87.4493 14.0851C87.8008 14.4778 87.9762 15.0123 87.9762 15.6876V19.1729H86.7823V15.8498C86.7823 15.418 86.6758 15.1019 86.4628 14.9006C86.2489 14.6986 85.9548 14.5984 85.5778 14.5984C85.3099 14.5984 85.0715 14.6717 84.8617 14.8192C84.6498 14.9692 84.4813 15.1721 84.3734 15.4074C84.2578 15.6518 84.1997 15.9141 84.1997 16.1952V19.1729H83.0066V13.6705ZM89.3216 11.448H90.5146V19.1729H89.3216V11.448ZM94.4533 19.3448C93.8961 19.3448 93.3971 19.2177 92.9563 18.9619C92.5215 18.7132 92.1646 18.3494 91.9255 17.9109C91.6768 17.4539 91.5499 16.9412 91.5568 16.4217C91.5568 15.875 91.6797 15.3789 91.9255 14.9324C92.1714 14.4868 92.5155 14.1365 92.9563 13.8815C93.3971 13.6257 93.8961 13.4986 94.4533 13.4986C95.0105 13.4986 95.5103 13.6273 95.9511 13.8864C96.392 14.1454 96.7361 14.4974 96.9819 14.9438C97.2277 15.3895 97.3506 15.8823 97.3506 16.4217C97.3506 16.9675 97.2277 17.4645 96.9819 17.9101C96.7361 18.3566 96.392 18.7069 95.9511 18.9619C95.5095 19.2177 95.0105 19.3448 94.4533 19.3448ZM94.4533 18.2555C94.7573 18.2555 95.0392 18.1822 95.2997 18.0348C95.5603 17.8873 95.7684 17.6747 95.9241 17.3977C96.0798 17.1207 96.1568 16.7948 96.1568 16.4217C96.1568 16.0469 96.079 15.7235 95.9241 15.4506C95.7783 15.187 95.5623 14.9686 95.2997 14.8192C95.0421 14.6726 94.7501 14.5964 94.4533 14.5984C94.1501 14.5984 93.8675 14.6717 93.6069 14.8192C93.3472 14.9666 93.139 15.1776 92.9834 15.4506C92.8277 15.7235 92.7498 16.0477 92.7498 16.4217C92.7498 16.7956 92.8277 17.1207 92.9834 17.3977C93.139 17.6747 93.3472 17.8865 93.6069 18.0348C93.8675 18.1814 94.1493 18.2555 94.4533 18.2555ZM100.182 19.3448C99.785 19.3448 99.4302 19.2682 99.1188 19.1134C98.8075 18.9586 98.5658 18.7386 98.3921 18.4551C98.2164 18.1638 98.1262 17.8294 98.1315 17.4897C98.1315 16.9211 98.347 16.4714 98.7772 16.1414C99.2082 15.8098 99.7522 15.6445 100.41 15.6445C100.735 15.6445 101.029 15.6754 101.289 15.7365C101.55 15.7976 101.756 15.8644 101.908 15.9361V15.6559C101.908 15.3178 101.781 15.0424 101.528 14.8306C101.275 14.6188 100.949 14.512 100.551 14.512C100.269 14.512 100.004 14.5731 99.7539 14.6953C99.5039 14.8175 99.3032 14.987 99.1516 15.2021L98.3158 14.5666C98.5623 14.2278 98.8909 13.9565 99.2712 13.778C99.6782 13.5875 100.123 13.4917 100.573 13.4978C101.376 13.4978 101.995 13.6933 102.428 14.086C102.863 14.4778 103.08 15.0302 103.08 15.7422V19.1721H101.908V18.5146H101.853C101.681 18.7636 101.45 18.9672 101.181 19.1077C100.891 19.2658 100.558 19.3448 100.182 19.3448ZM100.389 18.3631C100.678 18.3631 100.938 18.2955 101.17 18.1586C101.396 18.0257 101.583 17.8361 101.712 17.6088C101.842 17.3815 101.909 17.1244 101.907 16.8632C101.724 16.7636 101.529 16.6877 101.327 16.6376C101.102 16.5795 100.871 16.5505 100.639 16.5512C100.19 16.5512 99.8604 16.6392 99.6506 16.8152C99.5491 16.8979 99.4679 17.0027 99.4134 17.1215C99.3588 17.2402 99.3324 17.3698 99.336 17.5003C99.336 17.7521 99.4343 17.959 99.6293 18.1203C99.8243 18.2832 100.078 18.3631 100.389 18.3631ZM106.692 19.3448C106.213 19.3504 105.743 19.2195 105.336 18.9676C104.928 18.7125 104.596 18.3528 104.376 17.9264C104.141 17.484 104.024 16.9822 104.024 16.4217C104.024 15.8604 104.141 15.3585 104.376 14.9169C104.596 14.4905 104.928 14.1309 105.336 13.8758C105.743 13.6235 106.213 13.4924 106.692 13.4978C107.083 13.4978 107.434 13.5841 107.745 13.7568C108.057 13.9295 108.291 14.1414 108.45 14.3931H108.505L108.451 13.6167V11.448H109.644V19.1729H108.505V18.4608H108.451C108.291 18.7052 108.057 18.9138 107.745 19.0865C107.423 19.2618 107.06 19.3508 106.692 19.3448ZM106.866 18.2555C107.155 18.2555 107.425 18.1798 107.675 18.0291C107.924 17.8783 108.125 17.6624 108.277 17.3814C108.429 17.1011 108.505 16.7809 108.505 16.4217C108.505 16.0616 108.429 15.7439 108.277 15.4669C108.138 15.2032 107.93 14.9815 107.675 14.8249C107.431 14.6764 107.15 14.5979 106.864 14.5979C106.577 14.5979 106.297 14.6764 106.052 14.8249C105.795 14.9803 105.585 15.2022 105.445 15.4669C105.293 15.7439 105.217 16.0616 105.217 16.4217C105.217 16.7809 105.293 17.1011 105.445 17.3814C105.597 17.6624 105.799 17.8783 106.052 18.0291C106.306 18.1798 106.577 18.2555 106.866 18.2555ZM116.165 19.3448C115.608 19.3448 115.109 19.2177 114.668 18.9619C114.233 18.7132 113.876 18.3494 113.637 17.9109C113.389 17.4539 113.262 16.9412 113.269 16.4217C113.269 15.875 113.392 15.3789 113.637 14.9324C113.883 14.4868 114.226 14.1365 114.668 13.8815C115.109 13.6257 115.608 13.4986 116.165 13.4986C116.722 13.4986 117.221 13.6273 117.662 13.8864C118.104 14.1454 118.447 14.4974 118.693 14.9438C118.939 15.3895 119.062 15.8823 119.062 16.4217C119.062 16.9675 118.939 17.4645 118.693 17.9101C118.447 18.3566 118.103 18.7069 117.662 18.9619C117.221 19.2177 116.722 19.3448 116.165 19.3448ZM116.165 18.2555C116.468 18.2555 116.751 18.1822 117.012 18.0348C117.272 17.8873 117.479 17.6747 117.635 17.3977C117.791 17.1207 117.869 16.7948 117.869 16.4217C117.869 16.0469 117.791 15.7235 117.635 15.4506C117.49 15.1871 117.274 14.9687 117.012 14.8192C116.754 14.6726 116.462 14.5964 116.165 14.5984C115.862 14.5984 115.579 14.6717 115.319 14.8192C115.058 14.9666 114.85 15.1776 114.695 15.4506C114.539 15.7235 114.462 16.0477 114.462 16.4217C114.462 16.7956 114.539 17.1207 114.695 17.3977C114.851 17.6747 115.058 17.8865 115.319 18.0348C115.579 18.1814 115.861 18.2555 116.165 18.2555ZM120.049 13.6705H121.189V14.3931H121.243C121.403 14.134 121.639 13.9206 121.954 13.7511C122.262 13.5842 122.607 13.4973 122.958 13.4986C123.63 13.4986 124.142 13.6941 124.492 14.0851C124.844 14.4778 125.019 15.0123 125.019 15.6876V19.1729H123.825V15.8498C123.825 15.418 123.719 15.1019 123.506 14.9006C123.292 14.6986 122.998 14.5984 122.621 14.5984C122.353 14.5984 122.115 14.6717 121.905 14.8192C121.693 14.9692 121.524 15.1721 121.417 15.4074C121.301 15.6518 121.243 15.9141 121.243 16.1952V19.1729H120.05V13.6705H120.049ZM131.171 19.2592C130.925 19.2592 130.693 19.2193 130.476 19.1403C130.28 19.0731 130.099 18.9666 129.945 18.8275C129.634 18.5179 129.478 18.0975 129.478 17.5647V14.7173H128.513V13.6705H129.478V12.1169H130.672V13.6705H132.018V14.7173H130.672V17.3064C130.672 17.6013 130.73 17.8099 130.846 17.9321C130.954 18.0755 131.142 18.148 131.41 18.148C131.533 18.148 131.641 18.1317 131.736 18.0991C131.843 18.0599 131.945 18.0073 132.039 17.9427V19.0971C131.8 19.2047 131.511 19.2592 131.171 19.2592ZM133.211 11.448H134.404V13.5515L134.35 14.3931H134.404C134.563 14.134 134.8 13.9206 135.116 13.7511C135.427 13.5833 135.776 13.4964 136.13 13.4986C136.802 13.4986 137.316 13.6941 137.67 14.0851C138.025 14.4778 138.202 15.0123 138.202 15.6876V19.1729H137.008V15.8498C137.008 15.4326 136.899 15.1198 136.677 14.9112C136.457 14.7027 136.169 14.5984 135.815 14.5984C135.547 14.5984 135.307 14.6742 135.094 14.8249C134.88 14.9756 134.712 15.1752 134.589 15.4237C134.466 15.6713 134.404 15.9361 134.404 16.2164V19.1729H133.211V11.448ZM142.087 19.3448C141.575 19.3529 141.071 19.2225 140.628 18.9676C140.201 18.7198 139.851 18.3595 139.618 17.9264C139.376 17.484 139.254 16.9863 139.254 16.4323C139.254 15.9076 139.372 15.4204 139.607 14.9707C139.832 14.5319 140.172 14.1611 140.59 13.8969C141.018 13.6285 141.515 13.4898 142.021 13.4978C142.578 13.4978 143.062 13.62 143.47 13.8644C143.879 14.1088 144.189 14.4436 144.403 14.8681C144.616 15.2917 144.723 15.7707 144.723 16.3027C144.723 16.4037 144.712 16.5292 144.69 16.6807H140.448C140.492 17.1907 140.674 17.585 140.996 17.862C141.318 18.139 141.693 18.2775 142.119 18.2775C142.459 18.2775 142.754 18.2001 143.004 18.0453C143.253 17.8906 143.454 17.6804 143.606 17.414L144.615 17.8889C144.371 18.3245 144.02 18.6917 143.595 18.9562C143.175 19.2161 142.673 19.3448 142.087 19.3448ZM143.508 15.774C143.49 15.5705 143.427 15.3734 143.323 15.1972C143.205 14.9963 143.034 14.8304 142.83 14.7165C142.609 14.5878 142.34 14.5226 142.021 14.5226C141.638 14.5226 141.314 14.6367 141.05 14.8624C140.787 15.0888 140.604 15.3927 140.502 15.7748H143.508V15.774ZM63.5244 26.5312H66.4544L71.5403 39.9898H68.7233L67.5885 36.7759H62.4084L61.2743 39.9898H58.4573L63.5244 26.5312ZM66.7568 34.4451L65.5662 31.0616L65.0746 29.4445H64.923L64.4314 31.0616L63.222 34.4451H66.7568ZM72.2794 30.4034H74.6048V31.5684H74.7555C75.0202 31.1553 75.4053 30.8075 75.9092 30.5256C76.4131 30.2437 76.9932 30.1019 77.6487 30.1019C78.5173 30.1019 79.3088 30.3186 80.0208 30.7512C80.7337 31.183 81.2909 31.7884 81.694 32.5648C82.0971 33.342 82.2995 34.2186 82.2995 35.1962C82.2995 36.1869 82.0971 37.0667 81.694 37.8382C81.2909 38.6089 80.7329 39.2102 80.0208 39.6428C79.3088 40.0746 78.5181 40.2913 77.6487 40.2913C76.9932 40.2913 76.4099 40.1528 75.8994 39.8774C75.3889 39.602 75.0079 39.2574 74.7555 38.8428H74.6048L74.7555 40.1968V44.0502H72.2794V30.4042V30.4034ZM77.2137 38.0167C77.6799 38.0167 78.115 37.8977 78.5181 37.659C78.9212 37.4211 79.2424 37.0887 79.4825 36.6626C79.7218 36.2366 79.8414 35.7486 79.8414 35.1962C79.8414 34.6455 79.7218 34.1567 79.4825 33.7306C79.2581 33.32 78.9244 32.9787 78.5181 32.744C78.1224 32.5141 77.6719 32.394 77.2137 32.3961C76.7597 32.3961 76.3312 32.5118 75.9272 32.744C75.5212 32.9789 75.1879 33.3201 74.9637 33.7306C74.7244 34.1567 74.6048 34.6455 74.6048 35.197C74.6048 35.7486 74.7244 36.2366 74.9637 36.6635C75.2029 37.0887 75.5249 37.4211 75.9281 37.659C76.3156 37.8929 76.7603 38.0166 77.2137 38.0167ZM83.1705 30.4034H85.4959V31.5684H85.6475C85.9121 31.1553 86.2964 30.8075 86.8004 30.5256C87.3043 30.2437 87.8844 30.1019 88.5399 30.1019C89.4092 30.1019 90.1999 30.3186 90.9128 30.7512C91.6248 31.183 92.1828 31.7884 92.586 32.5648C92.9891 33.342 93.1907 34.2186 93.1907 35.1962C93.1907 36.1869 92.9891 37.0667 92.586 37.8382C92.182 38.6089 91.6248 39.2102 90.9128 39.6428C90.1999 40.0746 89.4092 40.2913 88.5399 40.2913C87.8844 40.2913 87.3018 40.1528 86.7913 39.8774C86.2809 39.602 85.899 39.2574 85.6475 38.8428H85.4959L85.6475 40.1968V44.0502H83.1705V30.4042V30.4034ZM88.1048 38.0167C88.5718 38.0167 89.0061 37.8977 89.4092 37.659C89.8124 37.4211 90.1344 37.0887 90.3736 36.6626C90.6129 36.2366 90.7325 35.7486 90.7325 35.1962C90.7325 34.6455 90.6129 34.1567 90.3736 33.7306C90.1492 33.32 89.8156 32.9787 89.4092 32.744C89.0135 32.5141 88.5631 32.394 88.1048 32.3961C87.6509 32.3961 87.2223 32.5118 86.8192 32.744C86.4129 32.9787 86.0792 33.32 85.8548 33.7306C85.6155 34.1567 85.4959 34.6455 85.4959 35.197C85.4959 35.7486 85.6155 36.2366 85.8548 36.6635C86.0949 37.0887 86.4161 37.4211 86.8192 37.659C87.207 37.8931 87.652 38.0168 88.1056 38.0167H88.1048ZM101.834 40.2913C100.649 40.2913 99.6031 39.9589 98.696 39.2949C97.7882 38.6301 97.1515 37.69 96.7861 36.4753L99.1869 35.5351C99.3761 36.2496 99.6973 36.8199 100.151 37.246C100.605 37.672 101.172 37.8847 101.853 37.8847C102.42 37.8847 102.905 37.7437 103.308 37.4619C103.712 37.18 103.914 36.7881 103.914 36.2871C103.919 36.0516 103.87 35.818 103.77 35.6045C103.67 35.391 103.522 35.2033 103.337 35.0561C102.952 34.7359 102.269 34.3945 101.285 34.0312L100.454 33.7306C99.6128 33.4475 98.8494 32.9746 98.2233 32.3489C97.6055 31.7289 97.2965 30.9484 97.2965 30.0083C97.2965 29.3076 97.4793 28.6681 97.8455 28.0913C98.2102 27.5145 98.7272 27.0607 99.395 26.7283C100.063 26.3967 100.819 26.2305 101.664 26.2305C102.886 26.2305 103.851 26.5157 104.556 27.086C105.263 27.6562 105.748 28.3235 106.012 29.0877L103.762 30.0278C103.626 29.6174 103.373 29.255 103.035 28.9842C102.688 28.7023 102.244 28.5605 101.702 28.5605C101.147 28.5605 100.69 28.6901 100.331 28.9467C99.9718 29.2033 99.7924 29.539 99.7924 29.952C99.7924 30.3537 99.962 30.695 100.303 30.9769C100.643 31.2588 101.204 31.5309 101.985 31.7941L102.836 32.0768C104.008 32.4776 104.906 33.0071 105.53 33.6654C106.154 34.3229 106.466 35.184 106.466 36.2496C106.466 37.127 106.239 37.8692 105.785 38.477C105.337 39.0803 104.733 39.5514 104.037 39.8399C103.341 40.1374 102.592 40.291 101.834 40.2913ZM111.496 40.1406C111.046 40.1454 110.598 40.0723 110.173 39.9247C109.77 39.7805 109.442 39.5825 109.19 39.3324C108.597 38.7686 108.302 37.9661 108.302 36.9258V32.5085H106.619V30.4042H108.302V27.697H110.778V30.4042H113.141V32.5094H110.778V36.4761C110.778 36.9649 110.885 37.3152 111.1 37.5287C111.276 37.7291 111.578 37.8293 112.007 37.8293C112.246 37.8293 112.445 37.7983 112.602 37.7356C112.76 37.6729 112.965 37.5661 113.217 37.4154V39.822C112.669 40.0361 112.085 40.1445 111.496 40.1414V40.1406ZM118.701 40.2913C117.706 40.2913 116.817 40.0689 116.036 39.6232C115.27 39.1943 114.639 38.5633 114.211 37.7999C113.777 37.0292 113.559 36.1624 113.559 35.197C113.559 34.2438 113.777 33.3803 114.211 32.603C114.636 31.8355 115.268 31.2008 116.036 30.77C116.817 30.3252 117.706 30.1019 118.701 30.1019C119.684 30.1019 120.567 30.3252 121.348 30.77C122.115 31.2008 122.747 31.8355 123.172 32.603C123.607 33.3794 123.825 34.2446 123.825 35.197C123.825 36.1616 123.607 37.0301 123.172 37.7999C122.745 38.5633 122.113 39.1943 121.348 39.6232C120.567 40.0689 119.684 40.2913 118.701 40.2913ZM118.701 38.0167C119.18 38.0167 119.621 37.9034 120.024 37.6777C120.432 37.4483 120.766 37.1095 120.989 36.7001C121.228 36.2748 121.348 35.773 121.348 35.197C121.348 34.6332 121.228 34.1379 120.989 33.7118C120.766 33.3025 120.432 32.9637 120.024 32.7342C119.621 32.5086 119.164 32.392 118.701 32.3961C118.223 32.3961 117.781 32.5085 117.378 32.7342C116.969 32.9651 116.632 33.3033 116.404 33.7118C116.159 34.1379 116.036 34.6324 116.036 35.197C116.036 35.7608 116.159 36.2586 116.404 36.6912C116.65 37.1229 116.975 37.4529 117.378 37.6777C117.781 37.9034 118.222 38.0167 118.701 38.0167ZM124.753 30.4034H127.078V31.6816H127.229C127.469 31.2303 127.84 30.858 128.345 30.5631C128.849 30.2687 129.424 30.1161 130.008 30.1215C130.449 30.1215 130.852 30.1907 131.219 30.3284V32.7904C130.937 32.6837 130.65 32.5929 130.358 32.5183C130.114 32.4606 129.863 32.4321 129.612 32.4336C128.88 32.4336 128.301 32.6967 127.872 33.223C127.444 33.7493 127.229 34.4133 127.229 35.2158V39.9898H124.753V30.4042V30.4034ZM136.003 40.2913C135.045 40.2913 134.182 40.0713 133.414 39.633C132.655 39.205 132.03 38.5772 131.608 37.8187C131.174 37.048 130.956 36.1812 130.956 35.2158C130.956 34.3009 131.17 33.4519 131.598 32.6682C132.013 31.8992 132.627 31.2539 133.376 30.7985C134.132 30.3341 134.976 30.1028 135.909 30.1028C136.904 30.1028 137.761 30.3154 138.48 30.7415C139.185 31.1532 139.753 31.7609 140.115 32.4898C140.487 33.2295 140.673 34.0499 140.673 34.9526C140.673 35.241 140.654 35.5164 140.616 35.7795H133.375C133.501 36.5437 133.807 37.1238 134.293 37.5181C134.777 37.9132 135.361 38.1103 136.042 38.1103C136.609 38.1103 137.097 37.9881 137.507 37.7437C137.916 37.4993 138.241 37.1702 138.48 36.7571L140.484 37.7348C139.501 39.4391 138.007 40.2913 136.003 40.2913ZM138.291 34.0312C138.266 33.7306 138.156 33.4332 137.96 33.1383C137.752 32.8325 137.473 32.5809 137.147 32.4051C136.8 32.2112 136.394 32.1142 135.928 32.1142C135.335 32.1142 134.828 32.2861 134.406 32.6307C133.983 32.9754 133.678 33.4422 133.488 34.032H138.291V34.0312Z" fill="#E5E8EC"/>
</svg>
