<svg width="197" height="65" viewBox="0 0 197 65" fill="none" xmlns="http://www.w3.org/2000/svg">
<g filter="url(#filter0_b)">
<path fill-rule="evenodd" clip-rule="evenodd" d="M7.61965 0H189.381C192.03 0 192.991 0.27468 193.959 0.789333C194.916 1.29287 195.699 2.07093 196.206 3.02247C196.725 3.98633 197 4.94127 197 7.57502V57.425C197 60.0587 196.724 61.0147 196.206 61.9765C195.7 62.9283 194.917 63.7067 193.96 64.2107C192.99 64.7263 192.03 65 189.381 65H7.61965C4.97044 65 4.00891 64.7263 3.04139 64.2107C2.08403 63.7071 1.30107 62.9291 0.794148 61.9775C0.275477 61.0137 0.000183105 60.0587 0.000183105 57.425V7.57601C0.000183105 4.94126 0.276475 3.98633 0.794148 3.02247C1.3008 2.07107 2.08341 1.29303 3.04039 0.789333C4.0099 0.273688 4.97044 0 7.61965 0Z" fill="#4D3B91"/>
</g>
<path d="M43.6501 30.9118C43.6102 26.6697 47.228 24.6061 47.3935 24.5099C45.3448 21.6114 42.1699 21.2147 41.0538 21.183C38.3866 20.9113 35.7993 22.7319 34.4407 22.7319C33.0553 22.7319 30.9627 21.2098 28.7084 21.2544C25.8059 21.298 23.0928 22.9283 21.6036 25.4609C18.5315 30.6233 20.8226 38.2102 23.7661 42.3829C25.2383 44.4287 26.9589 46.7094 29.2121 46.6291C31.4145 46.5418 32.2374 45.2666 34.8966 45.2666C37.5308 45.2666 38.3038 46.6291 40.6009 46.5775C42.9649 46.5418 44.4541 44.5249 45.8754 42.4623C47.5771 40.122 48.2593 37.8125 48.2872 37.6945C48.2334 37.6757 43.696 35.9939 43.6501 30.9118ZM39.3113 18.4372C40.4962 16.9993 41.3071 15.0429 41.0817 13.0566C39.3661 13.13 37.2216 14.2079 35.9868 15.615C34.8936 16.8546 33.9181 18.8874 34.1694 20.7973C36.0965 20.9371 38.0744 19.8542 39.3113 18.4372ZM73.3859 13.9352H76.4102C77.3876 13.9352 78.2415 14.1316 78.9736 14.5252C79.687 14.9021 80.2726 15.4799 80.6573 16.1862C81.0483 16.9002 81.2448 17.7163 81.2448 18.6355C81.2448 19.5548 81.0483 20.3709 80.6563 21.0848C80.2716 21.7911 79.686 22.3689 78.9726 22.7458C78.2415 23.1395 77.3876 23.3368 76.4102 23.3368H73.3859V13.9342V13.9352ZM76.3842 21.9317C77.4405 21.9317 78.2664 21.6401 78.8609 21.0591C79.4544 20.476 79.7516 19.6688 79.7516 18.6355C79.7516 17.6112 79.4544 16.806 78.8609 16.2189C78.2664 15.6329 77.4405 15.3394 76.3842 15.3394H74.8651V21.9317H76.3842ZM85.6565 23.546C84.9782 23.546 84.3698 23.3914 83.8331 23.08C83.3038 22.7773 82.8694 22.3345 82.5783 21.8008C82.2756 21.2445 82.1211 20.6205 82.1295 19.9881C82.1295 19.3227 82.2791 18.7188 82.5783 18.1754C82.8776 17.633 83.2965 17.2066 83.8331 16.8962C84.3708 16.5848 84.9782 16.4301 85.6565 16.4301C86.3347 16.4301 86.9422 16.5868 87.4788 16.9022C88.0164 17.2175 88.4343 17.6459 88.7336 18.1893C89.0328 18.7317 89.1824 19.3316 89.1824 19.9881C89.1824 20.6525 89.0328 21.2574 88.7336 21.7998C88.4343 22.3432 88.0154 22.7696 87.4788 23.08C86.9422 23.3914 86.3337 23.546 85.6565 23.546ZM85.6565 22.2202C86.0255 22.2202 86.3696 22.131 86.6868 21.9515C87.003 21.772 87.2564 21.5132 87.4459 21.1761C87.6354 20.8389 87.7301 20.4423 87.7301 19.9881C87.7301 19.5319 87.6354 19.1383 87.4459 18.8061C87.2687 18.4855 87.006 18.2196 86.6868 18.0376C86.3732 17.8592 86.0177 17.7664 85.6565 17.7688C85.2864 17.7688 84.9433 17.8581 84.6261 18.0376C84.3089 18.2171 84.0556 18.4739 83.866 18.8061C83.6765 19.1383 83.5828 19.5329 83.5828 19.9881C83.5828 20.4433 83.6775 20.8389 83.866 21.1761C84.0556 21.5132 84.3089 21.771 84.6261 21.9515C84.9433 22.13 85.2864 22.2202 85.6565 22.2202ZM89.6323 16.6394H91.2032L92.5638 21.4319H92.6166L94.1357 16.6394H95.6289L97.135 21.4319H97.1869L98.5474 16.6394H100.093L97.939 23.3368H96.4069L94.8609 18.5304H94.821L93.2899 23.3368H91.7838L89.6313 16.6394H89.6323ZM101.031 16.6394H102.417V17.519H102.483C102.678 17.2036 102.966 16.9438 103.349 16.7376C103.724 16.5344 104.144 16.4287 104.571 16.4301C105.389 16.4301 106.012 16.6681 106.439 17.1441C106.867 17.6221 107.081 18.2726 107.081 19.0946V23.3368H105.627V19.292C105.627 18.7664 105.498 18.3817 105.238 18.1367C104.978 17.8908 104.62 17.7688 104.161 17.7688C103.835 17.7688 103.545 17.8581 103.289 18.0376C103.031 18.2202 102.826 18.4671 102.695 18.7535C102.554 19.051 102.483 19.3703 102.483 19.7124V23.3368H101.031V16.6394ZM108.718 13.9342H110.171V23.3368H108.718V13.9342ZM114.965 23.546C114.287 23.546 113.68 23.3914 113.143 23.08C112.614 22.7773 112.179 22.3345 111.888 21.8008C111.585 21.2445 111.431 20.6205 111.439 19.9881C111.439 19.3227 111.589 18.7188 111.888 18.1754C112.187 17.633 112.606 17.2066 113.143 16.8962C113.68 16.5848 114.287 16.4301 114.965 16.4301C115.644 16.4301 116.252 16.5868 116.789 16.9022C117.325 17.2175 117.744 17.6459 118.043 18.1893C118.343 18.7317 118.492 19.3316 118.492 19.9881C118.492 20.6525 118.343 21.2574 118.043 21.7998C117.744 22.3432 117.325 22.7696 116.789 23.08C116.251 23.3914 115.644 23.546 114.965 23.546ZM114.965 22.2202C115.335 22.2202 115.678 22.131 115.996 21.9515C116.313 21.772 116.566 21.5132 116.756 21.1761C116.945 20.8389 117.039 20.4423 117.039 19.9881C117.039 19.5319 116.944 19.1383 116.756 18.8061C116.578 18.4853 116.315 18.2194 115.996 18.0376C115.682 17.8592 115.327 17.7664 114.965 17.7688C114.596 17.7688 114.252 17.8581 113.935 18.0376C113.619 18.2171 113.365 18.4739 113.176 18.8061C112.986 19.1383 112.892 19.5329 112.892 19.9881C112.892 20.4433 112.986 20.8389 113.176 21.1761C113.365 21.5132 113.619 21.771 113.935 21.9515C114.252 22.13 114.595 22.2202 114.965 22.2202ZM121.939 23.546C121.456 23.546 121.024 23.4528 120.645 23.2644C120.266 23.076 119.971 22.8083 119.76 22.4632C119.546 22.1085 119.436 21.7015 119.443 21.2881C119.443 20.596 119.705 20.0486 120.229 19.647C120.753 19.2434 121.416 19.0421 122.217 19.0421C122.613 19.0421 122.97 19.0798 123.287 19.1541C123.604 19.2285 123.856 19.3098 124.04 19.3971V19.056C124.04 18.6444 123.885 18.3093 123.577 18.0515C123.269 17.7936 122.873 17.6637 122.388 17.6637C122.045 17.6637 121.722 17.7381 121.418 17.8868C121.114 18.0356 120.869 18.2418 120.685 18.5036L119.667 17.7302C119.967 17.3177 120.367 16.9875 120.83 16.7703C121.326 16.5384 121.868 16.4217 122.415 16.4292C123.393 16.4292 124.146 16.6671 124.673 17.1451C125.202 17.6221 125.466 18.2944 125.466 19.1611V23.3358H124.04V22.5356H123.973C123.764 22.8386 123.483 23.0864 123.155 23.2575C122.802 23.4499 122.397 23.546 121.939 23.546ZM122.191 22.3511C122.543 22.3511 122.859 22.2688 123.141 22.1022C123.417 21.9404 123.644 21.7097 123.802 21.433C123.959 21.1564 124.041 20.8435 124.039 20.5256C123.817 20.4042 123.579 20.3119 123.333 20.2509C123.059 20.1802 122.778 20.1449 122.495 20.1458C121.948 20.1458 121.547 20.2529 121.292 20.4671C121.168 20.5678 121.07 20.6953 121.003 20.8399C120.937 20.9844 120.905 21.1422 120.909 21.301C120.909 21.6074 121.029 21.8593 121.266 22.0556C121.504 22.254 121.812 22.3511 122.191 22.3511ZM129.864 23.546C129.281 23.5529 128.708 23.3936 128.213 23.0869C127.716 22.7764 127.313 22.3387 127.044 21.8196C126.758 21.2812 126.615 20.6703 126.615 19.9881C126.615 19.3049 126.758 18.694 127.044 18.1566C127.313 17.6375 127.716 17.1998 128.213 16.8893C128.708 16.5823 129.281 16.4226 129.864 16.4292C130.34 16.4292 130.767 16.5343 131.146 16.7445C131.525 16.9547 131.81 17.2125 132.004 17.519H132.07L132.005 16.5739V13.9342H133.457V23.3368H132.07V22.4701H132.005C131.81 22.7676 131.525 23.0215 131.146 23.2317C130.753 23.4451 130.312 23.5534 129.864 23.546ZM130.076 22.2202C130.428 22.2202 130.756 22.128 131.06 21.9446C131.363 21.7611 131.609 21.4983 131.793 21.1562C131.978 20.8151 132.07 20.4254 132.07 19.9881C132.07 19.5498 131.978 19.1631 131.793 18.8259C131.623 18.505 131.37 18.2351 131.06 18.0445C130.763 17.8638 130.421 17.7682 130.073 17.7682C129.724 17.7682 129.382 17.8638 129.085 18.0445C128.772 18.2337 128.517 18.5037 128.346 18.8259C128.16 19.1631 128.069 19.5498 128.069 19.9881C128.069 20.4254 128.16 20.8151 128.346 21.1562C128.531 21.4983 128.777 21.7611 129.085 21.9446C129.394 22.128 129.723 22.2202 130.076 22.2202ZM141.396 23.546C140.717 23.546 140.11 23.3914 139.573 23.08C139.044 22.7773 138.61 22.3345 138.318 21.8008C138.016 21.2445 137.861 20.6205 137.87 19.9881C137.87 19.3227 138.019 18.7188 138.318 18.1754C138.618 17.633 139.036 17.2066 139.573 16.8962C140.11 16.5848 140.717 16.4301 141.396 16.4301C142.074 16.4301 142.681 16.5868 143.218 16.9022C143.756 17.2175 144.173 17.6459 144.473 18.1893C144.772 18.7317 144.922 19.3316 144.922 19.9881C144.922 20.6525 144.772 21.2574 144.473 21.7998C144.173 22.3432 143.755 22.7696 143.218 23.08C142.681 23.3914 142.074 23.546 141.396 23.546ZM141.396 22.2202C141.765 22.2202 142.109 22.131 142.426 21.9515C142.743 21.772 142.995 21.5132 143.185 21.1761C143.374 20.8389 143.469 20.4423 143.469 19.9881C143.469 19.5319 143.374 19.1383 143.185 18.8061C143.008 18.4855 142.745 18.2196 142.426 18.0376C142.112 17.8592 141.757 17.7664 141.396 17.7688C141.027 17.7688 140.682 17.8581 140.365 18.0376C140.048 18.2171 139.795 18.4739 139.606 18.8061C139.417 19.1383 139.322 19.5329 139.322 19.9881C139.322 20.4433 139.417 20.8389 139.606 21.1761C139.796 21.5132 140.048 21.771 140.365 21.9515C140.682 22.13 141.026 22.2202 141.396 22.2202ZM146.123 16.6394H147.511V17.519H147.577C147.771 17.2036 148.059 16.9438 148.442 16.7376C148.817 16.5344 149.238 16.4287 149.664 16.4301C150.482 16.4301 151.106 16.6681 151.533 17.1441C151.96 17.6221 152.174 18.2726 152.174 19.0946V23.3368H150.721V19.292C150.721 18.7664 150.591 18.3817 150.332 18.1367C150.071 17.8908 149.713 17.7688 149.254 17.7688C148.928 17.7688 148.638 17.8581 148.383 18.0376C148.125 18.2202 147.92 18.4671 147.788 18.7535C147.648 19.051 147.577 19.3703 147.577 19.7124V23.3368H146.124V16.6394H146.123ZM159.663 23.4419C159.364 23.4419 159.081 23.3933 158.817 23.2971C158.578 23.2154 158.358 23.0858 158.171 22.9164C157.792 22.5395 157.602 22.0279 157.602 21.3793V17.9136H156.427V16.6394H157.602V14.7484H159.055V16.6394H160.693V17.9136H159.055V21.065C159.055 21.424 159.125 21.6778 159.267 21.8266C159.398 22.0011 159.628 22.0893 159.953 22.0893C160.103 22.0893 160.235 22.0695 160.35 22.0299C160.481 21.9821 160.605 21.9181 160.719 21.8395V23.2446C160.429 23.3755 160.077 23.4419 159.663 23.4419ZM162.146 13.9342H163.599V16.4946L163.533 17.519H163.599C163.792 17.2036 164.08 16.9438 164.464 16.7376C164.843 16.5333 165.268 16.4276 165.699 16.4301C166.517 16.4301 167.143 16.6681 167.574 17.1441C168.006 17.6221 168.222 18.2726 168.222 19.0946V23.3368H166.769V19.292C166.769 18.7843 166.635 18.4035 166.366 18.1496C166.097 17.8958 165.747 17.7688 165.316 17.7688C164.99 17.7688 164.698 17.8611 164.438 18.0445C164.178 18.228 163.973 18.4709 163.823 18.7734C163.673 19.0748 163.599 19.3971 163.599 19.7382V23.3368H162.146V13.9342ZM172.951 23.546C172.328 23.5559 171.714 23.3972 171.174 23.0869C170.655 22.7854 170.229 22.3467 169.945 21.8196C169.65 21.2812 169.503 20.6753 169.503 20.001C169.503 19.3624 169.646 18.7694 169.931 18.222C170.206 17.6879 170.619 17.2366 171.128 16.9151C171.649 16.5883 172.255 16.4194 172.871 16.4292C173.549 16.4292 174.138 16.5779 174.634 16.8754C175.132 17.1729 175.51 17.5804 175.77 18.0971C176.03 18.6127 176.159 19.1958 176.159 19.8433C176.159 19.9663 176.146 20.119 176.12 20.3034H170.956C171.009 20.9242 171.231 21.4041 171.623 21.7413C172.015 22.0784 172.471 22.247 172.99 22.247C173.404 22.247 173.763 22.1528 174.067 21.9644C174.37 21.776 174.615 21.5202 174.8 21.1959L176.028 21.774C175.731 22.3042 175.304 22.7511 174.786 23.073C174.275 23.3894 173.664 23.546 172.951 23.546ZM174.68 19.1998C174.659 18.952 174.582 18.7122 174.456 18.4977C174.311 18.2531 174.104 18.0512 173.855 17.9126C173.586 17.7559 173.259 17.6766 172.871 17.6766C172.404 17.6766 172.01 17.8154 171.689 18.0901C171.368 18.3658 171.145 18.7357 171.022 19.2007H174.68V19.1998ZM77.3148 32.2932H80.8817L87.0728 48.6748H83.6436L82.2621 44.7628H75.9563L74.5759 48.6748H71.1466L77.3148 32.2932ZM81.2497 41.9258L79.8005 37.8076L79.202 35.8392H79.0175L78.419 37.8076L76.9468 41.9258H81.2497ZM87.9725 37.0064H90.8033V38.4244H90.9868C91.309 37.9216 91.7778 37.4982 92.3912 37.1551C93.0046 36.812 93.7108 36.6395 94.5088 36.6395C95.566 36.6395 96.5296 36.9032 97.3964 37.4298C98.2641 37.9553 98.9424 38.6921 99.4331 39.6371C99.9239 40.5831 100.17 41.6501 100.17 42.8401C100.17 44.0459 99.9239 45.1169 99.4331 46.0559C98.9424 46.994 98.2631 47.7258 97.3964 48.2524C96.5296 48.7779 95.567 49.0417 94.5088 49.0417C93.7108 49.0417 93.0006 48.8731 92.3792 48.538C91.7578 48.2028 91.294 47.7833 90.9868 47.2786H90.8033L90.9868 48.9267V53.6171H87.9725V37.0073V37.0064ZM93.9791 46.2731C94.5467 46.2731 95.0763 46.1283 95.5671 45.8378C96.0578 45.5482 96.4488 45.1436 96.741 44.625C97.0323 44.1064 97.1779 43.5124 97.1779 42.8401C97.1779 42.1697 97.0323 41.5748 96.741 41.0562C96.4678 40.5565 96.0617 40.141 95.5671 39.8553C95.0854 39.5755 94.537 39.4293 93.9791 39.4319C93.4265 39.4319 92.9049 39.5727 92.4131 39.8553C91.9189 40.1412 91.5131 40.5566 91.2401 41.0562C90.9489 41.5748 90.8033 42.1697 90.8033 42.8411C90.8033 43.5124 90.9489 44.1064 91.2401 44.626C91.5314 45.1436 91.9234 45.5482 92.4141 45.8378C92.8859 46.1225 93.4272 46.2731 93.9791 46.2731ZM101.231 37.0064H104.061V38.4244H104.246C104.568 37.9216 105.036 37.4982 105.649 37.1551C106.263 36.812 106.969 36.6395 107.767 36.6395C108.825 36.6395 109.788 36.9032 110.655 37.4298C111.522 37.9553 112.201 38.6921 112.692 39.6371C113.183 40.5831 113.428 41.6501 113.428 42.8401C113.428 44.0459 113.183 45.1169 112.692 46.0559C112.2 46.994 111.522 47.7258 110.655 48.2524C109.788 48.7779 108.825 49.0417 107.767 49.0417C106.969 49.0417 106.26 48.8731 105.638 48.538C105.017 48.2028 104.552 47.7833 104.246 47.2786H104.061L104.246 48.9267V53.6171H101.231V37.0073V37.0064ZM107.237 46.2731C107.806 46.2731 108.334 46.1283 108.825 45.8378C109.316 45.5482 109.708 45.1436 109.999 44.625C110.29 44.1064 110.436 43.5124 110.436 42.8401C110.436 42.1697 110.29 41.5748 109.999 41.0562C109.726 40.5565 109.32 40.141 108.825 39.8553C108.343 39.5755 107.795 39.4293 107.237 39.4319C106.685 39.4319 106.163 39.5727 105.672 39.8553C105.178 40.141 104.771 40.5565 104.498 41.0562C104.207 41.5748 104.061 42.1697 104.061 42.8411C104.061 43.5124 104.207 44.1064 104.498 44.626C104.79 45.1436 105.181 45.5482 105.672 45.8378C106.144 46.1227 106.686 46.2732 107.238 46.2731H107.237ZM123.95 49.0417C122.508 49.0417 121.234 48.6371 120.13 47.8289C119.025 47.0198 118.25 45.8754 117.805 44.3969L120.728 43.2526C120.958 44.1223 121.349 44.8164 121.902 45.335C122.454 45.8536 123.144 46.1124 123.973 46.1124C124.663 46.1124 125.254 45.9409 125.745 45.5978C126.236 45.2547 126.482 44.7777 126.482 44.1679C126.489 43.8813 126.429 43.597 126.307 43.3371C126.185 43.0772 126.005 42.8488 125.78 42.6695C125.311 42.2798 124.479 41.8643 123.282 41.4221L122.27 41.0562C121.246 40.7116 120.317 40.136 119.555 39.3744C118.802 38.6197 118.426 37.6698 118.426 36.5254C118.426 35.6726 118.649 34.8942 119.095 34.1921C119.539 33.4901 120.168 32.9377 120.981 32.5331C121.794 32.1295 122.714 31.9273 123.743 31.9273C125.231 31.9273 126.405 32.2743 127.264 32.9685C128.124 33.6626 128.714 34.4747 129.036 35.4049L126.297 36.5492C126.131 36.0497 125.824 35.6086 125.412 35.2789C124.99 34.9358 124.449 34.7633 123.789 34.7633C123.113 34.7633 122.558 34.921 122.12 35.2333C121.683 35.5457 121.465 35.9542 121.465 36.457C121.465 36.9459 121.671 37.3614 122.086 37.7045C122.5 38.0476 123.183 38.3788 124.134 38.6991L125.169 39.0432C126.597 39.531 127.69 40.1756 128.449 40.9768C129.209 41.7771 129.589 42.8252 129.589 44.1223C129.589 45.1902 129.313 46.0936 128.76 46.8334C128.215 47.5678 127.479 48.1412 126.631 48.4923C125.784 48.8545 124.872 49.0414 123.95 49.0417ZM135.712 48.8583C135.164 48.8641 134.619 48.7752 134.101 48.5955C133.611 48.42 133.212 48.179 132.904 47.8746C132.183 47.1884 131.823 46.2116 131.823 44.9453V39.5687H129.774V37.0073H131.823V33.7122H134.837V37.0073H137.714V39.5697H134.837V44.3979C134.837 44.9929 134.968 45.4193 135.229 45.6791C135.444 45.923 135.812 46.045 136.334 46.045C136.625 46.045 136.867 46.0073 137.059 45.931C137.25 45.8546 137.5 45.7247 137.807 45.5413V48.4705C137.14 48.7311 136.429 48.8631 135.712 48.8592V48.8583ZM144.483 49.0417C143.271 49.0417 142.189 48.771 141.238 48.2286C140.306 47.7065 139.537 46.9385 139.017 46.0093C138.488 45.0712 138.223 44.0161 138.223 42.8411C138.223 41.6809 138.488 40.6298 139.017 39.6837C139.534 38.7495 140.304 37.9769 141.238 37.4526C142.19 36.9112 143.271 36.6395 144.483 36.6395C145.68 36.6395 146.754 36.9112 147.704 37.4526C148.639 37.9769 149.408 38.7495 149.926 39.6837C150.454 40.6288 150.72 41.6819 150.72 42.8411C150.72 44.0152 150.455 45.0722 149.926 46.0093C149.405 46.9385 148.636 47.7065 147.704 48.2286C146.754 48.771 145.68 49.0417 144.483 49.0417ZM144.483 46.2731C145.066 46.2731 145.603 46.1353 146.094 45.8606C146.589 45.5812 146.996 45.1689 147.268 44.6706C147.559 44.153 147.704 43.5422 147.704 42.8411C147.704 42.1549 147.559 41.552 147.268 41.0333C146.996 40.5351 146.589 40.1227 146.094 39.8434C145.602 39.5688 145.047 39.4269 144.483 39.4319C143.9 39.4319 143.363 39.5687 142.872 39.8434C142.374 40.1244 141.964 40.5361 141.687 41.0333C141.388 41.552 141.238 42.1539 141.238 42.8411C141.238 43.5273 141.388 44.1332 141.687 44.6597C141.986 45.1853 142.381 45.5869 142.872 45.8606C143.363 46.1353 143.899 46.2731 144.483 46.2731ZM151.85 37.0064H154.681V38.5622H154.864C155.156 38.0129 155.608 37.5597 156.223 37.2007C156.836 36.8424 157.536 36.6566 158.247 36.6633C158.784 36.6633 159.275 36.7475 159.721 36.9151V39.9118C159.378 39.782 159.028 39.6714 158.673 39.5806C158.376 39.5103 158.071 39.4757 157.765 39.4775C156.874 39.4775 156.169 39.7978 155.647 40.4384C155.125 41.079 154.864 41.8871 154.864 42.8639V48.6748H151.85V37.0073V37.0064ZM165.545 49.0417C164.379 49.0417 163.328 48.774 162.393 48.2405C161.469 47.7195 160.709 46.9554 160.194 46.0321C159.666 45.094 159.4 44.039 159.4 42.8639C159.4 41.7503 159.661 40.717 160.182 39.7631C160.688 38.8271 161.435 38.0416 162.347 37.4873C163.266 36.9221 164.295 36.6404 165.43 36.6404C166.642 36.6404 167.685 36.8993 168.56 37.4179C169.418 37.919 170.11 38.6587 170.551 39.5459C171.004 40.4463 171.229 41.4449 171.229 42.5436C171.229 42.8946 171.206 43.2298 171.16 43.5501H162.346C162.499 44.4802 162.872 45.1863 163.463 45.6662C164.052 46.1471 164.763 46.3871 165.592 46.3871C166.282 46.3871 166.876 46.2384 167.375 45.9409C167.874 45.6434 168.269 45.2428 168.56 44.74L171 45.93C169.803 48.0045 167.984 49.0417 165.545 49.0417ZM168.33 41.4221C168.3 41.0562 168.165 40.6942 167.927 40.3352C167.674 39.963 167.334 39.6569 166.937 39.4428C166.515 39.2068 166.02 39.0888 165.453 39.0888C164.732 39.0888 164.114 39.298 163.601 39.7175C163.086 40.1369 162.714 40.7051 162.484 41.4231H168.33V41.4221Z" fill="#E5E8EC"/>
<defs>
<filter id="filter0_b" x="-87.9998" y="-88" width="373" height="241" filterUnits="userSpaceOnUse" color-interpolation-filters="sRGB">
<feFlood flood-opacity="0" result="BackgroundImageFix"/>
<feGaussianBlur in="BackgroundImage" stdDeviation="44"/>
<feComposite in2="SourceAlpha" operator="in" result="effect1_backgroundBlur"/>
<feBlend mode="normal" in="SourceGraphic" in2="effect1_backgroundBlur" result="shape"/>
</filter>
</defs>
</svg>
