<svg width="197" height="65" viewBox="0 0 197 65" fill="none" xmlns="http://www.w3.org/2000/svg">
<g filter="url(#filter0_b)">
<path fill-rule="evenodd" clip-rule="evenodd" d="M7.62046 0H189.381C192.03 0 192.991 0.27468 193.959 0.789333C194.916 1.29287 195.699 2.07093 196.206 3.02247C196.725 3.98633 197 4.94127 197 7.57502V57.425C197 60.0587 196.724 61.0147 196.206 61.9765C195.7 62.9283 194.917 63.7067 193.96 64.2107C192.99 64.7263 192.03 65 189.381 65H7.61947C4.97026 65 4.00872 64.7263 3.0412 64.2107C2.08385 63.7071 1.30088 62.9291 0.793965 61.9775C0.275294 61.0137 0 60.0587 0 57.425V7.57601C0 4.94126 0.276292 3.98633 0.793965 3.02247C1.30062 2.07107 2.08322 1.29303 3.04021 0.789333C4.00972 0.273688 4.97026 0 7.62046 0Z" fill="#4D3B91"/>
</g>
<path d="M24.3674 18.347C23.9661 18.8265 23.7635 19.4399 23.8009 20.0625V47.1815C23.7635 47.8041 23.9661 48.4175 24.3674 48.897L24.4542 48.9833L39.7171 33.8064V33.4504L24.4542 18.2607L24.3674 18.347Z" fill="url(#paint0_linear)"/>
<path d="M44.7681 38.8696L39.717 33.8064V33.4504L44.7681 28.3752L44.8788 28.4367L50.9283 31.8568C52.6529 32.8257 52.6529 34.4192 50.9283 35.3999L44.9037 38.8081L44.7681 38.8696Z" fill="url(#paint1_linear)"/>
<path d="M44.9158 38.7951L39.7171 33.6218L24.3674 48.8978C25.0936 49.5324 26.1698 49.5622 26.9309 48.9712L44.9287 38.7951" fill="url(#paint2_linear)"/>
<path d="M44.9158 28.4486L26.9179 18.2725C26.5491 17.9859 26.0911 17.8364 25.6232 17.85C25.1552 17.8636 24.7068 18.0393 24.3555 18.3469L39.7181 33.6219L44.9168 28.4486H44.9158Z" fill="url(#paint3_linear)"/>
<path opacity="0.2" d="M44.7681 38.6851L26.9179 48.7996C26.5624 49.0644 26.1302 49.2074 25.6861 49.2074C25.2419 49.2074 24.8097 49.0644 24.4542 48.7996L24.3674 48.8849L24.4542 48.9712C25.1823 49.5186 26.1898 49.5186 26.9179 48.9712L44.9158 38.7951L44.7681 38.686V38.6851Z" fill="black"/>
<path opacity="0.12" d="M24.3675 48.7263C23.9659 48.2466 23.7633 47.6327 23.801 47.0098V47.1932C23.7633 47.8162 23.9659 48.43 24.3675 48.9097L24.4543 48.8234L24.3675 48.7263ZM50.9294 35.2154L44.7692 38.6861L44.8799 38.7951L50.9294 35.3869C51.2727 35.2263 51.5672 34.9785 51.7835 34.6687C51.9998 34.3588 52.1301 33.9977 52.1613 33.6218C52.092 33.9633 51.9449 34.2845 51.7314 34.5608C51.5179 34.837 51.2435 35.0609 50.9294 35.2154Z" fill="black"/>
<path opacity="0.25" d="M26.9179 18.4443L50.9294 32.0295C51.2435 32.184 51.5178 32.4079 51.7314 32.6841C51.9449 32.9604 52.0919 33.2816 52.1612 33.6231C52.13 33.2472 51.9997 32.8861 51.7835 32.5762C51.5672 32.2664 51.2726 32.0186 50.9294 31.858L26.9179 18.2727C25.1933 17.3049 23.7889 18.1141 23.7889 20.0755V20.259C23.8258 18.2856 25.2053 17.4765 26.9179 18.4443Z" fill="white"/>
<path d="M78.3571 23.5461C77.4594 23.5461 76.6315 23.3319 75.8735 22.9035C75.126 22.4839 74.504 21.8744 74.0711 21.1374C73.6262 20.3888 73.4028 19.5548 73.4028 18.6356C73.4028 17.7163 73.6262 16.8824 74.0711 16.1337C74.5041 15.3971 75.1261 14.788 75.8735 14.3686C76.6296 13.9395 77.4865 13.7171 78.3571 13.724C79.0703 13.724 79.7346 13.851 80.352 14.1048C80.9408 14.3398 81.4688 14.7035 81.897 15.1688L80.8667 16.1932C80.5612 15.8535 80.1847 15.5845 79.7635 15.4049C79.3145 15.2168 78.8313 15.1229 78.3441 15.1292C77.7357 15.1292 77.1682 15.274 76.6395 15.5625C76.1109 15.8521 75.6889 16.2626 75.3718 16.7971C75.0546 17.3306 74.896 17.9434 74.896 18.6356C74.896 19.3267 75.0556 19.9395 75.3718 20.474C75.6889 21.0075 76.1119 21.4191 76.6395 21.7086C77.1682 21.9962 77.7407 22.1419 78.3571 22.1419C78.9207 22.1419 79.3915 22.0587 79.7705 21.8921C80.1495 21.7255 80.4886 21.5024 80.7879 21.2227C80.9814 21.0293 81.147 20.7894 81.2826 20.4998C81.4193 20.2113 81.509 19.8959 81.5529 19.5548H78.3441V18.2419H82.9533C82.9972 18.4868 83.0192 18.7407 83.0192 19.0035C83.0192 19.5984 82.9274 20.1696 82.7419 20.717C82.5632 21.2543 82.2602 21.7423 81.8571 22.1419C80.9674 23.078 79.8014 23.5461 78.3561 23.5461H78.3571ZM87.4967 23.5461C86.874 23.5558 86.2603 23.3971 85.7212 23.087C85.2018 22.7854 84.7764 22.3468 84.4924 21.8197C84.1971 21.2812 84.0495 20.6753 84.0495 20.001C84.0495 19.3624 84.1931 18.7694 84.4784 18.2221C84.7525 17.688 85.1655 17.2368 85.6743 16.9151C86.1957 16.5881 86.8016 16.4193 87.4179 16.4292C88.0961 16.4292 88.6836 16.5779 89.1814 16.8754C89.6791 17.1729 90.0571 17.5805 90.3174 18.0971C90.5768 18.6128 90.7065 19.1958 90.7065 19.8434C90.7065 19.9663 90.6935 20.119 90.6666 20.3035H85.5028C85.5557 20.9242 85.7781 21.4042 86.1701 21.7413C86.5611 22.0785 87.0179 22.2471 87.5366 22.2471C87.9505 22.2471 88.3096 22.1529 88.6138 21.9644C88.917 21.776 89.1614 21.5202 89.3459 21.1959L90.5748 21.7741C90.2777 22.3043 89.8505 22.7511 89.333 23.0731C88.8223 23.3894 88.2098 23.5461 87.4977 23.5461H87.4967ZM89.2272 19.1998C89.206 18.9521 89.1293 18.7122 89.0028 18.4977C88.8582 18.2531 88.6506 18.0511 88.4014 17.9127C88.133 17.756 87.8049 17.6767 87.4179 17.6767C86.9511 17.6767 86.5571 17.8155 86.2359 18.0902C85.9147 18.3658 85.6923 18.7357 85.5686 19.2008H89.2272V19.1998ZM94.5895 23.442C94.2903 23.442 94.009 23.3934 93.7447 23.2972C93.505 23.2155 93.2847 23.0859 93.0973 22.9164C92.7183 22.5396 92.5288 22.0279 92.5288 21.3794V17.9137H91.3538V16.6394H92.5298V14.7484H93.982V16.6394H95.6199V17.9137H93.982V21.065C93.982 21.424 94.0529 21.6779 94.1935 21.8266C94.3262 22.0011 94.5546 22.0894 94.8807 22.0894C95.0304 22.0894 95.162 22.0696 95.2767 22.0299C95.4073 21.9821 95.5313 21.9181 95.6458 21.8395V23.2446C95.3565 23.3755 95.0034 23.442 94.5895 23.442ZM100.93 15.6676C100.801 15.6701 100.673 15.6463 100.554 15.5977C100.435 15.5491 100.327 15.4767 100.237 15.385C100.145 15.2955 100.072 15.1882 100.023 15.0697C99.9742 14.9512 99.9503 14.8239 99.9527 14.6958C99.9527 14.4251 100.048 14.1951 100.237 14.0067C100.327 13.915 100.435 13.8426 100.554 13.794C100.673 13.7454 100.801 13.7216 100.93 13.724C101.203 13.724 101.434 13.8183 101.623 14.0067C101.813 14.1951 101.908 14.4251 101.908 14.6958C101.91 14.8239 101.886 14.9512 101.837 15.0697C101.788 15.1882 101.716 15.2955 101.623 15.385C101.533 15.4767 101.426 15.5491 101.306 15.5977C101.187 15.6463 101.059 15.6701 100.93 15.6676ZM100.203 16.6394H101.656V23.3369H100.203V16.6394ZM106.161 23.442C105.862 23.442 105.579 23.3934 105.315 23.2972C105.075 23.2155 104.855 23.0859 104.668 22.9164C104.289 22.5396 104.099 22.0279 104.099 21.3794V17.9137H102.924V16.6394H104.1V14.7484H105.553V16.6394H107.191V17.9137H105.553V21.065C105.553 21.424 105.623 21.6779 105.764 21.8266C105.897 22.0011 106.125 22.0894 106.451 22.0894C106.601 22.0894 106.733 22.0696 106.847 22.0299C106.978 21.9822 107.102 21.9182 107.217 21.8395V23.2446C106.927 23.3755 106.575 23.442 106.16 23.442H106.161ZM114.826 23.5461C114.147 23.5461 113.539 23.3914 113.002 23.08C112.473 22.7774 112.039 22.3345 111.748 21.8008C111.445 21.2446 111.29 20.6205 111.299 19.9881C111.299 19.3228 111.448 18.7189 111.748 18.1755C112.047 17.633 112.466 17.2066 113.002 16.8963C113.54 16.5849 114.147 16.4302 114.826 16.4302C115.504 16.4302 116.111 16.5869 116.648 16.9022C117.186 17.2175 117.604 17.6459 117.903 18.1893C118.202 18.7318 118.352 19.3317 118.352 19.9881C118.352 20.6525 118.202 21.2574 117.903 21.7998C117.604 22.3432 117.185 22.7696 116.648 23.08C116.111 23.3914 115.503 23.5461 114.826 23.5461ZM114.826 22.2203C115.195 22.2203 115.539 22.131 115.855 21.9516C116.172 21.7721 116.426 21.5133 116.615 21.1761C116.805 20.839 116.899 20.4423 116.899 19.9881C116.899 19.532 116.805 19.1383 116.615 18.8061C116.438 18.4854 116.175 18.2195 115.855 18.0376C115.542 17.8594 115.187 17.7667 114.826 17.7689C114.456 17.7689 114.112 17.8581 113.795 18.0376C113.478 18.2171 113.225 18.4739 113.035 18.8061C112.846 19.1383 112.752 19.533 112.752 19.9881C112.752 20.4433 112.846 20.839 113.035 21.1761C113.225 21.5133 113.478 21.7711 113.795 21.9516C114.112 22.13 114.456 22.2203 114.826 22.2203ZM119.554 16.6394H120.94V17.519H121.007C121.2 17.2037 121.489 16.9439 121.872 16.7376C122.246 16.5344 122.667 16.4287 123.093 16.4302C123.912 16.4302 124.536 16.6682 124.963 17.1442C125.39 17.6221 125.603 18.2726 125.603 19.0947V23.3369H124.151V19.292C124.151 18.7665 124.021 18.3817 123.761 18.1368C123.501 17.8909 123.142 17.7689 122.683 17.7689C122.358 17.7689 122.068 17.8581 121.813 18.0376C121.555 18.2202 121.35 18.4671 121.218 18.7536C121.078 19.0511 121.007 19.3704 121.007 19.7125V23.3369H119.554V16.6394ZM73.1824 32.2932H78.9815C80.0248 32.2932 80.9764 32.5114 81.8362 32.9457C82.669 33.3567 83.3702 33.9902 83.861 34.7752C84.3517 35.5616 84.5971 36.457 84.5971 37.4635C84.5971 38.471 84.3517 39.3704 83.861 40.1637C83.3731 40.9544 82.6715 41.5928 81.8362 42.0062C80.9764 42.4405 80.0248 42.6577 78.9815 42.6577H76.2884V48.6748H73.1824V32.2932ZM79.0743 39.7294C79.8413 39.7294 80.4438 39.5083 80.8806 39.065C81.0931 38.8559 81.2608 38.6063 81.3736 38.331C81.4864 38.0558 81.542 37.7607 81.537 37.4635C81.537 36.8388 81.3175 36.3083 80.8806 35.874C80.4438 35.4396 79.8413 35.2215 79.0743 35.2215H76.2894V39.7294H79.0743ZM85.9806 32.2922H88.9948V48.6748H85.9806V32.2932V32.2922ZM94.4987 49.0408C93.2549 49.0408 92.2345 48.6788 91.4366 47.9549C90.6386 47.23 90.2396 46.2801 90.2396 45.106C90.2396 44.3276 90.4471 43.6414 90.8611 43.0464C91.276 42.4514 91.8435 41.9943 92.5647 41.674C93.2858 41.3537 94.0838 41.193 94.9586 41.193C96.1704 41.193 97.2058 41.3686 98.0646 41.7196V41.2168C98.0646 40.5753 97.8232 40.0566 97.3404 39.66C96.8567 39.2633 96.2083 39.065 95.3954 39.065C94.8428 39.065 94.3102 39.1919 93.7955 39.4428C93.3023 39.6786 92.8666 40.0183 92.5188 40.4384L90.5858 38.9282C91.1496 38.1991 91.8841 37.6181 92.7253 37.2355C93.5851 36.8388 94.5207 36.6405 95.5331 36.6405C97.3285 36.6405 98.695 37.052 99.6296 37.8761C100.566 38.6991 101.034 39.9049 101.034 41.4905V48.6748H98.0646V47.4849H97.8811C97.528 47.943 97.0632 48.3169 96.4886 48.6064C95.9131 48.896 95.2498 49.0417 94.4977 49.0417L94.4987 49.0408ZM95.2109 46.7075C96.0857 46.7075 96.7799 46.4298 97.2936 45.8725C97.7963 45.3446 98.0728 44.643 98.0646 43.916C97.2954 43.5529 96.4544 43.3652 95.6029 43.3667C94.0369 43.3667 93.2549 43.9468 93.2549 45.106C93.2549 45.579 93.4245 45.9637 93.7616 46.2612C94.0988 46.5587 94.5825 46.7075 95.2109 46.7075ZM106.306 48.1255L101.358 37.0064H104.787L107.826 44.2591H108.009L110.932 37.0064H114.293L107.043 53.6171H103.798L106.306 48.1265V48.1255ZM124.147 49.0417C122.704 49.0417 121.431 48.6372 120.327 47.829C119.221 47.0198 118.446 45.8755 118.002 44.397L120.925 43.2526C121.154 44.1223 121.545 44.8164 122.098 45.3351C122.651 45.8537 123.341 46.1125 124.17 46.1125C124.86 46.1125 125.45 45.9409 125.941 45.5978C126.433 45.2547 126.678 44.7778 126.678 44.1679C126.685 43.8813 126.625 43.597 126.503 43.3371C126.382 43.0773 126.201 42.8488 125.976 42.6696C125.507 42.2799 124.675 41.8644 123.479 41.4221L122.466 41.0562C121.442 40.7116 120.513 40.136 119.751 39.3744C118.999 38.6198 118.624 37.6698 118.624 36.5255C118.624 35.6727 118.845 34.8942 119.29 34.1922C119.735 33.4901 120.364 32.9378 121.177 32.5332C121.991 32.1296 122.911 31.9273 123.94 31.9273C125.427 31.9273 126.601 32.2744 127.461 32.9685C128.319 33.6626 128.911 34.4748 129.233 35.4049L126.494 36.5493C126.328 36.0498 126.02 35.6086 125.608 35.279C125.186 34.9359 124.645 34.7633 123.985 34.7633C123.31 34.7633 122.754 34.921 122.316 35.2334C121.88 35.5457 121.661 35.9543 121.661 36.457C121.661 36.9459 121.868 37.3614 122.283 37.7045C122.696 38.0476 123.38 38.3788 124.33 38.6991L125.367 39.0432C126.793 39.5311 127.886 40.1756 128.646 40.9769C129.405 41.7771 129.785 42.8253 129.785 44.1223C129.785 45.1903 129.509 46.0936 128.956 46.8334C128.411 47.5678 127.675 48.1412 126.828 48.4924C125.981 48.8545 125.069 49.0414 124.147 49.0417ZM135.909 48.8583C135.36 48.8641 134.815 48.7752 134.298 48.5955C133.807 48.42 133.408 48.179 133.101 47.8746C132.38 47.1884 132.02 46.2117 132.02 44.9453V39.5688H129.971V37.0074H132.02V33.7122H135.034V37.0074H137.911V39.5697H135.034V44.398C135.034 44.9929 135.164 45.4193 135.426 45.6791C135.64 45.9231 136.008 46.0451 136.53 46.0451C136.822 46.0451 137.064 46.0074 137.255 45.931C137.447 45.8547 137.696 45.7248 138.003 45.5413V48.4706C137.336 48.7312 136.625 48.8631 135.909 48.8593V48.8583ZM144.679 49.0417C143.467 49.0417 142.385 48.771 141.434 48.2286C140.502 47.7066 139.734 46.9385 139.213 46.0094C138.684 45.0713 138.419 44.0162 138.419 42.8411C138.419 41.6809 138.684 40.6298 139.213 39.6838C139.731 38.7495 140.5 37.977 141.434 37.4526C142.386 36.9112 143.467 36.6395 144.679 36.6395C145.876 36.6395 146.95 36.9112 147.901 37.4526C148.835 37.977 149.604 38.7495 150.122 39.6838C150.651 40.6288 150.916 41.6819 150.916 42.8411C150.916 44.0152 150.652 45.0723 150.122 46.0094C149.602 46.9384 148.834 47.7064 147.902 48.2286C146.95 48.771 145.877 49.0417 144.68 49.0417H144.679ZM144.679 46.2731C145.263 46.2731 145.799 46.1353 146.29 45.8606C146.786 45.5813 147.193 45.1689 147.464 44.6707C147.755 44.153 147.902 43.5422 147.902 42.8411C147.902 42.1549 147.755 41.552 147.464 41.0334C147.193 40.5351 146.786 40.1228 146.29 39.8434C145.798 39.5688 145.243 39.4269 144.679 39.4319C144.097 39.4319 143.559 39.5688 143.068 39.8434C142.571 40.1245 142.161 40.5361 141.883 41.0334C141.584 41.552 141.434 42.1539 141.434 42.8411C141.434 43.5273 141.584 44.1332 141.883 44.6598C142.182 45.1853 142.577 45.5869 143.068 45.8606C143.559 46.1353 144.096 46.2731 144.679 46.2731ZM152.046 37.0064H154.877V38.5623H155.06C155.353 38.0129 155.805 37.5597 156.419 37.2008C157.032 36.8425 157.732 36.6567 158.444 36.6633C158.981 36.6633 159.471 36.7476 159.917 36.9152V39.9119C159.574 39.782 159.225 39.6714 158.87 39.5807C158.572 39.5104 158.267 39.4758 157.961 39.4775C157.07 39.4775 156.365 39.7978 155.843 40.4384C155.322 41.079 155.06 41.8872 155.06 42.8639V48.6748H152.046V37.0074V37.0064ZM165.741 49.0417C164.575 49.0417 163.525 48.774 162.589 48.2405C161.666 47.7196 160.905 46.9554 160.391 46.0322C159.862 45.0941 159.597 44.039 159.597 42.8639C159.597 41.7503 159.857 40.7171 160.379 39.7631C160.885 38.8271 161.632 38.0417 162.543 37.4873C163.463 36.9221 164.491 36.6405 165.626 36.6405C166.838 36.6405 167.882 36.8993 168.756 37.4179C169.615 37.919 170.307 38.6587 170.747 39.546C171.2 40.4463 171.426 41.4449 171.426 42.5436C171.426 42.8947 171.404 43.2298 171.357 43.5501H162.542C162.696 44.4803 163.068 45.1863 163.659 45.6663C164.25 46.1472 164.959 46.3872 165.788 46.3872C166.478 46.3872 167.073 46.2384 167.571 45.9409C168.07 45.6434 168.465 45.2428 168.756 44.7401L171.196 45.93C169.999 48.0045 168.181 49.0417 165.742 49.0417H165.741ZM168.526 41.4221C168.496 41.0562 168.361 40.6943 168.124 40.3353C167.871 39.9629 167.531 39.6568 167.134 39.4428C166.712 39.2068 166.217 39.0888 165.649 39.0888C164.928 39.0888 164.311 39.298 163.797 39.7175C163.283 40.137 162.911 40.7052 162.68 41.4231H168.526V41.4221Z" fill="#E5E8EC"/>
<defs>
<filter id="filter0_b" x="-88" y="-88" width="373" height="241" filterUnits="userSpaceOnUse" color-interpolation-filters="sRGB">
<feFlood flood-opacity="0" result="BackgroundImageFix"/>
<feGaussianBlur in="BackgroundImage" stdDeviation="44"/>
<feComposite in2="SourceAlpha" operator="in" result="effect1_backgroundBlur"/>
<feBlend mode="normal" in="SourceGraphic" in2="effect1_backgroundBlur" result="shape"/>
</filter>
<linearGradient id="paint0_linear" x1="33.51" y1="19.7809" x2="20.5" y2="32.8802" gradientUnits="userSpaceOnUse">
<stop stop-color="#00A0FF"/>
<stop offset="0.01" stop-color="#00A1FF"/>
<stop offset="0.26" stop-color="#00BEFF"/>
<stop offset="0.51" stop-color="#00D2FF"/>
<stop offset="0.76" stop-color="#00DFFF"/>
<stop offset="1" stop-color="#00E3FF"/>
</linearGradient>
<linearGradient id="paint1_linear" x1="53.1827" y1="33.6224" x2="23.3809" y2="33.6224" gradientUnits="userSpaceOnUse">
<stop stop-color="#FFE000"/>
<stop offset="0.41" stop-color="#FFBD00"/>
<stop offset="0.78" stop-color="#FFA500"/>
<stop offset="1" stop-color="#FF9C00"/>
</linearGradient>
<linearGradient id="paint2_linear" x1="42.0952" y1="38.4915" x2="19.8625" y2="60.868" gradientUnits="userSpaceOnUse">
<stop stop-color="#FF3A44"/>
<stop offset="1" stop-color="#C31162"/>
</linearGradient>
<linearGradient id="paint3_linear" x1="20.4994" y1="15.9632" x2="30.4227" y2="25.9554" gradientUnits="userSpaceOnUse">
<stop stop-color="#32A071"/>
<stop offset="0.07" stop-color="#2DA771"/>
<stop offset="0.48" stop-color="#15CF74"/>
<stop offset="0.8" stop-color="#06E775"/>
<stop offset="1" stop-color="#00F076"/>
</linearGradient>
</defs>
</svg>
