<svg width="161" height="52" viewBox="0 0 161 52" fill="none" xmlns="http://www.w3.org/2000/svg">
<ellipse cx="80.7085" cy="26.4774" rx="24.9909" ry="24.848" fill="#F9627D"/>
<path fill-rule="evenodd" clip-rule="evenodd" d="M6.22481 0H154.696C156.86 0 157.646 0.219744 158.436 0.631467C159.218 1.0343 159.858 1.65674 160.272 2.41798C160.695 3.18906 160.92 3.95301 160.92 6.06002V45.94C160.92 48.047 160.695 48.8117 160.272 49.5812C159.858 50.3426 159.219 50.9654 158.437 51.3685C157.645 51.781 156.86 52 154.696 52H6.22399C4.05998 52 3.27454 51.781 2.48422 51.3685C1.7022 50.9657 1.06263 50.3433 0.648553 49.582C0.224875 48.8109 0 48.047 0 45.94V6.06081C0 3.95301 0.22569 3.18906 0.648553 2.41798C1.06242 1.65686 1.70169 1.03443 2.4834 0.631467C3.27536 0.218951 4.05997 0 6.22481 0Z" fill="#051926"/>
<path d="M20.0173 15.0733C19.6876 15.4672 19.5212 15.9712 19.5519 16.4827V38.7629C19.5212 39.2744 19.6876 39.7784 20.0173 40.1723L20.0886 40.2432L32.6267 27.7743V27.4819L20.0886 15.0025L20.0173 15.0733Z" fill="url(#paint0_linear)"/>
<path d="M36.776 31.9342L32.6266 27.7744V27.4819L36.776 23.3124L36.8669 23.3629L41.8364 26.1727C43.2531 26.9687 43.2531 28.2779 41.8364 29.0836L36.8874 31.8837L36.776 31.9342Z" fill="url(#paint1_linear)"/>
<path d="M36.8973 31.8731L32.6267 27.6229L20.0173 40.1732C20.6138 40.6946 21.4979 40.719 22.1231 40.2335L36.9079 31.8731" fill="url(#paint2_linear)"/>
<path d="M36.8972 23.3727L22.1124 15.0123C21.8095 14.7768 21.4332 14.654 21.0488 14.6651C20.6644 14.6763 20.2961 14.8207 20.0074 15.0734L32.6275 27.6229L36.898 23.3727H36.8972Z" fill="url(#paint3_linear)"/>
<path opacity="0.2" d="M36.776 31.7827L22.1125 40.0925C21.8205 40.31 21.4654 40.4276 21.1005 40.4276C20.7357 40.4276 20.3806 40.31 20.0886 40.0925L20.0173 40.1626L20.0886 40.2335C20.6868 40.6832 21.5143 40.6832 22.1125 40.2335L36.8973 31.8731L36.776 31.7835V31.7827Z" fill="black"/>
<path opacity="0.12" d="M20.0173 40.0323C19.6874 39.6382 19.5209 39.1339 19.5519 38.622V38.7728C19.5209 39.2846 19.6874 39.7889 20.0173 40.183L20.0886 40.1121L20.0173 40.0323ZM41.8372 28.9321L36.7768 31.7835L36.8677 31.8731L41.8372 29.0731C42.1192 28.9411 42.3612 28.7375 42.5389 28.483C42.7165 28.2284 42.8235 27.9317 42.8492 27.6229C42.7923 27.9035 42.6715 28.1674 42.4961 28.3943C42.3206 28.6213 42.0953 28.8052 41.8372 28.9321Z" fill="black"/>
<path opacity="0.25" d="M22.1125 15.1539L41.8373 26.3151C42.0954 26.442 42.3207 26.626 42.4961 26.8529C42.6715 27.0799 42.7923 27.3437 42.8492 27.6243C42.8236 27.3155 42.7166 27.0189 42.5389 26.7643C42.3613 26.5097 42.1193 26.3061 41.8373 26.1742L22.1125 15.0129C20.6958 14.2178 19.5421 14.8826 19.5421 16.494V16.6447C19.5724 15.0235 20.7056 14.3587 22.1125 15.1539Z" fill="white"/>
<path d="M64.3685 19.3449C63.631 19.3449 62.951 19.1689 62.3282 18.817C61.7142 18.4722 61.2032 17.9715 60.8476 17.366C60.4822 16.7509 60.2986 16.0657 60.2986 15.3105C60.2986 14.5553 60.4822 13.8702 60.8476 13.2551C61.2034 12.6499 61.7143 12.1495 62.3282 11.8049C62.9493 11.4524 63.6533 11.2696 64.3685 11.2754C64.9543 11.2754 65.5 11.3797 66.0072 11.5882C66.4909 11.7813 66.9247 12.08 67.2764 12.4624L66.43 13.3039C66.1791 13.0249 65.8698 12.8038 65.5238 12.6563C65.155 12.5017 64.758 12.4246 64.3578 12.4298C63.858 12.4298 63.3918 12.5487 62.9575 12.7858C62.5232 13.0237 62.1766 13.361 61.9161 13.8001C61.6555 14.2384 61.5252 14.7419 61.5252 15.3105C61.5252 15.8784 61.6563 16.3818 61.9161 16.821C62.1766 17.2593 62.5241 17.5974 62.9575 17.8353C63.3918 18.0715 63.8621 18.1913 64.3685 18.1913C64.8314 18.1913 65.2182 18.1228 65.5295 17.986C65.8409 17.8491 66.1195 17.6658 66.3653 17.4361C66.5242 17.2772 66.6603 17.08 66.7717 16.8421C66.884 16.6051 66.9577 16.346 66.9937 16.0657H64.3578V14.9871H68.1442C68.1802 15.1883 68.1982 15.3969 68.1982 15.6128C68.1982 16.1016 68.1228 16.5709 67.9704 17.0206C67.8237 17.462 67.5747 17.863 67.2437 18.1913C66.5128 18.9603 65.5549 19.3449 64.3677 19.3449H64.3685ZM71.8764 19.3449C71.3649 19.3528 70.8607 19.2225 70.4179 18.9677C69.9912 18.7199 69.6418 18.3596 69.4084 17.9265C69.1659 17.4841 69.0446 16.9863 69.0446 16.4324C69.0446 15.9077 69.1626 15.4205 69.397 14.9708C69.6221 14.5321 69.9614 14.1613 70.3794 13.897C70.8077 13.6284 71.3054 13.4897 71.8117 13.4978C72.3688 13.4978 72.8515 13.62 73.2603 13.8645C73.6692 14.1089 73.9797 14.4437 74.1936 14.8682C74.4066 15.2918 74.5132 15.7708 74.5132 16.3028C74.5132 16.4038 74.5025 16.5293 74.4804 16.6808H70.2385C70.2819 17.1908 70.4646 17.5851 70.7866 17.8621C71.1078 18.1391 71.4831 18.2776 71.9092 18.2776C72.2492 18.2776 72.5442 18.2002 72.7941 18.0454C73.0432 17.8907 73.2439 17.6805 73.3955 17.4141L74.405 17.889C74.1609 18.3246 73.81 18.6918 73.3849 18.9563C72.9654 19.2162 72.4623 19.3449 71.8772 19.3449H71.8764ZM73.298 15.7741C73.2805 15.5706 73.2176 15.3735 73.1137 15.1973C72.9948 14.9963 72.8243 14.8304 72.6196 14.7166C72.3992 14.5879 72.1296 14.5227 71.8117 14.5227C71.4282 14.5227 71.1046 14.6368 70.8407 14.8625C70.5769 15.0889 70.3942 15.3928 70.2926 15.7749H73.298V15.7741ZM77.703 19.2593C77.4572 19.2593 77.2261 19.2194 77.009 19.1404C76.8121 19.0733 76.6311 18.9668 76.4772 18.8275C76.1658 18.518 76.0102 18.0976 76.0102 17.5648V14.7174H75.0449V13.6706H76.011V12.1169H77.204V13.6706H78.5494V14.7174H77.204V17.3065C77.204 17.6014 77.2622 17.81 77.3777 17.9322C77.4867 18.0756 77.6743 18.1481 77.9422 18.1481C78.0651 18.1481 78.1733 18.1318 78.2675 18.0992C78.3748 18.0599 78.4767 18.0074 78.5707 17.9428V19.0972C78.3331 19.2047 78.043 19.2593 77.703 19.2593ZM82.9118 12.8722C82.8059 12.8742 82.7008 12.8546 82.6028 12.8147C82.5049 12.7747 82.4162 12.7153 82.3423 12.64C82.2665 12.5665 82.2067 12.4783 82.1666 12.3809C82.1264 12.2835 82.1067 12.179 82.1088 12.0738C82.1088 11.8514 82.1866 11.6623 82.3423 11.5076C82.4162 11.4322 82.5049 11.3728 82.6028 11.3329C82.7008 11.2929 82.8059 11.2734 82.9118 11.2754C83.1354 11.2754 83.3255 11.3528 83.4812 11.5076C83.6369 11.6623 83.7147 11.8514 83.7147 12.0738C83.7168 12.179 83.6971 12.2835 83.6569 12.3809C83.6168 12.4783 83.557 12.5665 83.4812 12.64C83.4073 12.7153 83.3186 12.7747 83.2207 12.8147C83.1227 12.8546 83.0176 12.8742 82.9118 12.8722ZM82.3144 13.6706H83.5083V19.173H82.3144V13.6706ZM87.2086 19.2593C86.9627 19.2593 86.7309 19.2194 86.5137 19.1404C86.3168 19.0733 86.1359 18.9668 85.9819 18.8275C85.6706 18.518 85.5149 18.0976 85.5149 17.5648V14.7174H84.5497V13.6706H85.5157V12.1169H86.7096V13.6706H88.055V14.7174H86.7096V17.3065C86.7096 17.6014 86.7669 17.81 86.8824 17.9322C86.9914 18.0756 87.1791 18.1481 87.447 18.1481C87.5699 18.1481 87.6789 18.1318 87.7723 18.0992C87.8798 18.06 87.982 18.0075 88.0763 17.9428V19.0972C87.8378 19.2047 87.5486 19.2593 87.2077 19.2593H87.2086ZM94.3265 19.3449C93.7693 19.3449 93.2695 19.2178 92.8287 18.962C92.3938 18.7133 92.037 18.3495 91.7979 17.911C91.5492 17.454 91.4222 16.9413 91.4292 16.4218C91.4292 15.8751 91.5521 15.379 91.7979 14.9325C92.0437 14.4869 92.3878 14.1366 92.8287 13.8816C93.2703 13.6258 93.7693 13.4987 94.3265 13.4987C94.8836 13.4987 95.3826 13.6274 95.8235 13.8865C96.2651 14.1455 96.6084 14.4975 96.8542 14.9439C97.1001 15.3896 97.223 15.8824 97.223 16.4218C97.223 16.9676 97.1001 17.4646 96.8542 17.9102C96.6084 18.3567 96.2643 18.707 95.8235 18.962C95.3826 19.2178 94.8828 19.3449 94.3265 19.3449ZM94.3265 18.2556C94.6296 18.2556 94.9123 18.1823 95.1721 18.0349C95.4326 17.8874 95.6407 17.6748 95.7964 17.3978C95.9521 17.1208 96.0299 16.7949 96.0299 16.4218C96.0299 16.047 95.9521 15.7236 95.7964 15.4507C95.6506 15.1871 95.4346 14.9687 95.1721 14.8193C94.9147 14.6728 94.623 14.5967 94.3265 14.5985C94.0225 14.5985 93.7406 14.6718 93.4801 14.8193C93.2195 14.9667 93.0114 15.1777 92.8557 15.4507C92.7 15.7236 92.623 16.0478 92.623 16.4218C92.623 16.7957 92.7 17.1208 92.8557 17.3978C93.0114 17.6748 93.2195 17.8866 93.4801 18.0349C93.7406 18.1815 94.0225 18.2556 94.3265 18.2556ZM98.2103 13.6706H99.3492V14.3932H99.4041C99.5631 14.1341 99.7999 13.9207 100.115 13.7512C100.422 13.5843 100.768 13.4974 101.118 13.4987C101.791 13.4987 102.303 13.6942 102.654 14.0852C103.004 14.4779 103.18 15.0124 103.18 15.6877V19.173H101.987V15.8499C101.987 15.4181 101.88 15.102 101.666 14.9007C101.453 14.6987 101.158 14.5985 100.782 14.5985C100.514 14.5985 100.276 14.6718 100.066 14.8193C99.8543 14.9693 99.6858 15.1722 99.5778 15.4075C99.4623 15.6519 99.4041 15.9142 99.4041 16.1953V19.173H98.2103V13.6706ZM60.1176 26.5313H64.8814C65.7385 26.5313 66.5201 26.7105 67.2264 27.0673C67.9106 27.405 68.4866 27.9255 68.8898 28.5704C69.2929 29.2165 69.4945 29.9521 69.4945 30.779C69.4945 31.6068 69.2929 32.3457 68.8898 32.9974C68.489 33.6471 67.9126 34.1716 67.2264 34.5111C66.5201 34.868 65.7385 35.0464 64.8814 35.0464H62.6691V39.9899H60.1176V26.5313ZM64.9576 32.6406C65.5877 32.6406 66.0826 32.4589 66.4415 32.0948C66.616 31.923 66.7538 31.7179 66.8464 31.4918C66.9391 31.2656 66.9848 31.0232 66.9806 30.779C66.9806 30.2658 66.8004 29.8299 66.4415 29.4731C66.0826 29.1163 65.5877 28.937 64.9576 28.937H62.6699V32.6406H64.9576ZM70.631 26.5304H73.1071V39.9899H70.631V26.5313V26.5304ZM77.6284 40.2906C76.6067 40.2906 75.7684 39.9932 75.1129 39.3985C74.4574 38.8029 74.1297 38.0225 74.1297 37.0579C74.1297 36.4183 74.3001 35.8546 74.6402 35.3658C74.981 34.8769 75.4472 34.5014 76.0397 34.2382C76.6321 33.9751 77.2876 33.8431 78.0062 33.8431C79.0017 33.8431 79.8522 33.9873 80.5577 34.2757V33.8626C80.5577 33.3355 80.3594 32.9095 79.9628 32.5836C79.5654 32.2577 79.0328 32.0948 78.365 32.0948C77.9111 32.0948 77.4736 32.1991 77.0508 32.4052C76.6456 32.5989 76.2877 32.878 76.002 33.2231L74.414 31.9823C74.8772 31.3834 75.4806 30.906 76.1716 30.5917C76.8779 30.2658 77.6464 30.1029 78.4781 30.1029C79.953 30.1029 81.0755 30.441 81.8433 31.118C82.6127 31.7941 82.997 32.7848 82.997 34.0875V39.9899H80.5577V39.0123H80.4069C80.1169 39.3887 79.735 39.6958 79.2631 39.9337C78.7903 40.1716 78.2454 40.2914 77.6276 40.2914L77.6284 40.2906ZM78.2135 38.3736C78.932 38.3736 79.5023 38.1455 79.9243 37.6876C80.3373 37.2539 80.5644 36.6775 80.5577 36.0802C79.9258 35.7819 79.2349 35.6277 78.5355 35.6289C77.2491 35.6289 76.6067 36.1055 76.6067 37.0579C76.6067 37.4465 76.746 37.7626 77.0229 38.007C77.2999 38.2514 77.6973 38.3736 78.2135 38.3736ZM87.3282 39.5386L83.2633 30.4035H86.0803L88.5761 36.3621H88.7269L91.1276 30.4035H93.8889L87.9329 44.0503H85.2675L87.3282 39.5394V39.5386ZM101.984 40.2914C100.799 40.2914 99.7524 39.959 98.8453 39.295C97.9375 38.6302 97.3008 37.6901 96.9362 36.4754L99.3369 35.5352C99.5254 36.2497 99.8466 36.82 100.301 37.2461C100.754 37.6721 101.321 37.8848 102.002 37.8848C102.569 37.8848 103.054 37.7438 103.458 37.4619C103.862 37.1801 104.063 36.7882 104.063 36.2872C104.069 36.0517 104.019 35.8181 103.919 35.6046C103.819 35.3911 103.671 35.2034 103.486 35.0562C103.101 34.736 102.418 34.3946 101.435 34.0313L100.603 33.7307C99.7621 33.4476 98.9986 32.9747 98.3725 32.349C97.7547 31.729 97.4467 30.9485 97.4467 30.0084C97.4467 29.3077 97.6286 28.6682 97.994 28.0914C98.3594 27.5146 98.8765 27.0608 99.5443 26.7284C100.213 26.3968 100.968 26.2306 101.814 26.2306C103.036 26.2306 104 26.5158 104.706 27.0861C105.411 27.6563 105.897 28.3236 106.162 29.0877L103.912 30.0279C103.775 29.6175 103.523 29.2551 103.184 28.9843C102.837 28.7024 102.393 28.5606 101.851 28.5606C101.296 28.5606 100.84 28.6902 100.48 28.9468C100.121 29.2034 99.9416 29.5391 99.9416 29.9521C99.9416 30.3538 100.111 30.6951 100.452 30.977C100.792 31.2589 101.353 31.531 102.134 31.7942L102.986 32.0768C104.157 32.4777 105.055 33.0072 105.68 33.6655C106.303 34.323 106.615 35.1841 106.615 36.2497C106.615 37.1271 106.388 37.8693 105.935 38.4771C105.487 39.0804 104.882 39.5515 104.186 39.84C103.49 40.1375 102.741 40.2911 101.984 40.2914ZM111.646 40.1406C111.195 40.1454 110.747 40.0724 110.322 39.9248C109.919 39.7806 109.591 39.5826 109.339 39.3325C108.747 38.7687 108.451 37.9662 108.451 36.9259V32.5086H106.768V30.4043H108.451V27.6971H110.927V30.4043H113.291V32.5094H110.927V36.4762C110.927 36.965 111.034 37.3153 111.249 37.5287C111.425 37.7292 111.728 37.8294 112.156 37.8294C112.396 37.8294 112.594 37.7984 112.752 37.7357C112.909 37.673 113.114 37.5662 113.366 37.4155V39.8221C112.818 40.0362 112.234 40.1446 111.646 40.1415V40.1406ZM118.85 40.2914C117.855 40.2914 116.966 40.069 116.185 39.6233C115.419 39.1944 114.788 38.5634 114.36 37.8C113.926 37.0293 113.708 36.1625 113.708 35.1971C113.708 34.2439 113.926 33.3804 114.36 32.6031C114.786 31.8356 115.417 31.2009 116.185 30.7701C116.967 30.3253 117.855 30.102 118.85 30.102C119.834 30.102 120.716 30.3253 121.497 30.7701C122.265 31.2009 122.896 31.8356 123.322 32.6031C123.756 33.3795 123.974 34.2447 123.974 35.1971C123.974 36.1617 123.757 37.0302 123.322 37.8C122.894 38.5633 122.263 39.1943 121.498 39.6233C120.716 40.069 119.834 40.2914 118.851 40.2914H118.85ZM118.85 38.0168C119.33 38.0168 119.771 37.9035 120.174 37.6778C120.581 37.4484 120.915 37.1096 121.138 36.7002C121.377 36.2749 121.498 35.7731 121.498 35.1971C121.498 34.6333 121.377 34.138 121.138 33.7119C120.915 33.3026 120.581 32.9638 120.174 32.7343C119.77 32.5087 119.314 32.3921 118.85 32.3962C118.372 32.3962 117.93 32.5086 117.527 32.7343C117.119 32.9652 116.782 33.3034 116.554 33.7119C116.308 34.138 116.185 34.6325 116.185 35.1971C116.185 35.7609 116.308 36.2586 116.554 36.6912C116.799 37.123 117.124 37.453 117.527 37.6778C117.93 37.9035 118.371 38.0168 118.85 38.0168ZM124.902 30.4035H127.228V31.6817H127.378C127.618 31.2304 127.99 30.8581 128.494 30.5632C128.998 30.2688 129.573 30.1162 130.158 30.1216C130.599 30.1216 131.002 30.1908 131.368 30.3285V32.7905C131.087 32.6838 130.799 32.593 130.508 32.5184C130.263 32.4607 130.012 32.4322 129.761 32.4337C129.029 32.4337 128.45 32.6968 128.022 33.2231C127.593 33.7494 127.378 34.4134 127.378 35.2158V39.9899H124.902V30.4043V30.4035ZM136.152 40.2914C135.194 40.2914 134.332 40.0714 133.563 39.6331C132.805 39.2051 132.18 38.5773 131.757 37.8188C131.323 37.0481 131.105 36.1813 131.105 35.2158C131.105 34.301 131.319 33.452 131.747 32.6683C132.163 31.8993 132.776 31.254 133.525 30.7986C134.281 30.3342 135.126 30.1029 136.058 30.1029C137.054 30.1029 137.911 30.3155 138.629 30.7416C139.334 31.1533 139.903 31.761 140.265 32.4899C140.637 33.2296 140.822 34.05 140.822 34.9527C140.822 35.2411 140.804 35.5165 140.765 35.7796H133.525C133.651 36.5438 133.956 37.1238 134.442 37.5182C134.927 37.9133 135.51 38.1104 136.191 38.1104C136.758 38.1104 137.246 37.9882 137.656 37.7438C138.066 37.4994 138.39 37.1703 138.629 36.7572L140.633 37.7349C139.65 39.4392 138.156 40.2914 136.153 40.2914H136.152ZM138.44 34.0313C138.415 33.7307 138.305 33.4333 138.11 33.1384C137.902 32.8325 137.623 32.5809 137.296 32.4052C136.95 32.2113 136.543 32.1143 136.077 32.1143C135.485 32.1143 134.977 32.2862 134.555 32.6308C134.133 32.9755 133.828 33.4423 133.638 34.0321H138.44V34.0313Z" fill="#E5E8EC"/>
<defs>
<linearGradient id="paint0_linear" x1="27.5277" y1="16.2514" x2="16.839" y2="27.0121" gradientUnits="userSpaceOnUse">
<stop stop-color="#00A0FF"/>
<stop offset="0.01" stop-color="#00A1FF"/>
<stop offset="0.26" stop-color="#00BEFF"/>
<stop offset="0.51" stop-color="#00D2FF"/>
<stop offset="0.76" stop-color="#00DFFF"/>
<stop offset="1" stop-color="#00E3FF"/>
</linearGradient>
<linearGradient id="paint1_linear" x1="43.6884" y1="27.6233" x2="19.2069" y2="27.6233" gradientUnits="userSpaceOnUse">
<stop stop-color="#FFE000"/>
<stop offset="0.41" stop-color="#FFBD00"/>
<stop offset="0.78" stop-color="#FFA500"/>
<stop offset="1" stop-color="#FF9C00"/>
</linearGradient>
<linearGradient id="paint2_linear" x1="34.5802" y1="31.6237" x2="16.3145" y2="50.0055" gradientUnits="userSpaceOnUse">
<stop stop-color="#FF3A44"/>
<stop offset="1" stop-color="#C31162"/>
</linearGradient>
<linearGradient id="paint3_linear" x1="16.8398" y1="13.115" x2="24.9925" y2="21.3233" gradientUnits="userSpaceOnUse">
<stop stop-color="#32A071"/>
<stop offset="0.07" stop-color="#2DA771"/>
<stop offset="0.48" stop-color="#15CF74"/>
<stop offset="0.8" stop-color="#06E775"/>
<stop offset="1" stop-color="#00F076"/>
</linearGradient>
</defs>
</svg>
