<svg width="326" height="209" viewBox="0 0 326 209" fill="none" xmlns="http://www.w3.org/2000/svg">
<rect width="326" height="209" rx="24" fill="#EDF2F7"/>
<path fill-rule="evenodd" clip-rule="evenodd" d="M141.389 10.4916C141.181 10.7427 140.909 10.8847 140.784 10.8071C140.156 10.417 137.87 10.3992 137.164 10.7787C136.621 11.0705 136.053 11.1154 135.375 10.92C134.124 10.5599 126.949 10.8784 126.423 11.317C126.161 11.5355 125.991 11.5203 125.908 11.2708C125.765 10.8394 120.38 11.5038 120.38 11.9527C120.38 12.0966 120.074 12.1336 119.699 12.0352C118.889 11.8223 116.509 12.5221 115.695 13.2119C115.254 13.5861 114.941 13.6191 114.358 13.3528C113.476 12.9491 111.747 13.1855 112.044 13.669C112.168 13.8703 111.977 13.9109 111.55 13.7749C111.005 13.6013 110.896 13.6657 111.05 14.0697C111.167 14.375 111.073 14.5862 110.821 14.5862C110.568 14.5862 110.653 14.7826 111.033 15.0707C111.636 15.5292 111.613 15.5559 110.602 15.5658C110.015 15.5717 109.534 15.4463 109.534 15.2876C109.534 14.8321 107.809 14.9512 107.322 15.44C107.002 15.7615 106.656 15.7952 106.051 15.5638C104.895 15.1225 104.594 15.1658 104.814 15.7414C104.939 16.0685 104.803 16.2365 104.412 16.2365C103.859 16.2365 103.861 16.2655 104.444 16.6939C104.928 17.049 105.254 17.0688 105.904 16.783C106.364 16.5807 106.829 16.2916 106.937 16.1411C107.044 15.9902 107.363 16.2203 107.645 16.652C108.122 17.3847 108.111 17.4666 107.464 17.8719C106.965 18.1844 106.735 18.2013 106.646 17.9316C106.503 17.4996 105.59 17.417 105.59 17.8359C105.59 17.9897 105.823 18.5838 106.107 19.1561C106.554 20.0552 106.798 20.1971 107.896 20.1971C108.595 20.1971 109.267 20.0337 109.39 19.8337C109.519 19.6251 110.024 19.5528 110.577 19.6637C111.106 19.77 111.465 19.737 111.375 19.5901C111.075 19.1033 112.649 19.3624 113.057 19.867C113.277 20.1393 113.462 20.2066 113.468 20.0169C113.474 19.8033 114.636 19.6673 116.518 19.6604C122.12 19.6393 124.981 19.4023 124.981 18.9594C124.982 18.4656 125.865 18.4023 126.025 18.8848C126.19 19.3828 128.616 19.7096 128.887 19.2703C129.045 19.0132 129.749 18.997 131.282 19.2152C134.209 19.6314 138.075 19.4901 138.278 18.9594C138.499 18.3825 139.114 18.4432 139.114 19.0419C139.114 19.3142 139.332 19.537 139.599 19.537C139.936 19.537 140.049 19.2607 139.97 18.6293C139.908 18.13 139.922 17.9075 140.002 18.1343C140.083 18.3613 140.359 18.5468 140.617 18.5468C140.875 18.5468 141.086 18.7696 141.086 19.0419C141.086 19.3993 141.451 19.537 142.401 19.537C143.35 19.537 143.715 19.3993 143.715 19.0419C143.715 18.4174 144.011 18.4141 144.689 19.0303C145.012 19.3241 146.038 19.5465 147.3 19.5967C149.217 19.6726 149.441 19.6069 150.168 18.7584L150.956 17.8379L150.258 16.8533C149.874 16.3117 149.633 15.7945 149.723 15.7041C149.954 15.4724 151.603 17.0583 151.603 17.5121C151.603 17.7181 151.751 17.8867 151.932 17.8867C152.607 17.8867 152.23 18.5419 151.441 18.7409C149.869 19.1369 151.005 19.537 153.704 19.537C155.2 19.537 156.525 19.639 156.65 19.7637C156.952 20.068 158.177 20.1456 158.177 19.8608C158.177 19.5498 161.53 19.6489 162.041 19.9753C162.296 20.1383 162.529 20.042 162.651 19.7228C162.905 19.0581 163.764 19.0508 163.764 19.7136C163.764 20.1198 163.896 20.1495 164.428 19.8634C164.793 19.667 165.237 19.5964 165.414 19.7063C165.591 19.8162 165.736 19.6086 165.736 19.2449C165.736 18.6498 165.842 18.6818 166.804 19.567C167.628 20.3248 167.897 20.4337 167.978 20.0433C168.112 19.4089 168.283 19.4079 168.911 20.038C169.528 20.6572 171.98 20.5806 171.739 19.9495C171.521 19.3776 172.252 19.432 172.849 20.0321C173.139 20.3232 173.942 20.5271 174.798 20.5271C175.655 20.5271 176.253 20.6793 176.253 20.8974C176.253 21.1701 176.37 21.1707 176.694 20.9004C176.937 20.6984 177.196 20.5895 177.269 20.6585C177.562 20.9331 180.542 21.243 183.942 21.3526C186.329 21.4298 187.607 21.6047 187.775 21.8777C188.059 22.3394 189.285 22.3998 191.158 22.045C192.122 21.8622 192.363 21.9021 192.172 22.2124C191.999 22.4942 192.086 22.556 192.458 22.413C192.753 22.2992 193.078 22.3418 193.179 22.5074C193.281 22.6731 193.575 22.7276 193.832 22.6289C194.088 22.5299 194.488 22.5665 194.719 22.7101C195.349 23.1009 196.302 23.1045 196.302 22.7164C196.302 22.5124 196.46 22.5345 196.696 22.7715C196.913 22.9893 197.487 23.1675 197.971 23.1675C198.455 23.1675 199.408 23.4012 200.088 23.6867C200.768 23.9722 201.664 24.1204 202.077 24.0161C202.491 23.9118 203.243 23.9847 203.749 24.1778C204.393 24.4234 204.704 24.4244 204.785 24.1808C204.865 23.9389 205.095 23.9376 205.538 24.1755C205.888 24.364 206.32 24.4283 206.497 24.3184C206.674 24.2085 206.819 24.3504 206.819 24.6333C206.819 24.962 207.115 25.1479 207.641 25.1479C208.093 25.1479 208.462 24.9888 208.462 24.7944C208.462 24.5996 208.695 24.6739 208.979 24.9594C209.5 25.4829 210.271 25.6885 209.995 25.2304C209.913 25.0944 210.052 24.7914 210.305 24.5574C210.688 24.2016 210.763 24.2696 210.763 24.97C210.763 25.8142 211.208 26.0895 211.585 25.4779C211.696 25.2964 211.964 25.1597 212.179 25.1739C212.462 25.1927 212.456 25.2465 212.16 25.3663C211.404 25.673 211.738 26.138 212.716 26.138C213.247 26.138 213.775 26.2888 213.889 26.4733C214.002 26.6578 214.239 26.7196 214.415 26.61C214.592 26.5007 214.937 26.5786 215.182 26.7833C215.428 26.9879 216.452 27.1889 217.458 27.2298C218.463 27.2707 219.469 27.4873 219.691 27.711C219.915 27.9351 220.334 28.1183 220.623 28.1183C220.912 28.1183 221.336 28.3041 221.565 28.5309C221.899 28.8616 222.066 28.8286 222.407 28.3659C222.852 27.7605 223.44 27.547 223.088 28.1183C222.976 28.2998 223.042 28.4669 223.233 28.4896C224.298 28.616 225.895 29.4795 225.688 29.8168C225.529 30.0749 225.747 30.1372 227.197 30.2498C227.468 30.2709 227.875 30.4029 228.1 30.5429C228.326 30.6832 228.511 30.7096 228.511 30.6016C228.511 30.4937 228.844 30.5957 229.25 30.828C229.657 31.0604 230.212 31.2584 230.483 31.2677C230.754 31.2769 230.951 31.4281 230.92 31.6037C230.889 31.7793 231.221 32.0925 231.659 32.2997C232.321 32.6136 232.455 32.5905 232.455 32.1618C232.455 31.7063 232.525 31.7099 233.056 32.1928C233.387 32.4932 233.83 32.739 234.042 32.739C234.254 32.739 234.427 32.8744 234.427 33.0397C234.427 33.4929 237.14 34.7194 238.143 34.7194C238.667 34.7194 239.189 34.9864 239.433 35.3795C239.659 35.7425 240.112 36.0396 240.441 36.0396C240.77 36.0396 240.948 35.891 240.836 35.7095C240.724 35.528 240.76 35.3795 240.915 35.3795C241.395 35.3795 241.986 36.1415 241.986 36.7594C241.986 37.2723 242.345 37.4746 243.958 37.87C244.048 37.8921 244.539 38.0832 245.048 38.2951C245.556 38.5067 246.185 38.68 246.444 38.68C246.704 38.68 246.916 38.9186 246.916 39.2104C246.916 39.552 247.096 39.6714 247.422 39.546C247.709 39.4351 248.008 39.5622 248.114 39.8408C248.217 40.1101 248.45 40.3302 248.631 40.3302C248.812 40.3302 249.849 41.2194 250.935 42.3063C252.02 43.3931 253.019 44.2133 253.155 44.1295C253.291 44.0453 253.671 44.275 254 44.6404C254.329 45.0054 254.774 45.2365 254.989 45.1536C255.204 45.0711 255.565 45.3998 255.792 45.8847C256.033 46.3979 256.267 46.594 256.353 46.3537C256.628 45.5913 257.105 45.9322 257.105 46.891C257.105 47.4132 257.318 48.0181 257.578 48.2353C257.839 48.4522 258.097 49.0241 258.153 49.5057C258.216 50.0476 258.568 50.5374 259.077 50.7902C260.32 51.4088 262.035 53.2164 262.035 53.9086C262.035 54.6023 262.551 54.7373 262.803 54.1099C262.918 53.8228 262.977 53.8449 262.995 54.1825C263.009 54.4492 263.453 55.0433 263.981 55.5027C264.628 56.0661 264.976 56.7137 265.049 57.4929C265.126 58.3144 265.347 58.6996 265.814 58.8263C266.211 58.9336 266.511 59.3359 266.57 59.8396C266.624 60.2987 267.4 61.4786 268.295 62.4615C269.19 63.4441 269.923 64.4362 269.923 64.6663C269.923 64.896 270.038 65.0841 270.178 65.0841C270.319 65.0841 270.698 65.9753 271.02 67.0644C271.353 68.1916 271.792 69.0447 272.04 69.0447C272.279 69.0447 272.564 69.3791 272.674 69.7874C272.973 70.9109 272.939 70.9759 272.141 70.8066C271.49 70.6683 271.47 70.6937 271.977 71.0188C272.293 71.2218 272.552 71.5736 272.552 71.8007C272.552 72.5951 273.379 73.9628 273.949 74.1127C274.401 74.2315 274.524 74.6206 274.524 75.9293C274.524 76.8455 274.7 77.9839 274.916 78.4595C275.236 79.1638 275.221 79.3813 274.834 79.6364C274.431 79.9021 274.447 80.0163 274.944 80.3989C275.471 80.8038 275.476 80.8689 274.998 81.0534C274.541 81.2293 274.585 81.3999 275.317 82.2729C275.785 82.831 276.177 83.4617 276.19 83.6749C276.202 83.8878 276.294 84.5077 276.395 85.0523C276.713 86.7854 276.555 88.6485 276.058 89.0135C275.643 89.3175 275.642 89.4819 276.049 90.2611C276.306 90.7546 276.663 91.1582 276.841 91.1582C277.02 91.1582 277.085 91.4922 276.987 91.9008C276.888 92.3094 276.757 93.2801 276.694 94.0584C276.632 94.8366 276.487 95.5674 276.373 95.6822C276.259 95.7971 276.4 96.2513 276.687 96.6915C277.176 97.4414 277.164 97.5401 276.489 98.2613C276.094 98.6844 275.86 99.1775 275.97 99.357C276.081 99.5363 275.987 99.7448 275.762 99.8201C275.436 99.9293 275.436 100.14 275.762 100.857C276.055 101.504 276.073 101.94 275.826 102.404C275.563 102.897 275.593 103.093 275.952 103.231C276.229 103.338 276.355 103.676 276.257 104.052C276.05 104.848 275.511 104.892 275.508 104.113C275.507 103.73 275.337 103.861 275.005 104.5C274.636 105.211 274.604 105.526 274.885 105.701C275.094 105.83 275.171 106.09 275.056 106.277C274.941 106.464 275.069 106.841 275.342 107.115C275.85 107.625 275.699 108.606 275.041 109.059C274.793 109.229 274.797 109.302 275.053 109.306C275.265 109.309 275.353 109.658 275.262 110.136C275.163 110.651 274.883 110.961 274.514 110.961C274.075 110.961 273.948 111.179 274.017 111.813C274.071 112.303 273.919 112.739 273.66 112.839C273.405 112.937 273.209 113.482 273.209 114.091C273.209 115.622 272.846 117.25 272.546 117.064C272.407 116.977 272.207 117.128 272.104 117.399C272 117.671 272.064 117.892 272.245 117.892C272.456 117.892 272.445 118.136 272.215 118.568C271.966 119.036 271.658 119.182 271.217 119.041C270.492 118.81 270.382 119.2 270.991 119.848C271.319 120.198 271.319 120.316 270.991 120.436C270.765 120.52 270.58 120.765 270.58 120.982C270.58 121.199 270.273 121.64 269.897 121.964C269.33 122.451 269.251 122.776 269.436 123.868C269.619 124.96 269.54 125.288 268.974 125.781C268.598 126.108 268.387 126.472 268.504 126.59C268.622 126.707 268.49 126.804 268.211 126.804C267.91 126.804 267.624 127.208 267.506 127.798C267.387 128.394 267.003 128.931 266.544 129.141C265.7 129.527 264.83 130.711 265.152 131.034C265.265 131.148 265.495 131.022 265.663 130.755C265.87 130.426 265.97 130.402 265.974 130.682C265.976 130.909 265.683 131.392 265.321 131.755C264.96 132.118 264.664 132.563 264.664 132.745C264.664 132.926 264.495 133.075 264.289 133.075C263.645 133.075 263.032 134.176 263.417 134.642C263.659 134.935 263.641 135.055 263.354 135.055C263.13 135.055 263.034 135.276 263.14 135.55C263.243 135.822 263.185 136.045 263.01 136.045C262.835 136.045 262.692 136.251 262.692 136.502C262.692 136.753 262.396 137.036 262.035 137.131C261.641 137.234 261.377 137.581 261.377 137.995C261.377 138.375 261.221 138.686 261.029 138.686C260.838 138.686 260.766 138.824 260.87 138.993C260.974 139.162 260.893 139.404 260.689 139.53C260.485 139.657 260.212 139.588 260.082 139.377C259.942 139.15 259.669 139.534 259.409 140.325C259.141 141.139 258.768 141.656 258.448 141.656C258.16 141.656 257.505 142.102 256.994 142.646C256.482 143.191 255.928 143.636 255.762 143.636C255.597 143.636 255.461 143.915 255.461 144.256C255.461 144.597 255.24 145.061 254.968 145.287C254.697 145.513 254.475 145.902 254.475 146.152C254.475 146.402 254.27 146.607 254.018 146.607C253.766 146.607 253.467 146.98 253.354 147.435C253.152 148.242 250.806 150.237 250.059 150.237C249.58 150.237 244.791 154.912 244.506 155.658C244.388 155.967 244.154 156.135 243.986 156.031C243.817 155.926 243.353 156.302 242.953 156.865C242.4 157.646 242.159 157.784 241.944 157.446C241.728 157.108 241.461 157.257 240.814 158.076C240.348 158.666 239.766 159.149 239.521 159.149C239.276 159.149 238.785 159.52 238.43 159.974C238.074 160.428 237.638 160.799 237.46 160.799C237.282 160.799 236.954 161.02 236.732 161.289C236.509 161.559 235.677 162.105 234.884 162.503C234.09 162.901 233.441 163.349 233.441 163.498C233.441 163.647 233.226 163.77 232.964 163.77C232.702 163.77 232.369 163.955 232.225 164.182C232.08 164.409 231.104 165.175 230.057 165.883C229.008 166.592 228.008 167.44 227.834 167.767C227.66 168.094 227.023 168.455 226.42 168.569C225.816 168.682 224.898 169.171 224.379 169.655C223.859 170.14 223.203 170.551 222.92 170.57C222.637 170.589 221.786 170.997 221.028 171.477C220.27 171.958 219.511 172.351 219.341 172.351C218.896 172.351 217.012 173.465 217.01 173.73C217.005 174.285 215.888 174.991 215.017 174.991C214.49 174.991 213.338 175.437 212.457 175.982C211.576 176.526 210.591 176.972 210.27 176.972C209.949 176.972 208.954 177.424 208.061 177.975C207.167 178.528 205.968 179.07 205.395 179.181C204.822 179.293 204.001 179.732 203.57 180.158C202.795 180.923 202.374 181.055 201.044 180.953C200.669 180.924 199.634 181.259 198.743 181.697C197.852 182.135 196.31 182.767 195.316 183.101C194.322 183.435 193.275 183.9 192.989 184.135C192.704 184.37 192.106 184.563 191.661 184.563C190.484 184.563 187.145 185.479 185.598 186.227C184.864 186.582 183.718 186.873 183.051 186.873C182.194 186.873 181.841 187.018 181.841 187.368C181.841 187.748 181.423 187.863 180.052 187.863C179.069 187.863 178.173 188.012 178.061 188.193C177.949 188.375 177.581 188.523 177.243 188.523C176.905 188.523 176.392 188.761 176.103 189.052C175.774 189.382 175.29 189.508 174.813 189.388C174.394 189.282 173.946 189.3 173.819 189.428C173.693 189.555 173.073 189.614 172.443 189.56C171.339 189.464 171.306 189.495 171.514 190.395C171.703 191.213 171.674 191.263 171.28 190.798C170.78 190.206 169.68 189.73 169.68 190.105C169.68 190.237 169.373 190.538 168.997 190.773C168.47 191.104 168.207 191.113 167.847 190.813C167.301 190.358 165.516 190.95 164.843 191.809C164.544 192.189 164.439 192.208 164.432 191.881C164.419 191.358 162.097 191.44 161.71 191.977C161.547 192.203 161.365 192.166 161.174 191.869C160.973 191.556 160.847 191.535 160.759 191.801C160.688 192.013 159.808 192.224 158.767 192.276C157.741 192.328 156.708 192.531 156.471 192.728C156.234 192.925 154.048 193.182 151.613 193.3C149.178 193.418 147.021 193.651 146.821 193.819C146.62 193.986 144.945 194.182 143.099 194.253C141.253 194.325 139.651 194.475 139.54 194.586C139.43 194.698 139.159 194.638 138.938 194.455C138.696 194.253 138.226 194.231 137.757 194.398C137.328 194.551 136.164 194.647 135.17 194.612C134.176 194.578 133.193 194.684 132.985 194.849C132.777 195.015 132.186 195.062 131.671 194.956C129.64 194.537 129.071 194.446 128.597 194.463C128.326 194.473 127.069 194.498 125.803 194.521C124.535 194.543 123.394 194.724 123.261 194.925C123.092 195.181 123.018 195.169 123.014 194.887C123.012 194.666 122.788 194.571 122.517 194.675C122.245 194.78 122.024 195.067 122.024 195.313C122.024 195.56 121.731 195.919 121.373 196.111C120.779 196.431 120.739 196.377 120.914 195.496C121.065 194.742 120.973 194.49 120.497 194.342C119.665 194.083 118.211 194.274 117.687 194.711C117.371 194.974 117.086 194.945 116.619 194.602C116.24 194.324 115.175 194.13 113.991 194.124C112.76 194.118 111.755 193.928 111.359 193.627C111.007 193.36 110.46 193.224 110.143 193.325C109.827 193.426 109.123 193.278 108.581 192.996C108.039 192.714 107.202 192.484 106.722 192.484C106.032 192.484 105.891 192.605 106.052 193.062C106.204 193.492 106.109 193.458 105.677 192.929C105.238 192.391 104.719 192.214 103.536 192.199C102.537 192.185 101.963 192.322 101.942 192.579C101.924 192.799 101.807 192.608 101.681 192.154C101.555 191.7 101.311 191.316 101.139 191.301C100.966 191.285 100.573 191.16 100.265 191.024C99.9577 190.887 99.5508 190.871 99.3615 190.989C99.1722 191.107 99.0171 191.045 99.0171 190.853C99.0171 190.264 97.7602 190.466 97.6002 191.081C97.4723 191.574 97.4444 191.579 97.4119 191.119C97.3852 190.741 96.9294 190.512 95.8947 190.356C94.9475 190.213 94.4158 189.966 94.4158 189.669C94.4158 189.388 94.2172 189.281 93.9142 189.397C93.5277 189.547 93.4994 189.695 93.7903 190.047C93.9993 190.301 94.026 190.504 93.8495 190.504C93.4229 190.504 92.4438 189.394 92.4438 188.91C92.4438 188.344 90.9063 188.439 89.9571 189.063C89.0316 189.672 88.5251 189.453 89.1394 188.71C89.4759 188.303 89.4 188.185 88.6888 188.005C88.2188 187.887 87.6906 187.546 87.5158 187.249C87.2354 186.774 87.1569 186.768 86.863 187.203C86.6188 187.565 86.584 187.409 86.7336 186.626C86.8933 185.79 86.8266 185.553 86.4318 185.553C86.1531 185.553 85.8751 185.402 85.8139 185.217C85.7525 185.033 85.2595 184.814 84.7182 184.731C82.7994 184.437 82.6072 184.355 81.7937 183.473C81.3418 182.983 80.741 182.583 80.4587 182.583C79.7156 182.583 78.632 181.893 77.7147 180.836C77.2749 180.329 76.7484 179.971 76.5449 180.04C76.3415 180.109 75.9948 179.929 75.7746 179.641C75.4088 179.163 75.3733 179.163 75.3637 179.641C75.344 180.621 73.5705 180.154 72.2424 178.821C71.5673 178.143 71.0967 177.506 71.1963 177.405C71.2962 177.305 71.1693 177.014 70.9146 176.758C70.6596 176.502 70.4946 176.111 70.5478 175.889C70.6007 175.668 70.582 175.598 70.5064 175.734C70.1919 176.299 69.7659 175.919 69.7656 175.074C69.7656 174.319 69.6151 174.157 68.8719 174.114C68.3806 174.085 67.9247 173.9 67.8587 173.702C67.7929 173.503 67.5879 173.341 67.4028 173.341C67.2178 173.341 67.1514 173.564 67.2556 173.836C67.3594 174.108 67.3187 174.331 67.1645 174.331C66.5703 174.331 66.5828 173.105 67.181 172.73C68.1364 172.13 67.9757 171.249 66.9466 171.447C66.3393 171.563 65.8683 171.377 65.2833 170.79C64.8346 170.339 64.548 169.89 64.6466 169.791C64.7452 169.692 64.5691 169.422 64.2555 169.192C63.9423 168.962 63.679 168.576 63.6708 168.335C63.6626 168.093 63.4865 167.929 63.2797 167.971C63.0733 168.013 62.8124 167.757 62.7003 167.402C62.5882 167.047 62.1448 166.479 61.7149 166.14C61.1796 165.717 60.9008 165.116 60.8305 164.233C60.7552 163.289 60.42 162.628 59.5773 161.76C58.5144 160.665 58.426 160.418 58.4138 158.502C58.402 156.677 58.2962 156.338 57.5301 155.676C56.6903 154.951 56.6838 154.918 57.3394 154.746C57.8564 154.61 57.9547 154.424 57.7499 153.97C57.602 153.642 57.4216 152.519 57.3496 151.475C57.255 150.107 57.0867 149.577 56.7462 149.577C56.4869 149.577 56.1112 149.169 55.9117 148.67C55.4509 147.517 55.3172 145.287 55.7089 145.287C55.8723 145.287 55.9107 144.953 55.7937 144.544C55.6767 144.135 55.5127 143.554 55.4292 143.251C55.3438 142.941 55.7142 142.201 56.2772 141.557C57.373 140.304 57.486 140.006 56.8658 140.006C56.5727 140.006 56.4596 139.304 56.4708 137.552C56.4803 136.094 56.361 135.177 56.1766 135.291C55.9922 135.405 55.9535 135.096 56.081 134.527C56.1986 134 56.3873 133.087 56.5004 132.497C56.6131 131.907 56.8399 131.425 57.0042 131.425C57.3062 131.425 57.3526 130.787 57.3483 126.699C57.3463 124.978 57.4469 124.488 57.7769 124.616C58.3757 124.846 58.6344 123.99 58.2627 123.008C57.9445 122.168 58.1249 121.193 58.5992 121.193C58.7455 121.193 58.9282 121.378 59.0051 121.605C59.0817 121.833 59.2164 121.536 59.3042 120.945C59.3916 120.355 59.3781 119.873 59.274 119.872C59.1698 119.872 59.0659 119.464 59.0439 118.965C59.0215 118.466 59.0738 118.252 59.1599 118.49C59.2812 118.825 59.4583 118.794 59.9402 118.356C60.7526 117.618 60.7359 116.902 59.906 116.902C59.5274 116.902 59.2487 117.122 59.2487 117.421C59.2487 117.882 59.1938 117.884 58.7557 117.445C58.1315 116.818 58.1315 116.572 58.7557 116.572C59.0268 116.572 59.2487 116.407 59.2487 116.204C59.2487 116.001 59.5188 115.906 59.8488 115.993C60.6451 116.202 61.9868 114.246 61.9496 112.931C61.9322 112.31 62.086 111.951 62.3706 111.951C62.8255 111.951 63.2935 110.97 63.122 110.376C63.0704 110.198 63.4569 109.566 63.9804 108.97C64.8402 107.993 64.88 107.849 64.3913 107.491C63.6294 106.931 63.7096 106.754 64.8359 106.506C65.8262 106.287 66.2144 105.303 65.488 104.852C65.3043 104.738 65.2491 104.49 65.3658 104.301C65.4821 104.111 65.4167 103.857 65.2198 103.735C64.9921 103.593 65.0959 103.366 65.5064 103.108C66.0392 102.774 66.1506 102.791 66.1506 103.202C66.1506 104.061 66.8484 103.745 67.2372 102.71C67.4705 102.089 67.8419 101.72 68.233 101.72C68.6961 101.72 68.8121 101.549 68.6836 101.055C68.5673 100.609 68.7267 100.275 69.1691 100.037C69.5842 99.8142 69.7692 99.4584 69.6696 99.0758C69.575 98.7124 69.6617 98.5223 69.8852 98.6025C70.4479 98.8039 71.448 96.3328 71.5147 94.5759C71.5552 93.5158 71.729 92.9847 72.0666 92.8926C72.4928 92.7765 72.4948 92.8035 72.0817 93.092C71.6669 93.3818 71.6656 93.5412 72.0715 94.3033L72.5392 95.1809L73.2974 94.2422C73.7145 93.726 73.9886 93.0319 73.9068 92.6999C73.8065 92.2933 73.9022 92.152 74.2009 92.2669C74.7912 92.4946 76.3392 91.0232 76.3392 90.2344C76.3392 89.5208 77.3814 88.1878 77.9388 88.1878C78.1436 88.1878 78.3112 88.0392 78.3112 87.8577C78.3112 87.6762 78.5163 87.5276 78.7667 87.5276C79.4079 87.5276 80.3657 85.3559 80.1169 84.4661C79.9736 83.9542 80.0048 83.8674 80.2197 84.1786C80.5865 84.7097 81.7296 84.2281 82.0419 83.4112C82.1477 83.134 82.4698 82.9069 82.7574 82.9069C83.0446 82.9069 83.1896 82.76 83.0791 82.5805C82.9641 82.3937 83.0959 82.3382 83.3884 82.4508C83.8038 82.6112 83.8985 82.3656 83.8985 81.127C83.8985 79.4879 83.4124 79.1516 82.4455 80.1226C82.1628 80.4064 81.7825 80.5461 81.6005 80.4332C80.9622 80.0371 81.2797 79.678 82.4642 79.4546C83.1215 79.3308 84.0839 78.9143 84.6028 78.5291C85.3338 77.9865 85.6348 77.9175 85.9385 78.2225C86.1541 78.439 86.4857 78.6139 86.6757 78.6113C86.8653 78.6083 86.8308 78.4852 86.5988 78.3374C86.159 78.0568 86.3855 76.966 86.8834 76.966C87.0405 76.966 87.0234 76.5821 86.846 76.1131C86.5101 75.2263 86.6586 74.6556 87.2252 74.6556C87.4067 74.6556 87.5089 74.9461 87.4523 75.3009C87.3958 75.6557 87.4606 75.9527 87.596 75.961C88.3552 76.0072 88.4998 75.9303 88.4998 75.4808C88.4998 75.2085 88.3272 74.9857 88.1162 74.9857C87.9056 74.9857 87.8434 74.8745 87.9789 74.7388C88.1143 74.6028 88.4206 74.7603 88.6595 75.0883C88.9655 75.5088 89.164 75.5715 89.331 75.3002C89.5075 75.0134 89.635 75.024 89.8306 75.3418C90.0133 75.6388 90.2256 75.6672 90.529 75.4355C90.7686 75.2524 91.3168 75.084 91.747 75.0613C92.1772 75.0388 92.874 74.6949 93.2957 74.2969C93.7173 73.8991 94.4006 73.4051 94.8144 73.1988C95.2279 72.9925 95.6134 72.4935 95.6713 72.0895C95.7288 71.6855 95.9224 71.3551 96.1015 71.3551C96.2803 71.3551 96.3437 71.2204 96.2425 71.0558C96.1409 70.8914 96.3542 70.8343 96.7161 70.9293C97.0776 71.0244 97.3737 70.966 97.3737 70.7996C97.3737 70.2722 96.654 69.7497 96.1797 69.9323C95.8655 70.0534 95.7863 69.9422 95.9263 69.5765C96.038 69.284 96.2773 69.0447 96.4581 69.0447C96.6388 69.0447 96.7016 68.822 96.5974 68.5497C96.4702 68.216 96.6132 68.0546 97.0359 68.0546C97.3813 68.0546 97.7487 67.916 97.8529 67.7467C98.0938 67.3555 100.103 67.3912 100.363 67.7915C100.47 67.9572 100.951 67.9939 101.431 67.8731C102.15 67.6919 102.304 67.4651 102.304 66.5885C102.304 65.229 102.638 64.8924 103.096 65.7918C103.442 66.4723 104.236 66.577 103.989 65.9093C103.766 65.3076 103.608 64.2517 103.8 64.6531C103.904 64.8696 104.206 64.9637 104.471 64.8617C104.883 64.7029 104.876 64.6201 104.424 64.288C104.072 64.0299 103.932 63.5263 104.003 62.7847C104.121 61.572 104.933 60.9525 104.933 62.0757C104.933 62.5586 105.083 62.6952 105.455 62.552C105.895 62.3823 105.848 62.2222 105.152 61.5229C104.386 60.7542 104.288 60.7337 103.786 61.2384C103.451 61.5747 103.325 62.0338 103.454 62.4444C103.591 62.8781 103.492 63.1731 103.169 63.2979C102.897 63.4025 102.751 63.6906 102.846 63.9379C103.171 64.7894 101.606 64.3059 100.757 63.2923C100.001 62.3902 99.8949 62.3543 99.5196 62.8698C99.2938 63.1801 98.9405 63.4339 98.7344 63.4339C98.5283 63.4339 98.3597 63.6474 98.3597 63.9081C98.3597 64.2705 98.6503 64.3369 99.5922 64.189L100.825 63.9956L100.003 64.694C99.327 65.2686 99.2833 65.394 99.7565 65.4033C100.144 65.4105 100.332 65.6766 100.332 66.2172C100.332 66.8958 100.179 67.0159 99.3457 66.9922C98.3584 66.9641 98.0127 66.5756 98.7538 66.3274C99.0006 66.2449 98.9388 66.1149 98.5895 65.9802C98.2204 65.838 98.0311 65.9291 98.0311 66.2495C98.0311 66.8849 97.1696 66.8766 96.9261 66.2393C96.8222 65.967 96.5757 65.7442 96.3785 65.7442C96.1817 65.7442 96.1271 65.9178 96.2579 66.1304C96.4176 66.3901 96.3164 66.4476 95.9486 66.3056C95.5687 66.1594 95.4017 66.269 95.4017 66.6654C95.4017 67.3126 94.2228 68.178 93.7449 67.8813C93.5619 67.7674 93.4298 68.2992 93.4298 69.15C93.4298 69.9554 93.2138 71.1336 92.9499 71.768C92.6857 72.4024 92.5526 73.0047 92.6538 73.106C92.7547 73.2077 92.522 73.208 92.1368 73.1067C91.4989 72.939 91.4778 72.8585 91.9038 72.206C92.402 71.4422 92.7757 68.0539 92.3616 68.0543C91.9984 68.0546 90.8004 69.3213 90.8004 69.7048C90.8004 69.8864 90.3567 70.0349 89.8144 70.0349C89.1742 70.0349 88.8285 70.2019 88.8285 70.5112C88.8285 70.7732 88.3848 71.2508 87.8425 71.5726C87.2045 71.9509 86.8565 72.4238 86.8565 72.9116C86.8565 73.3618 86.658 73.6655 86.3635 73.6655C85.766 73.6655 85.7111 73.1338 86.2813 72.871C86.5074 72.7667 86.323 72.776 85.8718 72.8915C84.6863 73.1948 83.6724 74.6487 84.638 74.6606C84.9266 74.6642 84.94 74.7378 84.6824 74.9081C84.4806 75.0415 84.2048 75.5075 84.0691 75.9432C83.8679 76.5904 83.9202 76.6983 84.3537 76.5313C84.6455 76.4188 84.8845 76.4815 84.8845 76.6706C84.8845 76.8597 84.6258 76.9607 84.3093 76.895C83.9928 76.8293 83.7545 76.5214 83.7798 76.2108C83.8127 75.8026 83.5731 75.6458 82.9161 75.6458C81.6222 75.6458 81.0638 76.4158 81.5617 77.5135C82.077 78.6486 81.9002 78.7519 80.4685 78.1512C79.1904 77.6149 79.288 77.5607 78.8348 79.0588C78.7608 79.3021 78.8413 79.7107 79.0135 79.9665C79.2692 80.347 79.4201 80.2969 79.8447 79.6889C80.5241 78.7159 80.9405 78.7473 80.9405 79.7714C80.9405 80.5817 80.6924 80.7312 79.5437 80.6137C78.7431 80.5322 78.8256 81.1963 79.708 81.9352C80.6352 82.7122 80.8544 82.7228 81.0427 81.9993C81.1765 81.4851 81.1972 81.4824 81.231 81.9758C81.284 82.7435 80.3844 83.567 79.4927 83.567C78.4989 83.567 78.2757 83.2852 78.7125 82.5825C79.0109 82.1029 78.8857 81.8131 78.0088 80.9524C77.1645 80.1236 76.987 80.0464 77.1559 80.581C77.3535 81.2065 77.0774 81.426 76.257 81.2956C76.1213 81.2742 76.0421 81.3679 76.0802 81.5042C76.1187 81.6402 75.9606 82.0957 75.7289 82.5158C75.39 83.1294 75.2152 83.2026 74.8372 82.8878C74.4625 82.5755 74.3672 82.6046 74.3672 83.0317C74.3672 83.3261 74.2193 83.567 74.0386 83.567C73.8578 83.567 73.7076 84.0496 73.705 84.6397C73.701 85.4668 73.6244 85.5992 73.3701 85.2173C73.0828 84.7856 72.9973 84.7961 72.7015 85.2998C72.5152 85.6173 72.1514 85.8774 71.8934 85.8774C71.6354 85.8774 71.1782 86.2546 70.8771 86.716C70.439 87.3877 70.4032 87.7164 70.6983 88.3663C70.9366 88.8914 70.9488 89.1779 70.7332 89.1779C70.5149 89.1779 70.5087 89.3816 70.7151 89.7687C70.9941 90.2922 70.9014 90.3446 69.9049 90.2278C68.7553 90.0928 68.3145 89.5119 69.3551 89.503C69.8458 89.4987 69.8576 89.4515 69.4373 89.1835C69.1457 88.9974 68.9019 88.9921 68.8407 89.17C68.7839 89.3353 68.5252 89.3891 68.2656 89.2891C68.0062 89.1891 67.7939 89.2716 67.7939 89.4726C67.7939 89.6736 67.4886 90.1446 67.1152 90.5196C66.6032 91.0338 66.4885 91.4391 66.6482 92.1698C66.7774 92.7606 66.7258 93.1385 66.5158 93.1385C66.3261 93.1385 66.2564 92.9157 66.3603 92.6434C66.4645 92.3712 66.3859 92.1484 66.1858 92.1484C65.9856 92.1484 65.8219 92.5197 65.8219 92.9735C65.8219 93.4871 65.6356 93.7986 65.3289 93.7986C65.0578 93.7986 64.8359 93.9858 64.8359 94.2145C64.8359 94.4432 64.4307 95.0693 63.9354 95.6057C63.4404 96.142 63.0799 96.846 63.1344 97.1701C63.2008 97.5632 63.027 97.7593 62.6115 97.7593C61.9812 97.7593 61.1072 99.0158 61.0409 100.018C60.9452 101.457 60.8657 101.72 60.5249 101.72C60.3083 101.72 60.2343 101.416 60.3444 100.977C60.5193 100.28 60.5032 100.272 60.0766 100.844C59.8268 101.18 59.6996 101.656 59.7942 101.903C59.902 102.186 59.6503 102.432 59.1142 102.567C58.2505 102.785 58.1075 103.143 58.2341 104.773C58.2834 105.406 58.1496 105.68 57.7907 105.68C57.508 105.68 57.2767 105.903 57.2767 106.176C57.2767 106.448 57.1189 106.671 56.926 106.671C56.7222 106.671 56.6644 106.954 56.7879 107.345C56.9427 107.834 56.7685 108.203 56.153 108.689C55.3099 109.355 55.0049 110.301 55.6333 110.301C56.2548 110.301 55.961 110.856 55.1403 111.231C54.6884 111.438 54.3187 111.884 54.3187 112.223C54.3187 112.562 54.0235 113.108 53.6627 113.436C53.1618 113.891 53.0934 114.137 53.3741 114.477C53.6597 114.823 53.6081 114.922 53.1427 114.922C52.6872 114.922 52.6356 115.014 52.9265 115.306C53.2173 115.598 53.1532 115.826 52.6586 116.257C51.971 116.856 52.0884 117.892 52.844 117.892C53.4796 117.892 52.6708 119.467 51.9359 119.66C51.1461 119.867 51.1461 121.51 51.9359 121.557C52.252 121.575 52.0509 121.739 51.4882 121.921C50.5522 122.224 50.472 122.363 50.539 123.556C50.5962 124.575 50.5085 124.819 50.1371 124.676C49.7368 124.522 49.6931 124.933 49.86 127.299C49.9708 128.872 49.9287 130.104 49.7644 130.104C49.2753 130.104 49.0019 132.175 49.4538 132.455C49.7539 132.641 49.7016 132.875 49.248 133.378C48.7416 133.941 48.7117 134.139 49.0679 134.57C49.3736 134.939 49.5616 134.978 49.7295 134.706C49.8991 134.43 50.026 134.426 50.1887 134.69C50.4099 135.049 49.9921 135.195 49.0975 135.069C48.8119 135.029 48.7146 135.195 48.8369 135.515C48.9437 135.795 48.8993 136.106 48.738 136.206C48.5766 136.306 48.457 136.645 48.4724 136.96C48.4875 137.273 48.407 138.076 48.2929 138.742C48.1598 139.52 48.2532 140.278 48.5539 140.859C48.827 141.387 48.9414 142.169 48.829 142.734C48.7008 143.378 48.7899 143.803 49.0946 144C49.4817 144.25 49.483 144.342 49.1028 144.588C48.7324 144.828 48.7481 144.933 49.1928 145.183C49.5383 145.377 49.8081 146.124 49.9415 147.254C50.0901 148.513 50.0447 148.955 49.7838 148.794C49.5823 148.668 49.5008 148.348 49.6027 148.082C49.8268 147.494 48.7212 147.409 48.1625 147.97C47.8857 148.248 47.9544 148.65 48.431 149.538C48.8267 150.276 49.0009 151.059 48.8868 151.588C48.7672 152.142 48.8809 152.592 49.2099 152.866C49.489 153.098 49.7174 153.652 49.7174 154.095C49.7174 154.539 50.1045 155.412 50.5782 156.036C51.0514 156.659 51.2733 157.169 51.0711 157.169C50.8687 157.169 50.7034 157.407 50.7034 157.699C50.7034 158.026 50.8855 158.159 51.1796 158.046C51.5142 157.917 51.5954 158.021 51.4524 158.395C51.317 158.749 51.3775 158.848 51.6335 158.688C52.1064 158.395 52.1078 158.462 51.6575 159.759C51.3456 160.657 51.408 160.988 52.1202 162.207C52.5728 162.983 53.7701 164.549 54.7811 165.687C56.7423 167.894 56.9003 168.148 56.1263 167.85C55.8365 167.738 55.6353 167.844 55.6383 168.107C55.6455 168.744 56.03 169.228 56.739 169.491C57.1869 169.657 57.3082 169.947 57.1906 170.566C57.0883 171.102 57.1952 171.477 57.4818 171.587C57.7305 171.683 57.934 171.993 57.934 172.276C57.934 172.559 58.0204 172.704 58.1256 172.598C58.3083 172.415 59.5773 173.494 59.5773 173.833C59.5773 174.276 60.7819 175.321 61.2936 175.321C61.615 175.321 61.878 175.544 61.878 175.817C61.878 176.507 62.7828 176.438 62.9662 175.734C63.0855 175.275 63.1243 175.301 63.1545 175.859C63.1755 176.245 62.9672 176.749 62.6917 176.978C62.1067 177.466 62.2704 177.716 63.2754 177.87C64.1287 178 64.666 178.797 64.6693 179.935C64.671 180.485 64.8843 180.795 65.3207 180.881C65.6777 180.952 66.1539 181.252 66.3784 181.549C66.6032 181.845 66.7918 181.918 66.7974 181.71C66.8033 181.503 67.013 181.254 67.2638 181.157C67.5836 181.034 67.67 181.171 67.554 181.617C67.4271 182.104 67.5599 182.253 68.1226 182.253C68.726 182.253 68.8289 182.398 68.7014 183.068C68.6159 183.516 68.6741 183.803 68.8302 183.706C69.4386 183.329 70.4232 183.958 70.4232 184.723C70.4232 185.257 70.7894 185.726 71.5936 186.226C72.361 186.702 72.6992 187.121 72.576 187.445C72.4449 187.787 72.5408 187.878 72.8918 187.743C73.1745 187.634 73.6928 187.846 74.0714 188.226C74.45 188.607 74.9683 188.819 75.251 188.71C75.6168 188.569 75.6983 188.665 75.5481 189.057C75.3752 189.51 75.5067 189.565 76.3497 189.396C76.9042 189.285 77.2864 189.31 77.199 189.452C77.1116 189.594 77.1757 189.926 77.342 190.19C77.5924 190.587 77.6447 190.57 77.6489 190.091C77.6568 189.188 78.6113 189.414 79.0421 190.421C79.567 191.649 79.6235 191.702 79.9111 191.235C80.2513 190.682 81.5978 192.164 81.5978 193.091C81.5978 193.402 83.0551 194.134 83.6734 194.134C83.8942 194.134 84.308 193.749 84.5926 193.278L85.1103 192.421L85.0794 193.855C85.0508 195.196 85.1099 195.297 85.9875 195.397C86.5893 195.466 86.8486 195.379 86.7099 195.154C86.5774 194.938 86.6912 194.878 87.0037 194.998C87.2844 195.107 87.5138 195.392 87.5138 195.633C87.5138 195.873 87.8096 196.165 88.1711 196.28C88.5327 196.395 88.8285 196.628 88.8285 196.797C88.8285 196.966 89.2975 197.105 89.8707 197.105C90.4438 197.105 91.1925 197.359 91.534 197.669C92.0398 198.129 92.2058 198.151 92.4286 197.79C92.7724 197.231 94.4158 197.587 94.4158 198.22C94.4158 198.674 96.3204 198.71 97.0303 198.269C97.2193 198.152 97.3737 198.288 97.3737 198.571C97.3737 199.182 97.918 199.26 98.1116 198.677C98.1977 198.418 98.5573 198.605 99.0969 199.19C99.5643 199.696 100.366 200.16 100.879 200.22C101.391 200.281 101.811 200.365 101.811 200.408C101.811 200.451 102.513 200.524 103.372 200.569C104.231 200.614 104.933 200.548 104.933 200.422C104.933 200.296 105.605 200.182 106.427 200.169C107.757 200.148 107.856 200.195 107.331 200.595C106.8 201 106.866 201.046 107.995 201.055C108.684 201.061 109.535 201.219 109.885 201.407C110.36 201.663 110.522 201.641 110.525 201.325C110.529 201.002 110.599 201.009 110.817 201.355C110.975 201.605 111.261 201.713 111.453 201.594C111.645 201.474 111.962 201.678 112.159 202.046C112.607 202.887 113.163 202.895 114.043 202.071C114.727 201.431 114.736 201.432 115.586 202.223C116.426 203.005 116.815 203.162 117.709 203.085C118.055 203.055 118.072 202.94 117.783 202.589C117.49 202.235 117.528 202.085 117.954 201.921C118.255 201.805 118.58 201.788 118.674 201.883C118.769 201.978 118.678 202.056 118.473 202.056C118.268 202.056 118.18 202.263 118.276 202.516C118.492 203.082 120.05 203.433 120.057 202.917C120.059 202.698 120.171 202.723 120.333 202.981C120.482 203.217 120.739 203.385 120.903 203.354C121.067 203.323 121.313 203.334 121.448 203.378C121.584 203.422 121.806 203.49 121.941 203.528C122.077 203.567 122.472 203.722 122.818 203.874C123.24 204.058 123.781 203.958 124.453 203.571C125.052 203.226 125.502 203.129 125.569 203.33C125.631 203.516 125.894 203.587 126.153 203.487C126.413 203.387 126.625 203.439 126.625 203.602C126.625 203.834 133.5 203.965 134.595 203.753C135.093 203.657 134.822 203.084 134.184 202.881C133.292 202.597 133.35 202.053 134.266 202.104C134.673 202.127 135.302 202.022 135.663 201.871C136.276 201.616 136.284 201.634 135.775 202.151C135.474 202.455 135.303 202.99 135.394 203.341C135.537 203.888 135.875 203.98 137.83 203.998C139.691 204.015 140.1 203.925 140.1 203.497C140.1 203.09 140.301 203.026 141.004 203.207C141.501 203.334 142.834 203.508 143.965 203.594C145.712 203.725 146.158 203.642 146.915 203.043C147.435 202.633 147.857 202.486 147.925 202.692C148.103 203.228 150.593 203.117 151.16 202.548C151.433 202.274 151.829 202.158 152.041 202.291C152.672 202.687 153.362 202.701 153.811 202.326C154.044 202.132 154.641 202.055 155.137 202.154C156.072 202.341 157.191 201.773 157.191 201.112C157.191 200.905 157.43 200.735 157.722 200.735C158.092 200.735 158.201 200.936 158.081 201.396C157.861 202.242 158.998 202.307 159.887 201.499C160.308 201.117 160.968 200.968 161.996 201.021C162.851 201.065 163.714 200.915 164.01 200.67C164.42 200.33 164.557 200.326 164.666 200.653C164.835 201.156 166.271 201.201 166.571 200.713C166.691 200.519 166.978 200.433 167.21 200.523C167.443 200.612 167.926 200.479 168.284 200.227C168.643 199.975 169.022 199.855 169.126 199.959C169.231 200.065 169.842 199.824 170.484 199.426C171.126 199.027 171.652 198.835 171.652 198.998C171.652 199.375 174.128 199.191 174.941 198.754C175.277 198.573 175.895 198.424 176.314 198.423C176.732 198.422 177.491 198.203 178 197.937C178.509 197.67 179.66 197.354 180.559 197.234C181.676 197.085 182.346 196.798 182.674 196.327C182.96 195.918 183.155 195.82 183.155 196.084C183.155 196.617 185.431 196.359 185.783 195.787C185.902 195.594 186.506 195.374 187.124 195.299C189.179 195.05 190.217 194.724 190.634 194.196C190.953 193.791 191.134 193.763 191.439 194.07C192.051 194.684 193.058 194.536 193.248 193.804C193.357 193.39 193.697 193.144 194.164 193.144C194.572 193.144 195.405 192.941 196.015 192.692C196.625 192.443 197.318 192.31 197.555 192.396C197.793 192.482 198.209 192.278 198.479 191.941C198.833 191.502 199.021 191.446 199.143 191.742C199.386 192.326 199.626 192.263 200.708 191.329C201.233 190.875 201.935 190.504 202.269 190.504C202.602 190.504 202.875 190.281 202.875 190.009C202.875 189.641 203.26 189.514 204.368 189.514C205.683 189.514 208.488 188.508 210.841 187.192C211.154 187.017 211.612 186.873 211.858 186.873C212.104 186.873 212.577 186.571 212.91 186.202C213.243 185.832 213.709 185.605 213.947 185.696C214.184 185.787 214.378 185.661 214.378 185.414C214.378 185.163 214.889 184.87 215.546 184.746C216.188 184.626 216.792 184.321 216.888 184.07C216.984 183.82 217.272 183.695 217.528 183.794C217.784 183.893 217.994 183.809 217.994 183.608C217.994 183.407 218.253 183.231 218.569 183.217C218.912 183.201 218.979 183.124 218.733 183.024C218.507 182.932 218.322 182.647 218.322 182.39C218.322 181.807 219.854 181.759 220.055 182.335C220.16 182.637 220.371 182.593 220.847 182.17C221.204 181.852 221.735 181.592 222.026 181.592C222.318 181.592 222.648 181.444 222.759 181.262C222.871 181.081 223.339 180.932 223.8 180.932C224.409 180.932 224.586 180.797 224.448 180.437C224.307 180.069 224.498 179.942 225.194 179.942C225.709 179.942 226.314 179.719 226.539 179.447C226.764 179.175 227.243 178.952 227.603 178.952C228.077 178.952 228.215 178.784 228.101 178.347C227.972 177.85 228.357 177.598 230.244 176.944C231.883 176.376 232.952 175.743 233.963 174.744C234.743 173.973 235.593 173.341 235.85 173.341C236.108 173.341 236.502 173.118 236.727 172.846C236.953 172.574 237.31 172.351 237.523 172.351C237.735 172.351 238.272 171.912 238.715 171.375C239.158 170.838 239.838 170.392 240.226 170.385C240.614 170.377 241.406 169.925 241.986 169.38C242.567 168.836 243.11 168.39 243.193 168.39C243.625 168.39 245.601 166.598 245.601 166.206C245.601 165.955 245.816 165.75 246.078 165.75C246.34 165.75 246.673 165.549 246.817 165.302C246.962 165.056 247.672 164.577 248.395 164.237C249.796 163.579 251.331 161.992 251.387 161.146C251.405 160.865 251.442 160.293 251.469 159.877C251.512 159.201 251.637 159.142 252.624 159.327C253.587 159.509 253.876 159.388 254.843 158.396C255.454 157.769 256.287 157.152 256.694 157.025C257.1 156.898 257.433 156.606 257.433 156.376C257.433 156.147 258.014 155.49 258.725 154.917C259.435 154.343 260.111 153.576 260.226 153.211C260.341 152.846 260.618 152.548 260.84 152.548C261.063 152.548 261.433 152.028 261.661 151.393C261.89 150.757 262.209 150.237 262.37 150.237C262.692 150.237 264.291 148.714 264.37 148.332C264.517 147.615 264.789 147.272 265.352 147.092C265.697 146.983 265.979 146.672 265.979 146.403C265.979 145.818 268.019 143.636 268.565 143.636C268.809 143.636 268.875 143.34 268.745 142.821C268.52 141.918 269.083 141.143 270.11 140.945C270.588 140.852 270.752 140.53 270.778 139.636C270.821 138.144 271.197 137.431 271.602 138.073C271.808 138.4 271.886 138.32 271.89 137.778C271.892 137.369 272.042 137.035 272.223 137.035C272.404 137.035 272.552 136.846 272.552 136.614C272.552 136.382 272.845 135.94 273.202 135.633C273.56 135.325 273.78 134.882 273.691 134.649C273.602 134.416 273.864 134.078 274.273 133.898C274.879 133.631 275.036 133.263 275.12 131.922C275.177 131.016 275.454 130.019 275.734 129.708C276.062 129.344 276.171 128.846 276.039 128.315C275.886 127.702 275.995 127.403 276.463 127.151C276.901 126.916 277.037 126.594 276.907 126.097C276.78 125.605 276.84 125.455 277.101 125.617C277.327 125.757 277.482 125.644 277.482 125.338C277.482 125.055 277.625 124.824 277.8 124.824C277.975 124.824 278.038 124.612 277.939 124.354C277.84 124.096 278.067 123.576 278.443 123.199C278.881 122.758 279.125 122.088 279.125 121.323C279.125 120.358 279.227 120.171 279.661 120.338C280.108 120.511 280.162 120.376 279.991 119.517C279.821 118.661 279.901 118.46 280.471 118.31C281.022 118.165 281.115 117.961 280.945 117.269C280.828 116.795 280.733 116.139 280.732 115.812C280.731 115.484 280.517 115.134 280.256 115.034C279.63 114.793 279.648 114.262 280.284 114.262C281.004 114.262 281.513 112.742 281.045 111.99C280.746 111.51 280.825 111.115 281.438 110.02C281.859 109.267 282.309 108.651 282.437 108.651C282.564 108.651 282.728 108.142 282.8 107.519C282.876 106.868 282.801 106.468 282.624 106.578C282.441 106.691 282.409 106.38 282.543 105.812C282.668 105.286 282.8 104.095 282.837 103.166C282.889 101.863 283.011 101.517 283.37 101.654C283.684 101.774 283.75 101.695 283.574 101.409C283.429 101.173 283.474 100.886 283.677 100.761C283.938 100.598 283.942 100.181 283.691 99.2666C283.426 98.3042 283.44 97.9375 283.747 97.747C284.31 97.3972 283.844 96.3232 283.231 96.5595C282.685 96.7698 282.553 96.2644 283.07 95.9433C283.282 95.8116 283.289 95.5307 283.087 95.1528C282.788 94.5904 282.874 92.5646 283.212 92.2249C283.302 92.1352 283.23 91.7903 283.053 91.4589C282.803 90.9879 282.881 90.776 283.409 90.4918C283.908 90.2238 284.028 89.9413 283.863 89.4202C283.74 89.031 283.603 88.3346 283.558 87.8726C283.513 87.4105 283.389 86.8098 283.283 86.5375C283.177 86.2652 283.109 85.8196 283.131 85.5473C283.218 84.5153 283.058 83.8651 282.763 84.0479C282.595 84.1525 282.371 84.0971 282.265 83.9251C282.159 83.7532 282.223 83.5195 282.407 83.4053C282.94 83.0739 282.792 82.4864 282.229 82.7033C281.782 82.8756 281.746 82.5696 281.94 80.2632C282.103 78.3238 282.058 77.6261 281.772 77.6261C281.534 77.6261 281.461 77.3736 281.585 76.9815C281.697 76.6267 281.571 75.5999 281.305 74.6999C281.039 73.7995 280.908 72.9757 281.014 72.8691C281.12 72.7625 281.018 72.6753 280.788 72.6753C280.555 72.6753 280.452 72.4605 280.555 72.1908C280.781 71.5987 280.236 71.1832 279.997 71.7657C279.904 71.9938 279.909 71.6974 280.01 71.1076C280.15 70.2887 280.076 70.0349 279.696 70.0349C279.384 70.0349 279.115 69.588 278.975 68.8391C278.694 67.3357 278.126 66.4057 277.485 66.3994C277.078 66.3951 277.07 66.3426 277.438 66.1083C277.805 65.8753 277.761 65.6475 277.203 64.8755C276.827 64.355 276.363 63.2144 276.173 62.3411C275.983 61.4677 275.534 60.4373 275.175 60.0508C274.817 59.6647 274.524 59.0844 274.524 58.7613C274.524 58.3745 274.355 58.2388 274.031 58.3636C273.659 58.5072 273.538 58.3052 273.538 57.5385C273.538 56.7252 273.429 56.5655 272.988 56.7355C272.571 56.8962 272.489 56.8137 272.649 56.3952C272.765 56.0912 272.717 55.8427 272.542 55.8427C272.367 55.8427 272.223 55.6199 272.223 55.3476C272.223 55.0753 272.367 54.8525 272.542 54.8525C272.717 54.8525 272.775 54.6297 272.671 54.3574C272.567 54.0851 272.276 53.8624 272.024 53.8624C271.772 53.8624 271.566 53.6396 271.566 53.3673C271.566 53.095 271.344 52.8722 271.073 52.8722C270.802 52.8722 270.58 52.6494 270.58 52.3771C270.58 52.1048 270.321 51.618 270.005 51.2952C269.14 50.4127 267.622 47.995 267.622 47.4993C267.622 46.8775 266.935 46.2712 266.231 46.2712C265.9 46.2712 265.544 46.0484 265.44 45.7761C265.336 45.5038 265.077 45.281 264.865 45.281C264.652 45.281 264.282 44.6127 264.042 43.7958C263.762 42.8423 263.412 42.3016 263.067 42.2851C262.238 42.2465 261.335 42.0482 261.153 41.8646C261.062 41.7739 260.795 41.1352 260.559 40.4454C260.228 39.4787 259.953 39.1892 259.361 39.183C258.767 39.177 258.554 38.95 258.421 38.1849C258.29 37.4304 258.054 37.1736 257.43 37.1066C253.119 36.6419 253.161 36.6521 253.638 36.1732C253.892 35.9181 254.254 35.7095 254.442 35.7095C254.63 35.7095 254.698 35.4867 254.594 35.2144C254.471 34.8916 253.96 34.7194 253.126 34.7194C252.051 34.7194 251.846 34.6098 251.846 34.0371C251.846 33.5048 251.701 33.4008 251.189 33.5642C250.75 33.7038 250.531 33.6236 250.531 33.3226C250.531 32.8942 248.366 31.8618 247.798 32.0192C247.65 32.0601 247.557 31.8304 247.59 31.5086C247.622 31.1868 247.632 30.7541 247.611 30.5468C247.572 30.1547 246.07 29.6105 245.355 29.7293C245.129 29.7669 244.942 29.5309 244.939 29.2055C244.935 28.7015 244.886 28.687 244.611 29.1085C244.323 29.5484 244.25 29.5484 243.952 29.1085C243.662 28.6794 243.552 28.6989 243.13 29.254C242.551 30.0161 242.479 29.6943 243.03 28.8085C243.339 28.3104 243.311 28.0817 242.889 27.6576C242.599 27.3665 242.219 27.1282 242.045 27.1282C241.87 27.1282 241.643 26.9054 241.538 26.6331C241.435 26.3608 241.003 26.138 240.58 26.138C240.157 26.138 239.524 25.9198 239.173 25.6535C238.822 25.3868 238.161 25.164 237.704 25.1584C237.247 25.1525 236.613 24.8426 236.295 24.4693C235.852 23.9494 235.461 23.8316 234.622 23.9656C233.794 24.0976 233.381 23.9785 232.929 23.4765C232.469 22.9655 232.1 22.8632 231.331 23.0329C230.434 23.2309 230.377 23.1982 230.776 22.7154C231.167 22.2431 231.123 22.1774 230.421 22.1774C229.981 22.1774 229.321 21.8972 228.956 21.5549C228.444 21.0763 227.858 20.9473 226.418 20.9958C225.05 21.042 224.587 20.9496 224.701 20.6522C224.786 20.4284 224.68 20.1004 224.465 19.9235C223.923 19.4772 221.244 18.7465 220.515 18.8455C220.184 18.8904 219.398 18.6815 218.768 18.3811C218.137 18.0808 217.225 17.7666 216.739 17.6831C215.287 17.4322 214.556 17.1586 214.302 16.7695C214.133 16.5104 213.755 16.5757 213.026 16.9893C212.455 17.3128 211.91 17.4982 211.814 17.4019C211.718 17.3055 211.812 17.2266 212.023 17.2266C212.234 17.2266 212.406 17.0781 212.406 16.8966C212.406 16.715 212.032 16.5665 211.574 16.5665C211.116 16.5665 210.194 16.3368 209.525 16.0559C208.856 15.775 207.936 15.4912 207.482 15.4245C207.027 15.3582 205.799 15.1338 204.754 14.9261C203.709 14.7185 202.544 14.6473 202.166 14.7677C201.778 14.8915 201.379 14.8248 201.249 14.6146C201.123 14.4099 200.268 14.1885 199.349 14.1228C198.43 14.0568 197.483 13.8822 197.246 13.735C197.008 13.5875 196.398 13.4987 195.89 13.5373C195.382 13.5762 194.674 13.4508 194.316 13.2587C193.959 13.0666 192.448 12.8541 190.958 12.7868C189.468 12.7191 187.827 12.4999 187.31 12.2996C186.521 11.9933 178.819 11.5227 175.864 11.5999C175.379 11.6124 174.894 11.4804 174.787 11.3065C174.68 11.1325 173.715 10.9942 172.643 10.9995C171.571 11.0048 170.384 10.9104 170.007 10.7899C169.629 10.6695 169.108 10.7474 168.849 10.9629C168.493 11.2603 168.12 11.2646 167.307 10.98C166.591 10.7292 166.199 10.7167 166.124 10.9428C166.051 11.1599 165.807 11.1705 165.439 10.9728C165.125 10.8038 163.399 10.6474 161.604 10.6249C157.133 10.5698 157.258 10.553 157.309 11.2032C157.364 11.8979 156.238 11.8253 155.676 11.0979C155.426 10.7751 154.641 10.6256 153.194 10.6256C151.986 10.6256 150.908 10.4556 150.683 10.2295C150.379 9.92421 150.289 9.92355 150.289 10.2272C150.289 10.4701 149.817 10.6035 149.056 10.5754C148.379 10.5507 147.362 10.6335 146.797 10.7599C146.019 10.9342 145.723 10.8639 145.572 10.4701C145.409 10.0427 145.26 10.0216 144.735 10.3513C144.255 10.652 143.805 10.6625 142.931 10.3932C142.008 10.1087 141.689 10.1292 141.389 10.4916ZM161.135 14.4212C161.135 14.6935 160.895 14.9162 160.602 14.9162C160.165 14.9162 160.142 14.8268 160.477 14.4212C160.702 14.1489 160.942 13.9261 161.01 13.9261C161.079 13.9261 161.135 14.1489 161.135 14.4212ZM111.731 16.9586C111.626 17.2217 111.548 17.1434 111.532 16.7589C111.518 16.4111 111.596 16.2163 111.705 16.3259C111.814 16.4355 111.826 16.7203 111.731 16.9586ZM100.607 16.9751C100.831 17.2002 101.255 17.3857 101.548 17.3877C102.351 17.3936 102.437 18.1296 101.664 18.3762C100.739 18.6712 100.818 19.0729 101.91 19.6198C102.674 20.0027 102.9 20.0066 103.237 19.6442C103.48 19.3835 103.506 19.2069 103.303 19.2069C103.115 19.2069 102.961 19.0412 102.961 18.8383C102.961 18.6356 103.244 18.5442 103.59 18.6349C104.013 18.7462 104.271 18.6006 104.378 18.1907C104.563 17.4801 103.801 16.6632 103.464 17.2104C103.347 17.4009 103.416 17.5567 103.618 17.5567C103.82 17.5567 103.894 17.7052 103.783 17.8867C103.408 18.4947 102.961 18.225 102.961 17.3916C102.961 16.6424 102.834 16.5665 101.581 16.5665C100.483 16.5665 100.284 16.6503 100.607 16.9751ZM109.863 17.7217C109.863 18.2973 109.689 18.5389 109.288 18.5207C108.944 18.5052 108.878 18.4277 109.123 18.3283C109.35 18.2366 109.534 17.8771 109.534 17.5293C109.534 17.1811 109.608 16.8966 109.699 16.8966C109.789 16.8966 109.863 17.2679 109.863 17.7217ZM242.643 28.4289C242.643 28.5999 242.496 28.8312 242.315 28.9434C242.134 29.0557 241.986 28.9157 241.986 28.6329C241.986 28.35 242.134 28.1183 242.315 28.1183C242.496 28.1183 242.643 28.2579 242.643 28.4289ZM251.517 34.4088C251.517 34.7824 251.376 35.0006 251.203 34.8933C251.03 34.786 250.972 34.4801 251.074 34.2137C251.335 33.5315 251.517 33.6117 251.517 34.4088ZM259.301 40.3923C259.196 40.6553 259.118 40.5771 259.103 40.1926C259.089 39.8447 259.166 39.65 259.275 39.7596C259.384 39.8692 259.396 40.154 259.301 40.3923ZM142.754 46.6837C142.868 47.5686 142.715 48.2515 142.401 48.2515C142.22 48.2515 142.072 48.0445 142.072 47.7917C142.072 47.5389 141.862 47.2511 141.606 47.1524C141.043 46.9352 140.629 47.8112 141.187 48.0389C141.478 48.1581 141.474 48.2059 141.168 48.2254C140.942 48.2396 140.757 48.4743 140.757 48.7466C140.757 49.0188 140.61 49.2416 140.429 49.2416C140.248 49.2416 140.1 49.0188 140.1 48.7466C140.1 48.4743 139.883 48.2515 139.617 48.2515C139.339 48.2515 139.209 48.0561 139.311 47.7897C139.574 47.1022 138.912 46.8517 138.342 47.4234C138.07 47.6973 137.54 47.9214 137.165 47.9214C136.68 47.9214 136.483 48.1346 136.48 48.664C136.476 49.2505 136.411 49.3047 136.169 48.9212C135.756 48.2653 135.349 48.7317 135.686 49.475C135.833 49.8004 135.967 50.2153 135.982 50.3968C135.997 50.5783 136.131 50.9223 136.28 51.1615C136.806 52.0061 136.154 51.9702 135.295 51.1071C134.394 50.2021 133.527 49.9545 133.527 50.6021C133.527 50.8582 133.374 50.8457 133.034 50.5618C132.299 49.9493 132.437 49.3393 133.363 49.106C134.237 48.8855 134.5 48.2515 133.717 48.2515C133.46 48.2515 132.743 48.8456 132.124 49.5717C131.505 50.2978 130.84 50.8919 130.646 50.8919C130.451 50.8919 130.195 51.3375 130.076 51.882C129.895 52.7065 129.699 52.8722 128.9 52.8722C128.371 52.8722 127.94 53.0267 127.94 53.2151C127.94 53.4132 127.746 53.3782 127.483 53.1326C126.963 52.6484 127.435 52.1649 128.156 52.4431C128.399 52.5362 128.597 52.4484 128.597 52.2474C128.597 52.0464 128.433 51.882 128.233 51.882C128.029 51.882 127.957 51.6279 128.069 51.3045C128.23 50.8401 128.17 50.8562 127.763 51.3853C127.328 51.9504 127.212 51.9738 126.946 51.5503C126.67 51.1127 126.63 51.113 126.591 51.552C126.567 51.8243 126.557 52.1365 126.57 52.2458C126.582 52.3553 126.629 53.0716 126.675 53.8379L126.756 55.2314L127.922 55.0116C128.564 54.8908 129.162 54.6756 129.254 54.5337C129.344 54.3914 129.873 54.1766 130.428 54.0558C131.327 53.8597 131.427 53.7201 131.345 52.7765C131.295 52.1936 131.333 51.9827 131.431 52.3078C131.587 52.8273 131.731 52.7778 132.63 51.8952C133.763 50.7826 134.184 50.645 134.184 51.387C134.184 51.6593 134.348 51.882 134.548 51.882C134.748 51.882 134.831 52.0936 134.732 52.352C134.577 52.7583 134.704 52.7583 135.673 52.352C137.082 51.7603 137.258 51.7636 137.023 52.3771C136.919 52.6494 136.977 52.8722 137.152 52.8722C137.328 52.8722 137.471 52.6494 137.471 52.3771C137.471 51.9969 137.891 51.882 139.278 51.882C140.273 51.882 141.086 51.7335 141.086 51.552C141.086 51.3705 141.53 51.2219 142.072 51.2219C142.729 51.2219 143.058 51.0569 143.058 50.7269C143.058 50.1549 143.575 50.0668 143.894 50.5843C144.013 50.7784 144.313 50.8589 144.561 50.7635C144.809 50.6681 145.237 50.817 145.514 51.0945C145.952 51.5352 146.016 51.5368 146.016 51.1081C146.016 50.4394 146.736 50.2473 147.262 50.7754C147.498 51.013 147.991 51.4177 148.357 51.6751C148.723 51.9325 149.057 52.3441 149.1 52.59C149.305 53.7581 149.718 54.5225 150.146 54.5225C150.405 54.5225 150.617 54.7089 150.617 54.937C150.617 55.1651 151.057 55.5469 151.595 55.7859C152.444 56.1635 152.702 56.1433 153.567 55.6304C154.685 54.967 154.76 54.7687 154.101 54.2191C153.847 54.0082 153.543 53.4498 153.426 52.9785C153.145 51.8563 151.65 49.9017 151.071 49.9017C150.822 49.9017 150.617 49.6951 150.617 49.4423C150.617 49.1898 150.264 48.8941 149.833 48.7855C149.402 48.6769 148.7 48.2178 148.272 47.7653C147.845 47.3128 147.199 46.9517 146.838 46.963C146.476 46.9742 146.365 47.0583 146.591 47.1498C147.201 47.397 147.089 47.8218 146.363 48.0122C145.867 48.1426 145.678 47.967 145.515 47.2257C145.328 46.3689 145.173 46.2712 144.004 46.2712C143.152 46.2712 142.719 46.4141 142.754 46.6837ZM144.866 48.5815C144.978 48.7631 144.921 48.9116 144.74 48.9116C144.559 48.9116 144.32 48.7631 144.208 48.5815C144.097 48.4 144.153 48.2515 144.334 48.2515C144.515 48.2515 144.754 48.4 144.866 48.5815ZM122.93 52.358C122.435 52.6177 121.548 52.8841 120.958 52.9504L119.887 53.0706L121.038 53.6478C122.093 54.1776 122.111 54.2089 121.253 54.0294C120.72 53.9181 120.112 54.0046 119.842 54.2304C119.482 54.5304 119.274 54.5337 118.986 54.2446C118.451 53.7069 118.065 53.7693 118.289 54.3574C118.393 54.6297 118.7 54.8525 118.972 54.8525C119.275 54.8525 119.392 55.0433 119.275 55.3476C119.156 55.6592 119.279 55.8427 119.606 55.8427C119.997 55.8427 120.09 56.0886 119.982 56.8328C119.816 57.9639 119.964 58.0692 120.563 57.2464C120.858 56.8417 120.881 56.5463 120.642 56.2562C120.382 55.942 120.515 55.8427 121.197 55.8427C121.809 55.8427 122.041 55.9823 121.926 56.2826C121.727 56.8035 122.654 56.8946 123.26 56.414C123.58 56.1605 123.586 55.9777 123.288 55.6172C122.986 55.2516 123.021 55.0298 123.449 54.6004C123.796 54.2508 123.996 54.197 123.996 54.4518C123.996 54.6723 124.287 54.8525 124.643 54.8525C125.083 54.8525 125.229 54.6941 125.101 54.3574C124.995 54.0812 124.506 53.8624 123.996 53.8624C123.485 53.8624 122.996 53.6435 122.891 53.3673C122.779 53.0742 122.887 52.8722 123.157 52.8722C123.407 52.8722 123.687 53.058 123.778 53.2848C123.869 53.5118 123.955 53.2887 123.97 52.7897C124 51.7289 124.073 51.7593 122.93 52.358ZM124.653 52.8722C124.357 53.0643 124.316 53.194 124.551 53.1973C124.767 53.1999 125.034 53.0537 125.146 52.8722C125.398 52.4623 125.284 52.4623 124.653 52.8722ZM116.196 54.4079C115.525 54.6872 115.058 55.1581 114.924 55.6912C114.668 56.7193 115.05 57.2094 115.491 56.4176C115.668 56.1014 116.137 55.8404 116.535 55.8377C117.511 55.8308 118.36 55.2621 117.882 54.935C117.684 54.799 117.462 54.5254 117.389 54.3271C117.298 54.0759 116.937 54.1003 116.196 54.4079ZM116.108 57.5088C116.108 57.7203 115.886 57.8081 115.615 57.7035C115.343 57.5992 115.122 57.6623 115.122 57.8438C115.122 58.0253 115.334 58.2557 115.594 58.3557C115.858 58.4577 115.981 58.7607 115.873 59.0438C115.712 59.4647 115.795 59.4878 116.365 59.1815C116.742 58.9788 117.328 58.8131 117.666 58.8131C118.005 58.8131 118.57 58.5943 118.921 58.327C119.506 57.8807 119.428 57.8517 117.991 57.9765C117.128 58.051 116.502 57.9831 116.599 57.8253C116.696 57.6675 116.625 57.4454 116.442 57.3312C116.258 57.2173 116.108 57.2972 116.108 57.5088ZM108.301 58.8943C108.376 59.1204 108.648 59.3204 108.904 59.3389C110.379 59.4455 110.491 59.496 110.309 59.972C110.167 60.3429 110.268 60.4132 110.702 60.2459C111.085 60.0984 111.209 60.1462 111.062 60.3845C110.939 60.5842 111.007 60.8529 111.214 60.9809C111.445 61.1242 111.192 61.3816 110.562 61.648C109.997 61.8866 109.534 62.2374 109.534 62.4279C109.534 62.914 110.061 62.8579 110.602 62.3143C110.854 62.0615 111.328 61.8018 111.657 61.7367C111.985 61.6717 112.382 61.2707 112.538 60.8453C112.768 60.2208 112.7 60.0399 112.187 59.9049C111.838 59.8132 111.624 59.5495 111.712 59.3191C111.895 58.8395 110.877 58.4943 109.261 58.4877C108.531 58.4847 108.21 58.6204 108.301 58.8943ZM114.027 59.167C113.312 60.0056 113.458 60.2977 114.287 59.6884C114.615 59.4478 114.825 59.0745 114.754 58.859C114.671 58.6115 114.404 58.7244 114.027 59.167ZM106.248 59.4729C105.891 59.6947 105.889 59.9251 106.239 60.7736C106.473 61.3407 106.742 61.7272 106.837 61.6321C106.931 61.5371 107.205 61.6232 107.446 61.8235C107.686 62.0236 108.117 62.0972 108.404 61.9866C108.879 61.8037 108.879 61.7387 108.408 61.2658C108.124 60.9803 107.891 60.57 107.891 60.3542C107.891 59.7726 106.751 59.161 106.248 59.4729ZM101.978 62.4351C101.607 62.6705 101.58 62.8394 101.867 63.1272C102.317 63.5791 102.961 63.2622 102.961 62.5893C102.961 62.0401 102.671 61.9948 101.978 62.4351ZM106.078 63.4576C105.827 64.6056 106.174 65.2716 106.457 64.1851C106.57 63.7524 106.819 63.5481 107.102 63.657C107.666 63.8745 107.706 63.3797 107.168 62.8398C106.556 62.2252 106.318 62.3599 106.078 63.4576ZM95.0501 70.9425C95.0626 71.5323 94.9252 72.0152 94.7444 72.0152C94.5637 72.0152 94.4158 71.8667 94.4158 71.6852C94.4158 71.5036 94.1656 71.3551 93.86 71.3551C93.3729 71.3551 93.3831 71.2911 93.9422 70.8392C94.3947 70.4735 94.4608 70.2735 94.1693 70.1517C93.9435 70.0573 93.7584 69.7817 93.7584 69.5398C93.7584 68.884 94.5462 68.7355 94.8036 69.3428C94.9265 69.6326 95.0373 70.3527 95.0501 70.9425ZM91.2934 71.0987C91.4811 71.2393 91.3753 71.3472 91.0469 71.3502C90.7271 71.3528 90.4718 71.1109 90.4718 70.8049C90.4718 70.5026 90.5829 70.3894 90.7183 70.5537C90.8537 70.7178 91.1127 70.9633 91.2934 71.0987ZM86.5278 76.3254C86.5278 76.4963 86.3799 76.6359 86.1991 76.6359C86.0184 76.6359 85.8705 76.4042 85.8705 76.1214C85.8705 75.8385 86.0184 75.6986 86.1991 75.8108C86.3799 75.923 86.5278 76.1544 86.5278 76.3254ZM88.6944 76.801C88.2323 77.5093 88.2254 77.6261 88.6451 77.6261C89.0717 77.6261 89.8144 76.6963 89.8144 76.1626C89.8144 75.693 89.1821 76.0534 88.6944 76.801ZM84.3915 79.2764C84.2797 79.4579 84.4191 79.6064 84.7008 79.6064C84.9824 79.6064 85.2131 79.4579 85.2131 79.2764C85.2131 79.0948 85.0741 78.9463 84.9039 78.9463C84.7336 78.9463 84.5032 79.0948 84.3915 79.2764ZM85.5418 80.1015C85.1172 80.5553 84.848 80.9266 84.9436 80.9266C85.039 80.9266 85.5162 80.5553 86.0036 80.1015C86.4913 79.6477 86.7605 79.2764 86.6021 79.2764C86.4433 79.2764 85.9664 79.6477 85.5418 80.1015ZM275.688 85.8546C275.584 86.0236 275.65 86.255 275.833 86.3692C276.017 86.483 276.167 86.3447 276.167 86.0619C276.167 85.482 275.97 85.3968 275.688 85.8546ZM70.6628 91.0275C70.5537 91.1371 70.2701 91.149 70.0331 91.0536C69.7708 90.9483 69.8487 90.8701 70.2316 90.8542C70.578 90.84 70.772 90.9179 70.6628 91.0275ZM67.86 94.5597C67.4301 95.0433 67.4048 95.2759 67.7262 95.7928C68.2429 96.6235 68.2445 96.6193 67.3874 96.6843C66.806 96.7282 66.7544 96.6737 67.1409 96.4245C67.5471 96.1621 67.5543 96.0601 67.1829 95.8195C66.8135 95.5806 66.8086 95.3291 67.1534 94.3709C67.4764 93.4742 67.6638 93.297 67.9803 93.5877C68.305 93.8858 68.28 94.0871 67.86 94.5597ZM66.8079 94.4587C66.8079 94.6403 66.66 94.7888 66.4793 94.7888C66.2985 94.7888 66.1506 94.6403 66.1506 94.4587C66.1506 94.2772 66.2985 94.1287 66.4793 94.1287C66.66 94.1287 66.8079 94.2772 66.8079 94.4587ZM59.906 102.856C59.906 102.936 59.7581 103.093 59.5773 103.205C59.3965 103.317 59.2487 103.252 59.2487 103.06C59.2487 102.867 59.3965 102.71 59.5773 102.71C59.7581 102.71 59.906 102.775 59.906 102.856ZM61.615 108.717C61.3084 109.025 61.2206 108.937 61.2206 108.321C61.2206 107.705 61.3084 107.617 61.615 107.925C61.9217 108.233 61.9217 108.409 61.615 108.717ZM55.6333 118.191C55.6333 118.356 55.3375 118.413 54.976 118.318C54.6145 118.223 54.3187 118.088 54.3187 118.019C54.3187 117.95 54.6145 117.892 54.976 117.892C55.3375 117.892 55.6333 118.027 55.6333 118.191ZM56.2907 119.892C56.2907 120.266 56.1493 120.484 55.9765 120.377C55.8036 120.269 55.7454 119.963 55.8473 119.697C56.1079 119.015 56.2907 119.095 56.2907 119.892ZM251.516 150.803C251.158 151.364 251.148 151.363 251.328 150.788C251.432 150.456 251.529 150.01 251.543 149.798C251.562 149.52 251.614 149.524 251.731 149.812C251.82 150.033 251.723 150.478 251.516 150.803ZM240.044 164.187C239.7 165.094 239.028 165.691 239.028 165.089C239.028 164.703 240.11 163.11 240.27 163.261C240.32 163.309 240.218 163.725 240.044 164.187ZM221.849 172.22C221.739 172.33 221.456 172.342 221.219 172.246C220.957 172.141 221.034 172.063 221.417 172.047C221.764 172.033 221.958 172.111 221.849 172.22ZM216.35 178.587C216.35 178.749 216.128 178.967 215.857 179.071C215.557 179.187 215.364 179.072 215.364 178.777C215.364 178.51 215.586 178.292 215.857 178.292C216.128 178.292 216.35 178.425 216.35 178.587ZM220.19 179.674C220.085 179.937 220.007 179.859 219.992 179.474C219.977 179.127 220.055 178.932 220.164 179.041C220.273 179.151 220.285 179.436 220.19 179.674ZM71.2449 179.612C71.3567 179.794 71.2912 179.942 71.1 179.942C70.9087 179.942 70.7519 179.794 70.7519 179.612C70.7519 179.431 70.817 179.282 70.8969 179.282C70.9767 179.282 71.1332 179.431 71.2449 179.612ZM217.185 181.945C217.523 182.492 217.22 182.568 216.748 182.054C216.515 181.8 216.469 181.592 216.647 181.592C216.824 181.592 217.066 181.751 217.185 181.945ZM67.3009 183.243C67.4127 183.424 67.5691 183.573 67.649 183.573C67.7289 183.573 67.7939 183.424 67.7939 183.243C67.7939 183.061 67.6372 182.913 67.4459 182.913C67.2546 182.913 67.1892 183.061 67.3009 183.243ZM200.081 187.203C200.193 187.385 200.054 187.533 199.772 187.533C199.49 187.533 199.26 187.385 199.26 187.203C199.26 187.022 199.399 186.873 199.569 186.873C199.739 186.873 199.97 187.022 200.081 187.203ZM201.396 190.174C201.508 190.355 201.36 190.504 201.067 190.504C200.775 190.504 200.627 190.355 200.739 190.174C200.85 189.992 200.998 189.844 201.067 189.844C201.136 189.844 201.284 189.992 201.396 190.174ZM189.114 192.927C188.913 193.171 188.845 193.468 188.964 193.587C189.083 193.707 189.008 193.804 188.797 193.804C188.358 193.804 188.339 193.724 188.613 193.006C188.723 192.719 188.963 192.484 189.146 192.484C189.356 192.484 189.344 192.648 189.114 192.927ZM108.548 193.804C108.548 193.986 108.4 194.134 108.22 194.134C108.039 194.134 107.891 193.986 107.891 193.804C107.891 193.623 108.039 193.474 108.22 193.474C108.4 193.474 108.548 193.623 108.548 193.804ZM162.449 195.785C162.449 195.966 162.384 196.115 162.304 196.115C162.225 196.115 162.068 195.966 161.956 195.785C161.845 195.603 161.91 195.455 162.101 195.455C162.293 195.455 162.449 195.603 162.449 195.785ZM114.957 196.115C115.069 196.296 115.004 196.445 114.812 196.445C114.621 196.445 114.464 196.296 114.464 196.115C114.464 195.933 114.529 195.785 114.609 195.785C114.689 195.785 114.846 195.933 114.957 196.115ZM116.847 196.333C116.621 196.425 116.252 196.425 116.025 196.333C115.8 196.242 115.984 196.167 116.436 196.167C116.888 196.167 117.073 196.242 116.847 196.333ZM161.792 197.235C161.792 197.487 161.587 197.773 161.336 197.87C161.016 197.993 160.93 197.856 161.046 197.41C161.236 196.679 161.792 196.549 161.792 197.235ZM121.695 197.765C121.695 197.946 121.547 198.095 121.366 198.095C121.185 198.095 121.038 197.946 121.038 197.765C121.038 197.583 121.185 197.435 121.366 197.435C121.547 197.435 121.695 197.583 121.695 197.765ZM159.458 199.333C159.709 199.816 159.724 200.075 159.503 200.075C159.316 200.075 159.163 199.853 159.163 199.58C159.163 199.308 159.006 199.085 158.815 199.085C158.623 199.085 158.564 198.927 158.683 198.733C158.932 198.329 158.943 198.338 159.458 199.333ZM160.477 198.755C160.477 198.937 160.321 199.085 160.129 199.085C159.938 199.085 159.873 198.937 159.984 198.755C160.096 198.574 160.253 198.425 160.332 198.425C160.412 198.425 160.477 198.574 160.477 198.755ZM105.919 200.735C105.919 200.917 106.067 201.065 106.248 201.065C106.428 201.065 106.576 200.917 106.576 200.735C106.576 200.554 106.428 200.405 106.248 200.405C106.067 200.405 105.919 200.554 105.919 200.735ZM119.723 201.211C119.723 201.291 119.575 201.448 119.394 201.561C119.213 201.673 119.066 201.607 119.066 201.415C119.066 201.223 119.213 201.065 119.394 201.065C119.575 201.065 119.723 201.131 119.723 201.211ZM113.478 201.926C113.478 201.997 113.256 202.056 112.985 202.056C112.714 202.056 112.492 201.912 112.492 201.736C112.492 201.56 112.714 201.502 112.985 201.606C113.256 201.711 113.478 201.855 113.478 201.926Z" fill="#98D8B1"/>
<rect x="35" y="26" width="256" height="157" rx="16"/>
</svg>
