<svg width="326" height="209" viewBox="0 0 326 209" fill="none" xmlns="http://www.w3.org/2000/svg">
<rect width="326" height="209" rx="24" fill="#EDF2F7"/>
<path fill-rule="evenodd" clip-rule="evenodd" d="M231.46 53.3084C231.217 53.5498 225.996 53.9678 223.179 53.9718C222.634 53.9724 222.188 54.0931 222.188 54.2402C222.188 54.387 221.056 54.5013 219.673 54.4942C216.281 54.4764 214.79 54.7184 213.261 55.5341C212.553 55.9119 211.768 56.2378 211.517 56.2584C211.265 56.2786 210.837 56.3161 210.566 56.341C210.187 56.376 210.064 56.7479 210.037 57.9411C210.006 59.3601 210.056 59.4789 210.609 59.302C211.009 59.1743 211.277 59.2713 211.398 59.5883C211.499 59.8524 211.712 59.9866 211.873 59.8865C212.034 59.7867 212.439 59.9547 212.774 60.26C213.297 60.7366 213.423 60.7517 213.664 60.3668C213.896 59.9955 214.064 60.0551 214.636 60.713C215.276 61.4476 215.398 61.4777 216.243 61.111C217.319 60.6439 218.324 60.5348 217.663 60.9568C217.368 61.1451 217.496 61.2658 218.12 61.3893C218.597 61.4833 219.106 61.4436 219.253 61.3008C219.399 61.1583 219.713 61.1165 219.951 61.2087C220.189 61.3005 220.362 61.2554 220.335 61.1079C220.216 60.4528 220.393 60.072 220.816 60.072C221.068 60.072 221.273 60.2876 221.273 60.5508C221.273 60.814 221.415 60.9418 221.587 60.8346C221.759 60.7271 222.162 60.9608 222.482 61.354C223.039 62.0389 223.08 62.045 223.48 61.5032C223.859 60.99 223.934 60.9829 224.299 61.4264C224.521 61.6949 224.959 61.9148 225.274 61.9148C225.912 61.9148 226.061 61.1248 225.466 60.9022C225.255 60.8235 225.481 60.6009 225.969 60.4055C227.062 59.9688 227.818 60.1844 226.761 60.6319C226.009 60.9504 226.008 60.9547 226.696 60.974C227.079 60.9845 227.71 61.2029 228.097 61.4587C228.74 61.8831 228.869 61.8706 229.57 61.315C229.993 60.9802 230.433 60.8014 230.548 60.9178C230.664 61.0339 230.886 60.9258 231.042 60.6774C231.279 60.3002 231.326 60.3159 231.33 60.7726C231.336 61.4532 232.122 61.7898 232.658 61.3411C232.924 61.1187 233.383 61.0993 234.022 61.2842C234.65 61.4658 235.053 61.4519 235.18 61.2452C235.308 61.0361 235.452 61.0548 235.603 61.3002C235.775 61.5809 236.028 61.5425 236.632 61.1439C237.072 60.8533 237.432 60.4851 237.432 60.3257C237.432 60.1663 237.576 60.1254 237.752 60.2348C237.971 60.3708 237.959 60.5708 237.715 60.8672C237.432 61.2099 237.461 61.3005 237.853 61.3005C238.125 61.3005 238.347 61.4255 238.347 61.5785C238.347 61.9839 240.858 61.5797 241.337 61.0969C241.887 60.5422 242.025 60.5803 241.792 61.2237C241.621 61.6961 241.687 61.6872 242.335 61.1503C242.741 60.8143 242.971 60.6632 242.847 60.8149C242.473 61.2707 243.242 61.9148 244.159 61.9148C245.04 61.9148 245.751 61.2784 245.111 61.0637C244.868 60.9817 244.911 60.7873 245.247 60.4485C245.699 59.9928 245.769 59.9949 246.116 60.4734C246.324 60.7594 246.776 60.9934 247.121 60.9934C247.466 60.9934 247.802 61.1559 247.867 61.3543C248.014 61.7972 251.164 61.7784 251.437 61.3331C251.556 61.1393 251.792 61.1316 252.075 61.3119C252.673 61.693 254.117 61.6857 254.354 61.3005C254.642 60.83 256.213 60.9356 256.64 61.4541C257.128 62.0456 257.853 62.0395 258.707 61.4366C259.079 61.1737 259.384 61.1003 259.384 61.2735C259.384 61.4467 259.59 61.5088 259.842 61.4117C260.108 61.3085 260.303 61.4089 260.309 61.6516C260.316 61.9639 260.412 61.9452 260.69 61.5772C261.045 61.1076 261.24 60.9992 261.747 60.9888C261.873 60.986 261.77 60.8478 261.519 60.6817C261.138 60.4298 261.131 60.3337 261.477 60.1092C261.828 59.8813 261.828 59.8162 261.477 59.6905C261.248 59.6088 261.172 59.4233 261.306 59.2784C261.605 58.9574 262.117 59.709 262.124 60.4777C262.126 60.7855 262.324 61.2348 262.564 61.4759C263.12 62.0358 263.991 62.0527 263.78 61.4995C263.647 61.1485 264.807 60.072 265.319 60.072C265.762 60.072 265.404 60.635 264.872 60.7753C264.059 60.9894 264.099 61.565 264.949 61.8887C265.783 62.2062 266.123 62.0465 265.893 61.4443C265.602 60.678 266.965 60.9166 267.75 61.7692L268.463 62.5453L269.22 61.639L269.977 60.7329L270.362 61.4572C270.847 62.3693 271.902 62.7962 273.943 62.9047C274.823 62.9513 275.543 63.1092 275.543 63.2548C275.543 63.4007 275.989 63.4532 276.534 63.3718C277.079 63.2901 278.132 63.4062 278.873 63.6298C279.614 63.8531 280.335 63.9652 280.474 63.8786C280.613 63.7923 280.726 63.8605 280.726 64.0303C280.726 64.319 281.348 64.3829 284.614 64.4302C285.326 64.4406 285.91 64.5699 285.91 64.7177C285.91 64.8654 286.099 64.9861 286.33 64.9861C286.56 64.9861 286.909 65.1793 287.103 65.4151C287.297 65.651 287.71 65.7773 288.021 65.6956C288.331 65.6139 288.677 65.6971 288.79 65.8808C288.902 66.0644 289.805 66.2146 290.795 66.2146C292.349 66.2146 292.734 66.3372 293.607 67.1087C294.535 67.9293 294.799 68 296.819 67.9686C298.124 67.9484 299.023 67.8034 299.029 67.6121C299.042 67.1759 299.671 68.2927 299.773 68.9309C299.817 69.2107 300.077 69.4201 300.351 69.3968C300.685 69.3682 300.849 69.5964 300.849 70.0878C300.849 70.9417 301.648 71.0968 301.859 70.2841C301.991 69.7721 302 69.7721 302.033 70.2841C302.06 70.6883 302.337 70.8216 303.151 70.8216C304.1 70.8216 304.289 70.9542 304.68 71.8965C304.925 72.4877 305.33 72.9715 305.579 72.9715C305.828 72.9715 306.032 73.0885 306.032 73.2316C306.032 73.3747 306.307 73.8106 306.642 74.2C307.372 75.0483 307.391 75.2369 306.794 75.7357C306.304 76.1457 306.17 76.9642 306.594 76.9642C307.021 76.9642 307.677 79.5342 307.284 79.6663C306.71 79.8589 306.913 80.3426 307.567 80.3426C308.06 80.3426 308.131 80.4538 307.913 80.8801C307.569 81.5542 307.778 82.1854 308.344 82.1854C309.004 82.1854 308.876 83.8421 308.166 84.4889C307.343 85.2392 307.36 85.9944 308.194 85.7745C308.807 85.6133 308.811 85.6305 308.3 86.1996C307.814 86.7398 307.812 86.7924 308.272 86.7924C308.59 86.7924 308.779 87.0479 308.783 87.4834C308.787 87.8636 309.058 88.52 309.386 88.9423C310.077 89.8326 310.154 90.3732 309.615 90.5559C309.311 90.6588 309.312 90.7811 309.62 91.157C309.832 91.4162 309.921 91.8523 309.817 92.1257C309.701 92.4303 309.817 92.6957 310.116 92.8118C310.833 93.0888 310.713 93.8563 309.953 93.8563C309.355 93.8563 308.504 94.6104 308.481 95.1617C308.476 95.2882 308.746 95.392 309.081 95.392C309.487 95.392 309.691 95.5969 309.691 96.0063C309.691 96.3475 309.894 96.6205 310.148 96.6205C310.4 96.6205 310.601 96.7243 310.595 96.8509C310.576 97.2606 309.746 98.6193 309.563 98.5401C308.715 98.1721 308.484 99.0653 309.26 99.7142C309.695 100.078 309.677 100.144 309.088 100.364C308.727 100.498 308.518 100.747 308.622 100.918C308.727 101.088 308.705 101.4 308.573 101.611C308.2 102.213 308.268 102.866 308.771 103.499C309.091 103.902 309.126 104.119 308.885 104.205C308.408 104.373 308.744 105.527 309.269 105.527C309.812 105.527 309.792 106.134 309.224 106.891C308.642 107.666 308.659 107.908 309.31 108.08C309.812 108.212 309.812 108.222 309.303 108.256C308.829 108.287 308.776 108.558 308.87 110.441C308.952 112.08 308.881 112.591 308.572 112.591C308.094 112.591 308.032 113.086 308.476 113.362C308.91 113.632 308.511 114.185 308.069 113.925C307.871 113.809 308.086 114.102 308.547 114.577C309.414 115.468 309.631 116.395 309.056 116.753C308.875 116.866 308.807 117.28 308.905 117.674C309.003 118.067 308.945 118.475 308.777 118.58C308.587 118.698 308.547 119.598 308.672 120.954C308.847 122.86 308.812 123.114 308.396 122.952C308.063 122.824 307.802 123.051 307.533 123.704C307.2 124.515 307.216 124.679 307.658 124.927C308.367 125.327 308.307 126.79 307.561 127.259C306.996 127.615 306.916 128.368 307.222 130.459C307.238 130.573 307.477 130.712 307.752 130.766C308.38 130.891 308.57 132.397 308.016 132.86C307.703 133.121 307.53 133.071 307.286 132.648C307.07 132.274 306.962 132.233 306.956 132.521C306.951 132.756 307.187 133.127 307.48 133.347C307.984 133.723 307.98 133.772 307.404 134.215C307.069 134.474 306.623 134.69 306.413 134.695C306.025 134.705 305.92 135.053 306.016 136.01C306.046 136.305 305.941 136.547 305.782 136.547C305.508 136.547 305.072 137.512 304.994 138.292C304.974 138.491 304.856 138.756 304.732 138.88C304.322 139.294 304.5 140.505 305.014 140.795C305.464 141.048 305.444 141.121 304.833 141.451C304.37 141.7 304.195 142.014 304.298 142.41C304.382 142.733 304.333 142.925 304.19 142.835C303.788 142.586 303.23 143.865 303.444 144.545C303.585 144.992 303.491 145.148 303.08 145.152C302.637 145.156 302.612 145.211 302.956 145.431C303.192 145.581 303.569 145.633 303.794 145.546C304.499 145.274 304.239 145.974 303.441 146.501C303.021 146.778 302.678 147.277 302.678 147.611C302.678 147.945 302.506 148.218 302.295 148.218C302.085 148.218 301.726 148.644 301.497 149.163C301.269 149.683 300.858 150.189 300.584 150.288C300.311 150.387 299.723 150.722 299.278 151.033C298.833 151.343 298.172 151.597 297.809 151.597C297.447 151.597 296.919 151.719 296.637 151.869C296.354 152.019 294.974 152.223 293.57 152.324C291.632 152.462 290.918 152.637 290.607 153.05C290.382 153.349 290.193 153.697 290.188 153.824C290.169 154.279 289.503 154.041 288.98 153.391C288.415 152.687 287.648 152.843 287.937 153.603C288.163 154.195 287.769 154.177 287.099 153.566C286.479 153 285.3 153.238 285.3 153.928C285.3 154.311 285.195 154.306 284.574 153.896C283.924 153.467 283.831 153.466 283.669 153.889C283.438 154.495 282.861 154.503 282.861 153.9C282.861 153.269 282.053 153.319 281.633 153.977C281.307 154.489 281.298 154.489 281.456 153.977C281.58 153.574 281.449 153.44 280.93 153.44C280.55 153.44 280.105 153.574 279.943 153.738C279.78 153.902 278.859 154.084 277.897 154.144C276.612 154.224 276.028 154.411 275.702 154.844C275.45 155.18 275.254 155.27 275.248 155.052C275.243 154.841 274.971 154.668 274.644 154.668C274.317 154.668 273.94 154.472 273.806 154.233C273.597 153.861 273.417 153.859 272.571 154.218C272.026 154.449 271.58 154.852 271.58 155.114C271.58 155.376 271.427 155.59 271.239 155.59C271.049 155.59 270.969 155.319 271.058 154.975C271.177 154.52 271.068 154.361 270.637 154.361C270.317 154.361 270.055 154.482 270.055 154.629C270.055 154.777 269.61 154.804 269.065 154.69C268.201 154.509 268.028 154.583 267.717 155.266C267.372 156.026 267.36 156.028 267.336 155.359C267.317 154.829 267.13 154.668 266.529 154.668C266.099 154.668 265.495 154.804 265.188 154.97C264.779 155.19 264.585 155.157 264.466 154.845C264.356 154.555 263.981 154.467 263.292 154.567C261.345 154.853 259.534 154.871 259.19 154.608C258.626 154.177 257.184 154.995 257.354 155.648C257.537 156.353 257.014 156.362 256.252 155.666C255.774 155.231 255.105 155.131 252.721 155.139C251.104 155.145 249.369 155.191 248.866 155.241C248.363 155.291 246.392 155.323 244.486 155.312C242.58 155.301 240.805 155.413 240.542 155.562C240.254 155.724 239.778 155.701 239.349 155.504C238.836 155.268 238.54 155.273 238.294 155.52C238.107 155.709 237.566 155.786 237.092 155.69C236.619 155.594 235.987 155.629 235.689 155.766C235.39 155.903 234.528 156.043 233.774 156.077C233.019 156.11 231.441 156.229 230.268 156.341C229.094 156.453 227.772 156.536 227.331 156.525C226.89 156.515 226.212 156.766 225.824 157.082C225.145 157.636 225.084 157.637 224.23 157.114C223.452 156.637 223.222 156.621 222.368 156.98C221.824 157.209 221.218 157.28 220.995 157.142C220.506 156.837 219.444 157.084 219.444 157.501C219.444 157.669 219.128 157.726 218.742 157.629C218.254 157.505 217.909 157.635 217.608 158.056C217.099 158.767 216.557 158.865 216.81 158.2C216.934 157.876 216.785 157.738 216.309 157.735C215.937 157.733 215.303 157.642 214.899 157.533C214.468 157.417 214.239 157.455 214.344 157.626C214.451 157.801 213.956 157.851 213.096 157.751C211.909 157.614 211.653 157.47 211.572 156.895C211.518 156.515 211.282 156.204 211.048 156.204C210.787 156.204 210.692 156.018 210.804 155.726C210.904 155.462 211.181 155.323 211.42 155.415C211.658 155.507 211.786 155.473 211.704 155.339C211.622 155.205 211.671 154.574 211.814 153.938C212.011 153.057 211.951 152.564 211.566 151.875C211.181 151.187 211.148 150.914 211.429 150.735C211.87 150.455 211.6 149.142 211.1 149.135C210.904 149.132 210.94 149.012 211.185 148.856C211.46 148.681 211.651 147.89 211.715 146.665C211.794 145.124 211.709 144.67 211.284 144.352C210.83 144.013 210.812 143.862 211.153 143.299C211.451 142.808 211.465 142.537 211.208 142.225C210.969 141.935 210.959 141.631 211.175 141.224C211.529 140.559 211.3 139.312 210.824 139.312C210.65 139.312 210.735 139.059 211.012 138.75C211.614 138.081 211.657 137.427 211.136 136.897C210.831 136.586 210.865 136.446 211.311 136.193C211.815 135.907 211.822 135.829 211.394 135.352C210.928 134.833 210.844 132.864 211.288 132.863C211.694 132.861 211.512 129.656 211.073 129.073C210.812 128.726 210.712 128.121 210.812 127.5C210.903 126.933 210.831 126.401 210.647 126.287C210.435 126.155 210.416 125.83 210.593 125.362C210.743 124.965 210.825 123.934 210.775 123.069C210.725 122.205 210.804 121.498 210.951 121.498C211.249 121.498 210.619 120.241 210.145 119.89C209.973 119.763 210.072 119.663 210.374 119.66C210.988 119.655 211.091 119.167 210.526 118.937C210.295 118.843 210.351 118.773 210.669 118.758C211.005 118.743 211.13 118.569 211.018 118.273C210.917 118.008 211.011 117.813 211.24 117.813C211.55 117.813 211.558 117.731 211.273 117.444C211.072 117.241 210.907 116.827 210.907 116.523C210.907 116.219 210.717 115.97 210.486 115.97C209.903 115.97 209.674 114.521 210.188 114.091C210.689 113.671 210.736 112.898 210.258 112.898C210.029 112.898 209.978 112.496 210.107 111.688C210.27 110.662 210.194 110.398 209.612 109.961C209.149 109.613 209.1 109.504 209.459 109.626C209.9 109.776 209.993 109.621 209.993 108.732C209.993 108.14 209.771 107.315 209.5 106.899C209.198 106.434 209.139 106.142 209.348 106.142C209.535 106.142 209.688 106.003 209.688 105.834C209.688 105.666 209.495 105.527 209.259 105.527C208.989 105.527 208.886 105.313 208.981 104.948C209.063 104.629 208.983 104.276 208.803 104.164C208.589 104.031 208.686 103.73 209.081 103.303C209.701 102.633 209.891 101.842 209.432 101.842C209.291 101.842 208.991 101.278 208.765 100.59C208.435 99.5819 208.431 99.2907 208.742 99.0969C209.039 98.9117 209.017 98.8125 208.646 98.6694C208.381 98.5665 208.163 98.6166 208.163 98.78C208.163 98.9437 207.948 99.0776 207.685 99.0776C207.331 99.0776 207.262 98.8994 207.418 98.3865C207.533 98.0063 207.746 97.5465 207.889 97.3644C208.035 97.1801 208.03 96.6104 207.879 96.0775C207.729 95.552 207.679 94.5787 207.767 93.9147C207.864 93.1886 207.793 92.6232 207.588 92.4961C207.401 92.3797 207.249 91.809 207.249 91.2276C207.249 90.6462 207.106 90.1708 206.933 90.1708C206.728 90.1708 206.716 89.9828 206.9 89.6333C207.096 89.262 207.052 88.9733 206.759 88.6999C206.409 88.3741 206.334 88.3876 206.334 88.7767C206.334 89.0366 206.128 89.2494 205.877 89.2494C205.309 89.2494 205.279 88.5209 205.826 88.0633C206.254 87.7051 206.272 87.0144 205.876 86.0752C205.685 85.621 205.425 85.5479 204.538 85.6984C203.51 85.8725 203.476 85.8541 204.029 85.4173C204.355 85.16 204.835 84.9496 205.096 84.9499C205.478 84.9499 205.551 84.6446 205.465 83.393C205.384 82.2143 205.254 81.8764 204.932 82.0011C204.689 82.0948 204.293 81.839 204.013 81.4077C203.408 80.4771 202.483 80.4234 202.206 81.3024C201.976 82.0324 202.529 82.5721 203.315 82.3838C203.678 82.2972 203.795 82.4855 203.773 83.1175C203.756 83.585 203.651 83.9109 203.538 83.8417C203.426 83.7723 203.099 83.9523 202.811 84.2419C202.474 84.5822 202.411 84.8098 202.634 84.8848C202.825 84.9486 202.98 85.4038 202.98 85.8965C202.98 86.4858 203.136 86.7924 203.435 86.7924C203.974 86.7924 203.899 88.4469 203.333 89.0163C202.862 89.4914 202.888 89.8898 203.465 91.0569C203.733 91.5959 203.874 92.239 203.78 92.4859C203.686 92.7329 203.736 92.935 203.89 92.935C204.044 92.935 204.143 93.763 204.109 94.775C204.075 95.787 203.944 96.6162 203.819 96.6178C203.457 96.6221 203.779 99.1227 204.173 99.3684C204.369 99.4904 204.592 100.408 204.668 101.407C204.744 102.406 204.952 103.272 205.129 103.331C205.306 103.391 205.206 103.62 204.906 103.841C204.406 104.21 204.4 104.29 204.843 104.809C205.109 105.119 205.418 105.632 205.53 105.948C205.694 106.412 205.615 106.492 205.119 106.361C204.601 106.224 204.505 106.348 204.505 107.146C204.505 107.837 204.77 108.316 205.484 108.917C206.401 109.688 206.431 109.773 205.952 110.256C205.557 110.654 205.449 111.281 205.482 112.987C205.509 114.399 205.374 115.444 205.108 115.87C204.763 116.424 204.759 116.688 205.087 117.406C205.689 118.725 205.764 121.194 205.22 121.743C204.887 122.078 204.86 122.261 205.119 122.422C205.314 122.544 205.438 123.111 205.396 123.683C205.353 124.255 205.419 125.69 205.542 126.873C205.669 128.087 205.636 129.601 205.467 130.353C205.238 131.374 205.277 132.004 205.635 133.065C205.981 134.085 206.013 134.536 205.761 134.79C205.252 135.304 205.334 137.148 205.877 137.358C206.468 137.587 206.468 138.083 205.877 138.083C205.281 138.083 205.298 138.361 205.939 139.074C206.376 139.56 206.397 139.754 206.071 140.28C205.746 140.803 205.765 140.998 206.183 141.463C206.649 141.982 206.643 142.033 206.084 142.212C205.452 142.414 204.944 143.611 205.49 143.611C205.666 143.611 205.996 143.37 206.225 143.074C206.611 142.575 206.626 142.58 206.441 143.151C206.331 143.489 206.033 144.009 205.779 144.307C205.274 144.899 205.202 146.474 205.557 149.172C205.746 150.613 205.703 150.925 205.29 151.085C204.882 151.242 204.86 151.38 205.165 151.872C205.458 152.345 205.452 152.569 205.135 152.954C204.803 153.357 204.806 153.44 205.156 153.44C205.388 153.44 205.757 153.729 205.977 154.083C206.313 154.626 206.3 154.811 205.897 155.259C205.406 155.806 205.253 157.647 205.652 158.207C205.776 158.38 206.242 158.756 206.689 159.042C207.25 159.401 207.454 159.746 207.348 160.155C207.263 160.481 207.369 161.073 207.583 161.471C207.798 161.868 207.936 162.653 207.89 163.215C207.816 164.128 207.883 164.226 208.519 164.136C209.042 164.062 209.219 164.178 209.188 164.573C209.161 164.91 209.36 165.111 209.721 165.111C210.038 165.111 210.297 165.249 210.297 165.418C210.297 165.587 210.449 165.725 210.635 165.725C210.821 165.725 210.887 165.501 210.783 165.227C210.639 164.851 210.735 164.767 211.174 164.882C211.493 164.967 211.933 164.924 212.152 164.788C212.414 164.625 212.663 164.769 212.881 165.209C213.139 165.73 213.469 165.872 214.374 165.851C215.016 165.836 215.658 165.63 215.809 165.39C215.959 165.152 216.083 165.078 216.086 165.225C216.088 165.372 216.262 165.35 216.471 165.175C217.044 164.698 218.606 165.081 218.39 165.647C218.242 166.036 218.525 166.074 220.278 165.904C221.412 165.794 222.78 165.708 223.317 165.713C223.854 165.718 224.403 165.55 224.537 165.34C224.67 165.129 225.466 164.936 226.304 164.911C227.142 164.886 228.754 164.839 229.886 164.807C231.018 164.776 231.944 164.623 231.944 164.469C231.944 164.089 233.081 164.112 233.317 164.497C233.522 164.831 235.849 164.579 236.376 164.165C236.549 164.029 236.892 164.045 237.138 164.202C237.384 164.359 237.784 164.489 238.027 164.492C238.371 164.495 238.388 164.414 238.103 164.128C237.902 163.925 237.737 163.658 237.737 163.534C237.737 163.299 238.782 163.373 239.567 163.663C240.66 164.068 241.701 164.092 241.701 163.713C241.701 163.26 245.305 162.944 245.45 163.385C245.549 163.687 246.752 163.728 248.485 163.487C249.114 163.4 249.628 163.448 249.628 163.592C249.628 163.99 251.863 163.732 251.999 163.319C252.144 162.883 253.287 162.837 253.287 163.268C253.287 163.619 254.295 163.686 254.621 163.356C254.741 163.236 254.524 162.894 254.139 162.596C253.754 162.297 253.611 162.05 253.82 162.046C254.03 162.042 254.201 161.763 254.201 161.425C254.201 160.221 254.744 160.706 255.232 162.346C255.426 163 255.932 163.268 256.971 163.268C258.174 163.268 258.179 163.263 258.06 162.181C257.983 161.473 258.06 161.135 258.282 161.21C258.469 161.273 258.791 161.106 258.997 160.838C259.315 160.424 259.416 160.416 259.655 160.783C259.811 161.021 259.863 161.413 259.771 161.653C259.634 162.013 259.558 162.018 259.347 161.681C259.203 161.452 259.087 161.42 259.084 161.608C259.077 162.119 260.214 163.064 260.348 162.658C260.426 162.423 260.811 162.465 261.59 162.793C263.245 163.49 263.763 163.434 263.323 162.607C263.02 162.037 263.043 161.974 263.49 162.146C263.774 162.256 264.134 162.346 264.288 162.346C264.442 162.346 264.567 162.536 264.567 162.768C264.567 163.101 265.097 163.166 267.083 163.075C270.275 162.929 270.481 162.906 270.665 162.684C270.749 162.583 271.14 162.318 271.533 162.095C272.315 161.652 272.909 161.894 272.181 162.358C271.844 162.573 271.954 162.645 272.622 162.649C273.111 162.651 273.424 162.566 273.318 162.46C273.213 162.353 273.27 161.994 273.446 161.662C273.763 161.065 273.773 161.065 274.347 161.686C274.809 162.186 275.184 162.282 276.197 162.159C277.05 162.055 277.556 162.137 277.734 162.406C277.9 162.655 277.927 162.488 277.807 161.964L277.612 161.122L278.755 161.603C279.384 161.868 280.222 162.002 280.617 161.902C281.013 161.802 281.337 161.827 281.337 161.957C281.337 162.087 281.883 162.231 282.549 162.276C283.523 162.344 283.727 162.269 283.586 161.899C283.44 161.517 283.77 161.434 285.498 161.42C288.954 161.392 289.521 161.299 289.962 160.693C290.369 160.131 290.403 160.135 291.039 160.824C291.745 161.587 292.35 161.443 291.709 160.665C291.445 160.345 291.431 160.197 291.665 160.197C291.853 160.197 292.007 160.349 292.007 160.537C292.007 160.724 292.228 160.791 292.498 160.687C292.83 160.558 292.939 160.631 292.833 160.908C292.702 161.252 292.934 161.252 294.238 160.912C295.096 160.687 296.318 160.504 296.952 160.504C297.743 160.504 298.105 160.367 298.105 160.068C298.105 159.829 297.933 159.572 297.724 159.496C297.515 159.42 298.097 159.332 299.02 159.3C301.223 159.224 302.016 159.124 302.245 158.893C302.348 158.789 302.607 158.77 302.819 158.853C303.886 159.265 307.945 155.888 307.835 154.68C307.75 153.761 307.87 153.593 308.644 153.548C309.664 153.488 309.741 153.388 309.817 152.001C309.852 151.356 310.078 150.514 310.319 150.128C310.703 149.516 310.701 149.387 310.301 149.101C309.901 148.816 309.904 148.794 310.323 148.927C310.589 149.011 310.962 148.82 311.163 148.495C311.459 148.019 311.441 147.911 311.065 147.911C310.78 147.911 310.605 147.624 310.605 147.153C310.605 146.607 310.733 146.444 311.06 146.571C311.664 146.804 311.957 145.97 311.545 145.194C311.158 144.466 311.409 143.611 312.01 143.611C312.309 143.611 312.435 143.212 312.435 142.267C312.435 141.447 312.613 140.774 312.892 140.54C313.676 139.885 313.391 136.547 312.552 136.547C312.294 136.547 312.132 136.219 312.134 135.703C312.138 135.041 312.204 134.958 312.439 135.319C312.706 135.728 312.773 135.728 313.037 135.319C313.264 134.967 313.185 134.834 312.703 134.756C312.22 134.678 312.113 134.498 312.249 133.988C312.347 133.622 312.428 133.202 312.431 133.055C312.433 132.907 312.633 132.952 312.875 133.155C313.229 133.45 313.393 133.398 313.711 132.885C313.928 132.535 314.305 132.248 314.548 132.248C314.871 132.248 314.835 132.133 314.416 131.824C313.876 131.427 313.872 131.37 314.358 130.881C314.952 130.283 315.041 129.284 314.517 129.108C313.907 128.903 314.008 127.7 314.649 127.531C315.086 127.416 315.182 127.213 315.028 126.726C314.914 126.363 314.986 125.878 315.191 125.629C315.481 125.277 315.46 124.977 315.093 124.212C314.535 123.053 314.73 122.31 315.534 122.522C316.057 122.66 316.105 122.499 316.054 120.781C316.017 119.501 315.85 118.778 315.539 118.548C315.003 118.152 315.285 117.038 315.834 117.38C316.272 117.653 315.929 114.146 315.472 113.686C315.012 113.222 315.128 112.591 315.675 112.591C316.101 112.591 316.143 112.333 315.97 110.795C315.81 109.362 315.865 108.917 316.245 108.599C316.673 108.242 316.658 108.141 316.103 107.62C315.266 106.835 315.269 105.527 316.107 105.527C316.655 105.527 316.707 105.396 316.531 104.452C316.4 103.748 316.447 103.377 316.669 103.377C317.11 103.377 317.11 101.942 316.669 101.667C316.483 101.551 316.211 101.646 316.064 101.879C315.744 102.388 315.758 102.46 315.718 100.076C315.7 98.9986 315.55 98.1562 315.375 98.1562C315.204 98.1562 315.457 97.7431 315.937 97.2385C316.737 96.3982 316.776 96.256 316.4 95.5493C316.175 95.1248 315.88 94.7777 315.745 94.7777C315.609 94.7777 315.629 94.4334 315.788 94.0127C316.081 93.2344 315.907 92.321 315.4 91.9773C315.246 91.8729 315.473 91.2252 315.904 90.5378L316.686 89.2884L315.857 88.6603C315.23 88.1864 315.123 87.968 315.422 87.7693C315.739 87.5583 315.723 87.4272 315.346 87.1115C314.759 86.6213 314.743 86.0559 315.302 85.5887C315.63 85.3141 315.766 85.323 315.887 85.6277C315.974 85.8461 316.056 85.7091 316.069 85.324C316.082 84.9385 315.891 84.5451 315.644 84.4496C315.065 84.2257 314.692 82.2425 315.104 81.5776C315.45 81.0204 315.263 79.4212 314.852 79.4212C314.712 79.4212 314.507 78.9031 314.397 78.2695C314.287 77.6362 313.966 76.7031 313.684 76.1963C313.402 75.6896 312.926 74.6186 312.626 73.8161C312.325 73.0139 311.954 72.3572 311.8 72.3572C311.646 72.3572 311.52 72.1499 311.52 71.8965C311.52 71.6431 311.379 71.4358 311.206 71.4358C311.033 71.4358 310.801 71.1978 310.69 70.9073C310.579 70.6164 310.137 70.0276 309.708 69.5986C309.28 69.1698 308.75 68.4708 308.532 68.0457C308.314 67.6203 307.528 66.8614 306.786 66.3596C306.043 65.8574 305.433 65.343 305.429 65.2164C305.425 65.0899 305.208 64.9861 304.947 64.9861C304.686 64.9861 304.552 64.8549 304.651 64.6943C304.749 64.534 304.57 64.2625 304.251 64.0908C303.627 63.7542 303.281 63.9136 303.412 64.4787C303.456 64.6731 303.435 64.7287 303.365 64.6022C303.295 64.4756 303.049 64.3718 302.82 64.3718C302.078 64.3718 300.849 63.671 300.849 63.2474C300.849 63.0214 300.655 62.8362 300.417 62.8362C300.18 62.8362 299.915 62.6636 299.83 62.4523C299.709 62.1503 299.616 62.1547 299.394 62.4716C299.172 62.7898 298.926 62.7167 298.228 62.1252C297.741 61.7127 297.206 61.3408 297.038 61.2987C296.87 61.2566 296.596 61.1807 296.428 61.1298C296.26 61.0788 295.78 61.0619 295.361 61.092C294.789 61.1331 294.621 61.013 294.688 60.6095C294.742 60.2907 294.586 60.072 294.307 60.072C294.049 60.072 293.837 60.22 293.837 60.4009C293.837 60.5821 293.631 60.5229 293.379 60.2695C293.128 60.0161 292.922 59.6595 292.922 59.4771C292.922 59.2569 292.704 59.2753 292.272 59.5321C291.753 59.8407 291.595 59.8413 291.485 59.5345C291.409 59.3235 291.084 59.1506 290.762 59.1506C290.441 59.1506 290.178 58.9433 290.178 58.6899C290.178 58.3696 289.858 58.2292 289.129 58.2292C287.975 58.2292 287.423 58.7446 288.081 59.2083C288.426 59.4513 288.419 59.4808 288.044 59.3714C287.792 59.298 287.606 59.0112 287.629 58.7335C287.652 58.4562 287.515 58.22 287.324 58.2086C287.133 58.197 286.523 58.1282 285.968 58.0557C285.414 57.9829 285.029 58.0363 285.114 58.1742C285.198 58.3121 284.863 58.3653 284.369 58.2925C283.691 58.1921 283.47 58.2811 283.47 58.6552C283.47 59.0714 283.373 59.0526 282.861 58.5363C282.525 58.1985 282.251 57.7998 282.251 57.6509C282.251 57.5016 281.973 57.3063 281.634 57.2169C280.821 57.0028 280.562 57.017 280.629 57.2728C280.658 57.3886 280.418 57.4832 280.095 57.4832C279.772 57.4832 279.507 57.3057 279.507 57.0885C279.507 56.8714 279.37 56.6936 279.202 56.6936C279.034 56.6936 278.897 56.8926 278.897 57.1361C278.897 57.3797 278.754 57.6675 278.58 57.7762C278.377 57.9024 278.329 57.7074 278.447 57.2341C278.568 56.7498 278.464 56.3542 278.146 56.0882C277.733 55.7433 277.546 55.7897 276.907 56.395L276.153 57.1079V56.4399C276.153 55.9804 275.966 55.7722 275.553 55.7722C275.195 55.7722 275.012 55.6158 275.1 55.3846C275.28 54.9134 272.14 54.8938 271.014 55.3594C270.068 55.7504 268.531 55.509 268.531 54.9696C268.531 54.7353 268.268 54.5436 267.946 54.5436C267.625 54.5436 267.317 54.4269 267.26 54.2841C267.205 54.1416 266.653 53.9444 266.034 53.8458C265.142 53.704 264.881 53.7734 264.773 54.1822C264.648 54.6604 264.636 54.6601 264.603 54.1775C264.572 53.7239 264.297 53.6809 262.433 53.8382C261.19 53.9432 260.299 53.899 260.299 53.7322C260.299 53.567 259.511 53.5218 258.435 53.6256C257.307 53.7344 256.314 53.6705 255.919 53.4641C255.07 53.0203 251.727 52.9785 251.205 53.4054C250.909 53.6481 250.718 53.6186 250.49 53.2955C250.236 52.9337 250.209 52.9463 250.342 53.367C250.432 53.649 250.259 54.1647 249.959 54.5132C249.313 55.2633 248.899 55.0354 249.41 54.211C249.681 53.7734 249.68 53.5516 249.404 53.2743C248.977 52.8434 248.103 53.4177 248.103 54.1303C248.103 54.3683 247.89 54.6456 247.629 54.7464C247.367 54.8474 247.226 55.1195 247.314 55.3511C247.402 55.5827 247.337 55.7722 247.169 55.7722C246.849 55.7722 246.921 54.4039 247.258 54.0645C247.364 53.957 247.378 53.6754 247.288 53.4386C247.088 52.9146 244.445 52.8305 244.445 53.348C244.445 53.535 244.243 53.61 243.996 53.5145C243.75 53.4192 243.363 53.5277 243.137 53.7552C242.855 54.039 242.564 54.0783 242.213 53.8806C241.893 53.7 241.701 53.7003 241.701 53.8812C241.701 54.0406 241.49 54.2525 241.231 54.3523C240.905 54.4785 240.789 54.3713 240.85 54.0013C240.909 53.6487 240.766 53.4973 240.428 53.5538C240.147 53.6005 239.83 53.4966 239.724 53.3234C239.436 52.8535 238.171 52.9426 237.742 53.4629C237.46 53.8047 236.903 53.8836 235.495 53.7807C233.508 53.6361 232.409 53.4509 231.992 53.1914C231.852 53.1038 231.612 53.1566 231.46 53.3084ZM215.384 56.137C215.287 56.3818 215.214 56.309 215.2 55.9512C215.187 55.6275 215.259 55.4463 215.36 55.5483C215.461 55.6502 215.472 55.9153 215.384 56.137ZM250.847 55.7722C250.847 55.9411 250.787 56.0793 250.713 56.0793C250.639 56.0793 250.494 55.9411 250.39 55.7722C250.286 55.6032 250.347 55.465 250.525 55.465C250.702 55.465 250.847 55.6032 250.847 55.7722ZM252.372 58.0975C252.372 58.834 252.337 58.8527 251.865 58.3769C251.437 57.9454 251.425 57.8238 251.789 57.5919C252.379 57.2154 252.372 57.2092 252.372 58.0975ZM244.902 58.8435C245.006 59.0124 244.869 59.1506 244.597 59.1506C244.326 59.1506 244.189 59.0124 244.292 58.8435C244.396 58.6746 244.533 58.5363 244.597 58.5363C244.661 58.5363 244.799 58.6746 244.902 58.8435ZM289.486 59.029C289.384 59.1309 289.121 59.142 288.901 59.0532C288.658 58.9553 288.73 58.8825 289.086 58.8677C289.407 58.8545 289.587 58.927 289.486 59.029ZM258.387 59.9504C258.286 60.0523 258.023 60.0634 257.803 59.9746C257.56 59.8767 257.632 59.8039 257.987 59.7891C258.308 59.7759 258.488 59.8484 258.387 59.9504ZM267.311 60.3791C267.311 60.5481 267.251 60.6863 267.177 60.6863C267.103 60.6863 266.958 60.5481 266.854 60.3791C266.75 60.2102 266.811 60.072 266.989 60.072C267.166 60.072 267.311 60.2102 267.311 60.3791ZM276.915 62.529C276.812 62.698 276.59 62.8362 276.422 62.8362C276.254 62.8362 276.202 62.698 276.306 62.529C276.409 62.3601 276.631 62.2219 276.799 62.2219C276.967 62.2219 277.019 62.3601 276.915 62.529ZM201.046 71.6023C201.245 72.1266 201.808 72.0621 201.996 71.4936C202.063 71.2909 201.838 71.1287 201.491 71.1287C201.052 71.1287 200.919 71.2703 201.046 71.6023ZM201.769 73.5738C201.523 73.731 201.392 73.9306 201.478 74.0176C201.714 74.2556 202.98 73.8615 202.98 73.5498C202.98 73.1975 202.34 73.2101 201.769 73.5738ZM201.684 74.8398C201.061 75.5274 201.006 75.943 201.515 76.1137C201.726 76.1847 201.905 76.9368 201.942 77.9052C201.977 78.8235 202.019 79.7477 202.035 79.9587C202.052 80.17 202.408 80.3426 202.828 80.3426C203.395 80.3426 203.59 80.1801 203.59 79.7081C203.59 79.3592 203.732 78.8063 203.905 78.4796C204.123 78.0702 204.123 77.8856 203.905 77.8856C203.732 77.8856 203.59 78.0238 203.59 78.1927C203.59 78.7796 203.05 78.4958 202.874 77.8162C202.77 77.416 202.925 76.7424 203.247 76.1924C203.689 75.4371 203.722 75.1807 203.411 74.8886C203.113 74.6085 202.99 74.6109 202.874 74.9C202.788 75.1134 202.713 75.0434 202.699 74.7375C202.669 74.0593 202.364 74.09 201.684 74.8398ZM204.245 79.9916C203.955 80.5085 203.932 80.8104 204.166 81.0462C204.634 81.5177 204.872 81.1525 204.754 80.1402L204.653 79.2677L204.245 79.9916ZM314.26 82.2803C314.262 82.417 314.127 82.4434 313.959 82.339C313.792 82.2345 313.656 81.9154 313.659 81.6298C313.663 81.1823 313.705 81.174 313.959 81.5711C314.122 81.8245 314.257 82.1436 314.26 82.2803ZM313.045 86.0064C313.045 86.081 312.907 86.2272 312.74 86.3317C312.572 86.4361 312.435 86.375 312.435 86.1962C312.435 86.0175 312.572 85.871 312.74 85.871C312.907 85.871 313.045 85.9318 313.045 86.0064ZM308.471 89.5445C308.471 90.6057 308.629 90.7159 309.038 89.9404C309.233 89.5691 309.19 89.2804 308.896 89.0071C308.54 88.6748 308.471 88.7617 308.471 89.5445ZM202.98 92.0136C202.98 92.1825 203.117 92.3207 203.285 92.3207C203.453 92.3207 203.59 92.1825 203.59 92.0136C203.59 91.8446 203.453 91.7064 203.285 91.7064C203.117 91.7064 202.98 91.8446 202.98 92.0136ZM206.198 96.552C205.944 96.8085 205.42 96.267 205.429 95.7578C205.437 95.3017 205.493 95.3106 205.883 95.8303C206.127 96.1558 206.27 96.4805 206.198 96.552ZM209.286 112.342C209.189 112.587 209.117 112.514 209.102 112.156C209.089 111.832 209.161 111.651 209.262 111.753C209.363 111.855 209.374 112.12 209.286 112.342ZM206.372 115.13C206.07 115.431 206.036 115.396 206.201 114.958C206.316 114.656 206.486 114.485 206.58 114.58C206.674 114.674 206.58 114.922 206.372 115.13ZM210.811 130.155C210.713 130.4 210.641 130.327 210.626 129.97C210.613 129.646 210.685 129.465 210.786 129.567C210.888 129.669 210.899 129.934 210.811 130.155ZM310.91 133.169C310.91 133.338 310.85 133.476 310.776 133.476C310.702 133.476 310.557 133.338 310.453 133.169C310.349 133 310.41 132.862 310.587 132.862C310.765 132.862 310.91 133 310.91 133.169ZM312.892 134.09C312.996 134.259 313.141 134.398 313.215 134.398C313.289 134.398 313.349 134.259 313.349 134.09C313.349 133.922 313.204 133.783 313.027 133.783C312.849 133.783 312.788 133.922 312.892 134.09ZM209.683 137.666C209.685 137.86 209.508 138.087 209.288 138.172C208.996 138.285 208.924 138.077 209.022 137.406C209.117 136.75 209.231 136.604 209.417 136.9C209.561 137.129 209.68 137.473 209.683 137.666ZM309.887 144.072C310.279 144.467 310.281 144.533 309.902 144.533C309.659 144.533 309.29 144.326 309.081 144.072C308.794 143.724 308.79 143.611 309.065 143.611C309.266 143.611 309.635 143.819 309.887 144.072ZM311.215 145.147C311.215 145.316 311.078 145.454 310.91 145.454C310.743 145.454 310.605 145.316 310.605 145.147C310.605 144.978 310.743 144.84 310.91 144.84C311.078 144.84 311.215 144.978 311.215 145.147ZM289.568 152.825C289.568 152.994 289.705 153.133 289.873 153.133C290.041 153.133 290.178 152.994 290.178 152.825C290.178 152.656 290.041 152.518 289.873 152.518C289.705 152.518 289.568 152.656 289.568 152.825ZM286.824 154.668C286.824 155.009 286.621 155.282 286.367 155.282C286.113 155.282 285.91 155.009 285.91 154.668C285.91 154.327 286.113 154.054 286.367 154.054C286.621 154.054 286.824 154.327 286.824 154.668ZM284.995 155.59C284.995 155.972 284.793 156.202 284.461 156.199C284.005 156.195 283.994 156.151 284.385 155.892C284.792 155.623 284.792 155.556 284.385 155.287C283.994 155.028 284.005 154.984 284.461 154.98C284.793 154.977 284.995 155.208 284.995 155.59ZM264.567 156.511C264.567 156.68 264.507 156.818 264.433 156.818C264.359 156.818 264.214 156.68 264.11 156.511C264.006 156.342 264.067 156.204 264.245 156.204C264.422 156.204 264.567 156.342 264.567 156.511ZM302.373 156.511C302.373 156.68 302.236 156.818 302.069 156.818C301.901 156.818 301.764 156.68 301.764 156.511C301.764 156.342 301.901 156.204 302.069 156.204C302.236 156.204 302.373 156.342 302.373 156.511ZM278.794 158.431C278.71 158.642 278.64 158.469 278.64 158.047C278.64 157.624 278.71 157.452 278.794 157.663C278.879 157.874 278.879 158.22 278.794 158.431ZM256.316 159.404C256.611 159.763 256.563 159.811 256.048 159.676C255.703 159.585 255.421 159.388 255.421 159.239C255.421 158.825 255.913 158.916 256.316 159.404ZM297.038 159.275C297.142 159.444 297.081 159.582 296.904 159.582C296.726 159.582 296.581 159.444 296.581 159.275C296.581 159.106 296.641 158.968 296.715 158.968C296.789 158.968 296.934 159.106 297.038 159.275ZM275.344 160.056C275.244 160.317 275.098 160.464 275.018 160.384C274.938 160.303 274.963 160.09 275.074 159.91C275.374 159.42 275.55 159.515 275.344 160.056ZM284.614 160.408C284.32 160.486 284.08 160.7 284.08 160.885C284.08 161.069 283.998 161.137 283.897 161.036C283.593 160.729 284.082 160.194 284.632 160.232C285.097 160.264 285.095 160.282 284.614 160.408ZM261.93 160.955C262.109 161.423 261.615 161.932 261.295 161.609C261.194 161.508 261.289 161.425 261.505 161.425C261.82 161.425 261.823 161.333 261.519 160.964C261.3 160.699 261.27 160.504 261.449 160.504C261.619 160.504 261.836 160.707 261.93 160.955ZM243.186 161.394C243.416 161.541 243.553 161.795 243.491 161.959C243.429 162.123 243.114 162.001 242.791 161.688C242.189 161.103 242.439 160.917 243.186 161.394ZM252.677 161.886C252.988 162.263 252.967 162.346 252.562 162.346C252.29 162.346 252.067 162.139 252.067 161.886C252.067 161.632 252.119 161.425 252.182 161.425C252.245 161.425 252.468 161.632 252.677 161.886ZM283.166 161.732C283.166 161.901 282.96 162.039 282.708 162.039C282.457 162.039 282.251 161.901 282.251 161.732C282.251 161.563 282.457 161.425 282.708 161.425C282.96 161.425 283.166 161.563 283.166 161.732ZM266.397 162.039C266.397 162.208 266.251 162.346 266.074 162.346C265.896 162.346 265.836 162.208 265.939 162.039C266.043 161.87 266.188 161.732 266.262 161.732C266.336 161.732 266.397 161.87 266.397 162.039Z" fill="#B6A5FC"/>
<path fill-rule="evenodd" clip-rule="evenodd" d="M43.4597 53.3084C43.2173 53.5498 37.9964 53.9678 35.1789 53.9718C34.6341 53.9724 34.188 54.0931 34.188 54.2402C34.188 54.387 33.056 54.5013 31.6727 54.4942C28.2814 54.4764 26.7896 54.7184 25.2612 55.5341C24.5533 55.9119 23.7685 56.2378 23.517 56.2584C23.2654 56.2786 22.8374 56.3161 22.566 56.341C22.187 56.376 22.0642 56.7479 22.0373 57.9411C22.0056 59.3601 22.0556 59.4789 22.609 59.302C23.009 59.1743 23.2773 59.2713 23.3981 59.5883C23.4987 59.8524 23.7124 59.9866 23.8731 59.8865C24.0337 59.7867 24.4392 59.9547 24.7743 60.26C25.2969 60.7366 25.4234 60.7517 25.664 60.3668C25.8963 59.9955 26.0637 60.0551 26.6363 60.713C27.2756 61.4476 27.3976 61.4777 28.2427 61.111C29.3187 60.6439 30.3239 60.5348 29.6629 60.9568C29.3681 61.1451 29.4955 61.2658 30.1202 61.3893C30.5968 61.4833 31.1062 61.4436 31.2526 61.3008C31.3986 61.1583 31.7129 61.1165 31.9511 61.2087C32.1889 61.3005 32.3617 61.2554 32.3349 61.1079C32.2163 60.4528 32.3932 60.072 32.816 60.072C33.0676 60.072 33.2734 60.2876 33.2734 60.5508C33.2734 60.814 33.4145 60.9418 33.5868 60.8346C33.7591 60.7271 34.1618 60.9608 34.4816 61.354C35.039 62.0389 35.0804 62.045 35.4801 61.5032C35.8585 60.99 35.9341 60.9829 36.2994 61.4264C36.5207 61.6949 36.9595 61.9148 37.2741 61.9148C37.9122 61.9148 38.0613 61.1248 37.4656 60.9022C37.2552 60.8235 37.4811 60.6009 37.9689 60.4055C39.0617 59.9688 39.8178 60.1844 38.7613 60.6319C38.0089 60.9504 38.008 60.9547 38.6958 60.974C39.079 60.9845 39.7099 61.2029 40.0974 61.4587C40.7404 61.8831 40.869 61.8706 41.5703 61.315C41.9925 60.9802 42.4328 60.8014 42.548 60.9178C42.6636 61.0339 42.8856 60.9258 43.0417 60.6774C43.2786 60.3002 43.3261 60.3159 43.3301 60.7726C43.3359 61.4532 44.1216 61.7898 44.6582 61.3411C44.924 61.1187 45.3829 61.0993 46.0219 61.2842C46.6503 61.4658 47.0528 61.4519 47.1799 61.2452C47.308 61.0361 47.4525 61.0548 47.6028 61.3002C47.775 61.5809 48.0278 61.5425 48.6318 61.1439C49.072 60.8533 49.4324 60.4851 49.4324 60.3257C49.4324 60.1663 49.5763 60.1254 49.7522 60.2348C49.9705 60.3708 49.959 60.5708 49.7147 60.8672C49.4324 61.2099 49.4611 61.3005 49.8526 61.3005C50.1245 61.3005 50.3471 61.4255 50.3471 61.5785C50.3471 61.9839 52.8575 61.5797 53.3368 61.0969C53.8874 60.5422 54.0249 60.5803 53.792 61.2237C53.621 61.6961 53.6868 61.6872 54.335 61.1503C54.7408 60.8143 54.971 60.6632 54.8469 60.8149C54.4731 61.2707 55.2417 61.9148 56.1592 61.9148C57.0397 61.9148 57.7513 61.2784 57.1113 61.0637C56.8677 60.9817 56.9107 60.7873 57.247 60.4485C57.6994 59.9928 57.769 59.9949 58.1162 60.4734C58.3239 60.7594 58.776 60.9934 59.1208 60.9934C59.4657 60.9934 59.8016 61.1559 59.8672 61.3543C60.0139 61.7972 63.1639 61.7784 63.4374 61.3331C63.5563 61.1393 63.7917 61.1316 64.075 61.3119C64.6731 61.693 66.1174 61.6857 66.3537 61.3005C66.6424 60.83 68.2132 60.9356 68.6403 61.4541C69.1276 62.0456 69.8526 62.0395 70.7066 61.4366C71.0794 61.1737 71.3843 61.1003 71.3843 61.2735C71.3843 61.4467 71.5901 61.5088 71.8417 61.4117C72.1081 61.3085 72.303 61.4089 72.3088 61.6516C72.3161 61.9639 72.4115 61.9452 72.6899 61.5772C73.0451 61.1076 73.2396 60.9992 73.7472 60.9888C73.8731 60.986 73.7701 60.8478 73.5185 60.6817C73.138 60.4298 73.131 60.3337 73.4768 60.1092C73.8277 59.8813 73.8277 59.8162 73.4768 59.6905C73.2481 59.6088 73.1716 59.4233 73.3063 59.2784C73.6051 58.9574 74.1173 59.709 74.1237 60.4777C74.1262 60.7855 74.3244 61.2348 74.564 61.4759C75.1195 62.0358 75.9912 62.0527 75.7802 61.4995C75.6467 61.1485 76.8071 60.072 77.319 60.072C77.762 60.072 77.4043 60.635 76.8723 60.7753C76.0592 60.9894 76.0985 61.565 76.9485 61.8887C77.7833 62.2062 78.123 62.0465 77.8934 61.4443C77.6016 60.678 78.9651 60.9166 79.7495 61.7692L80.4633 62.5453L81.2203 61.639L81.9771 60.7329L82.3618 61.4572C82.8466 62.3693 83.9021 62.7962 85.9427 62.9047C86.8229 62.9513 87.5434 63.1092 87.5434 63.2548C87.5434 63.4007 87.9891 63.4532 88.5343 63.3718C89.0794 63.2901 90.1316 63.4062 90.8731 63.6298C91.6142 63.8531 92.3347 63.9652 92.4737 63.8786C92.6127 63.7923 92.7265 63.8605 92.7265 64.0303C92.7265 64.319 93.3478 64.3829 96.6138 64.4302C97.3263 64.4406 97.9096 64.5699 97.9096 64.7177C97.9096 64.8654 98.0986 64.9861 98.3297 64.9861C98.5605 64.9861 98.9087 65.1793 99.1029 65.4151C99.2974 65.651 99.7102 65.7773 100.021 65.6956C100.331 65.6139 100.677 65.6971 100.79 65.8808C100.902 66.0644 101.805 66.2146 102.795 66.2146C104.349 66.2146 104.734 66.3372 105.607 67.1087C106.535 67.9293 106.799 68 108.819 67.9686C110.124 67.9484 111.023 67.8034 111.029 67.6121C111.042 67.1759 111.671 68.2927 111.773 68.9309C111.817 69.2107 112.077 69.4201 112.351 69.3968C112.685 69.3682 112.849 69.5964 112.849 70.0878C112.849 70.9417 113.648 71.0968 113.859 70.2841C113.991 69.7721 114 69.7721 114.033 70.2841C114.06 70.6883 114.337 70.8216 115.151 70.8216C116.1 70.8216 116.289 70.9542 116.68 71.8965C116.925 72.4877 117.33 72.9715 117.579 72.9715C117.828 72.9715 118.032 73.0885 118.032 73.2316C118.032 73.3747 118.307 73.8106 118.642 74.2C119.372 75.0483 119.391 75.2369 118.794 75.7357C118.304 76.1457 118.17 76.9642 118.594 76.9642C119.021 76.9642 119.677 79.5342 119.284 79.6663C118.71 79.8589 118.913 80.3426 119.567 80.3426C120.06 80.3426 120.131 80.4538 119.913 80.8801C119.569 81.5542 119.778 82.1854 120.344 82.1854C121.004 82.1854 120.876 83.8421 120.166 84.4889C119.343 85.2392 119.36 85.9944 120.194 85.7745C120.807 85.6133 120.811 85.6305 120.3 86.1996C119.814 86.7398 119.812 86.7924 120.272 86.7924C120.59 86.7924 120.779 87.0479 120.783 87.4834C120.787 87.8636 121.058 88.52 121.386 88.9423C122.077 89.8326 122.154 90.3732 121.615 90.5559C121.311 90.6588 121.312 90.7811 121.62 91.157C121.832 91.4162 121.921 91.8523 121.817 92.1257C121.701 92.4303 121.817 92.6957 122.116 92.8118C122.833 93.0888 122.713 93.8563 121.953 93.8563C121.355 93.8563 120.504 94.6104 120.481 95.1617C120.476 95.2882 120.746 95.392 121.081 95.392C121.487 95.392 121.691 95.5969 121.691 96.0063C121.691 96.3475 121.894 96.6205 122.148 96.6205C122.4 96.6205 122.601 96.7243 122.595 96.8509C122.576 97.2606 121.746 98.6193 121.563 98.5401C120.715 98.1721 120.484 99.0653 121.26 99.7142C121.695 100.078 121.677 100.144 121.088 100.364C120.727 100.498 120.518 100.747 120.622 100.918C120.727 101.088 120.705 101.4 120.573 101.611C120.2 102.213 120.268 102.866 120.771 103.499C121.091 103.902 121.126 104.119 120.885 104.205C120.408 104.373 120.744 105.527 121.269 105.527C121.812 105.527 121.792 106.134 121.224 106.891C120.642 107.666 120.659 107.908 121.31 108.08C121.812 108.212 121.812 108.222 121.303 108.256C120.829 108.287 120.776 108.558 120.87 110.441C120.952 112.08 120.881 112.591 120.572 112.591C120.094 112.591 120.032 113.086 120.476 113.362C120.91 113.632 120.511 114.185 120.069 113.925C119.871 113.809 120.086 114.102 120.547 114.577C121.414 115.468 121.631 116.395 121.056 116.753C120.875 116.866 120.807 117.28 120.905 117.674C121.003 118.067 120.945 118.475 120.777 118.58C120.587 118.698 120.547 119.598 120.672 120.954C120.847 122.86 120.812 123.114 120.396 122.952C120.063 122.824 119.802 123.051 119.533 123.704C119.2 124.515 119.216 124.679 119.658 124.927C120.367 125.327 120.307 126.79 119.561 127.259C118.996 127.615 118.916 128.368 119.222 130.459C119.238 130.573 119.477 130.712 119.752 130.766C120.38 130.891 120.57 132.397 120.016 132.86C119.703 133.121 119.53 133.071 119.286 132.648C119.07 132.274 118.962 132.233 118.956 132.521C118.951 132.756 119.187 133.127 119.48 133.347C119.984 133.723 119.98 133.772 119.404 134.215C119.069 134.474 118.623 134.69 118.413 134.695C118.025 134.705 117.92 135.053 118.016 136.01C118.046 136.305 117.941 136.547 117.782 136.547C117.508 136.547 117.072 137.512 116.994 138.292C116.974 138.491 116.856 138.756 116.732 138.88C116.322 139.294 116.5 140.505 117.014 140.795C117.464 141.048 117.444 141.121 116.833 141.451C116.37 141.7 116.195 142.014 116.298 142.41C116.382 142.733 116.333 142.925 116.19 142.835C115.788 142.586 115.23 143.865 115.444 144.545C115.585 144.992 115.491 145.148 115.08 145.152C114.637 145.156 114.612 145.211 114.956 145.431C115.192 145.581 115.569 145.633 115.794 145.546C116.499 145.274 116.239 145.974 115.441 146.501C115.021 146.778 114.678 147.277 114.678 147.611C114.678 147.945 114.506 148.218 114.295 148.218C114.085 148.218 113.726 148.644 113.497 149.163C113.269 149.683 112.858 150.189 112.584 150.288C112.311 150.387 111.723 150.722 111.278 151.033C110.833 151.343 110.172 151.597 109.809 151.597C109.447 151.597 108.919 151.719 108.637 151.869C108.354 152.019 106.974 152.223 105.57 152.324C103.632 152.462 102.918 152.637 102.607 153.05C102.382 153.349 102.193 153.697 102.188 153.824C102.169 154.279 101.503 154.041 100.98 153.391C100.415 152.687 99.6477 152.843 99.9374 153.603C100.163 154.195 99.7694 154.177 99.0986 153.566C98.4788 153 97.2998 153.238 97.2998 153.928C97.2998 154.311 97.1949 154.306 96.5745 153.896C95.9235 153.467 95.8305 153.466 95.6693 153.889C95.4384 154.495 94.8607 154.503 94.8607 153.9C94.8607 153.269 94.053 153.319 93.6332 153.977C93.3067 154.489 93.2981 154.489 93.4561 153.977C93.5805 153.574 93.4491 153.44 92.9304 153.44C92.5499 153.44 92.1054 153.574 91.9429 153.738C91.7801 153.902 90.8593 154.084 89.8968 154.144C88.6123 154.224 88.0282 154.411 87.7022 154.844C87.4504 155.18 87.2537 155.27 87.2483 155.052C87.2428 154.841 86.9708 154.668 86.644 154.668C86.3168 154.668 85.9397 154.472 85.8055 154.233C85.597 153.861 85.4174 153.859 84.5707 154.218C84.0256 154.449 83.5798 154.852 83.5798 155.114C83.5798 155.376 83.4268 155.59 83.2393 155.59C83.049 155.59 82.9692 155.319 83.0585 154.975C83.1768 154.52 83.0676 154.361 82.6365 154.361C82.317 154.361 82.0554 154.482 82.0554 154.629C82.0554 154.777 81.6097 154.804 81.0645 154.69C80.2011 154.509 80.0279 154.583 79.7172 155.266C79.3721 156.026 79.3602 156.028 79.3361 155.359C79.3172 154.829 79.1297 154.668 78.5291 154.668C78.0989 154.668 77.4952 154.804 77.1876 154.97C76.779 155.19 76.5848 155.157 76.4662 154.845C76.3555 154.555 75.9811 154.467 75.2924 154.567C73.3454 154.853 71.5337 154.871 71.1898 154.608C70.6261 154.177 69.184 154.995 69.3538 155.648C69.5367 156.353 69.0141 156.362 68.2516 155.666C67.7742 155.231 67.1046 155.131 64.7213 155.139C63.1039 155.145 61.3688 155.191 60.8657 155.241C60.3626 155.291 58.3915 155.323 56.4857 155.312C54.5795 155.301 52.8048 155.413 52.5417 155.562C52.2542 155.724 51.7782 155.701 51.3492 155.504C50.8358 155.268 50.5398 155.273 50.2943 155.52C50.1068 155.709 49.566 155.786 49.0925 155.69C48.619 155.594 47.9872 155.629 47.6888 155.766C47.39 155.903 46.5284 156.043 45.7738 156.077C45.0192 156.11 43.4414 156.229 42.2676 156.341C41.0937 156.453 39.7724 156.536 39.3312 156.525C38.89 156.515 38.2116 156.766 37.8235 157.082C37.1454 157.636 37.0842 157.637 36.2302 157.114C35.4521 156.637 35.2219 156.621 34.3679 156.98C33.8237 157.209 33.2179 157.28 32.995 157.142C32.506 156.837 31.444 157.084 31.444 157.501C31.444 157.669 31.1282 157.726 30.7425 157.629C30.2538 157.505 29.9092 157.635 29.608 158.056C29.0995 158.767 28.5571 158.865 28.8104 158.2C28.9336 157.876 28.7845 157.738 28.3095 157.735C27.9372 157.733 27.3027 157.642 26.8994 157.533C26.468 157.417 26.239 157.455 26.3439 157.626C26.4512 157.801 25.9558 157.851 25.0957 157.751C23.909 157.614 23.6529 157.47 23.5718 156.895C23.5185 156.515 23.2825 156.204 23.048 156.204C22.7871 156.204 22.6922 156.018 22.8035 155.726C22.9038 155.462 23.181 155.323 23.4197 155.415C23.6584 155.507 23.7862 155.473 23.7039 155.339C23.6218 155.205 23.6709 154.574 23.8136 153.938C24.0106 153.057 23.9514 152.564 23.566 151.875C23.1807 151.187 23.148 150.914 23.4291 150.735C23.8697 150.455 23.5999 149.142 23.1002 149.135C22.9038 149.132 22.9404 149.012 23.1849 148.856C23.4599 148.681 23.6511 147.89 23.7145 146.665C23.7941 145.124 23.7093 144.67 23.284 144.352C22.8303 144.013 22.8118 143.862 23.1532 143.299C23.4514 142.808 23.4651 142.537 23.2084 142.225C22.9691 141.935 22.959 141.631 23.1752 141.224C23.5288 140.559 23.2999 139.312 22.8243 139.312C22.6502 139.312 22.7349 139.059 23.0124 138.75C23.6139 138.081 23.6572 137.427 23.1358 136.897C22.8307 136.586 22.8654 136.446 23.3105 136.193C23.8145 135.907 23.8225 135.829 23.3944 135.352C22.9276 134.833 22.8438 132.864 23.2883 132.863C23.6938 132.861 23.5121 129.656 23.0733 129.073C22.8124 128.726 22.7117 128.121 22.8118 127.5C22.9032 126.933 22.831 126.401 22.6474 126.287C22.4352 126.155 22.4163 125.83 22.5928 125.362C22.7425 124.965 22.8246 123.934 22.7749 123.069C22.7249 122.205 22.8041 121.498 22.9508 121.498C23.249 121.498 22.6191 120.241 22.145 119.89C21.9727 119.763 22.0724 119.663 22.3736 119.66C22.988 119.655 23.0907 119.167 22.5261 118.937C22.2947 118.843 22.3508 118.773 22.6691 118.758C23.0051 118.743 23.1301 118.569 23.0176 118.273C22.9166 118.008 23.0115 117.813 23.2404 117.813C23.5505 117.813 23.5575 117.731 23.273 117.444C23.0718 117.241 22.9072 116.827 22.9072 116.523C22.9072 116.219 22.7172 115.97 22.4855 115.97C21.9035 115.97 21.6739 114.521 22.1876 114.091C22.6895 113.671 22.7355 112.898 22.2584 112.898C22.0288 112.898 21.9785 112.496 22.1069 111.688C22.2697 110.662 22.194 110.398 21.612 109.961C21.1492 109.613 21.0995 109.504 21.459 109.626C21.8998 109.776 21.9925 109.621 21.9925 108.732C21.9925 108.14 21.7709 107.315 21.5001 106.899C21.1977 106.434 21.1388 106.142 21.3477 106.142C21.5346 106.142 21.6876 106.003 21.6876 105.834C21.6876 105.666 21.4946 105.527 21.259 105.527C20.9888 105.527 20.8858 105.313 20.9806 104.948C21.0632 104.629 20.9833 104.276 20.8025 104.164C20.5891 104.031 20.6864 103.73 21.0809 103.303C21.7014 102.633 21.891 101.842 21.4315 101.842C21.2907 101.842 20.991 101.278 20.7653 100.59C20.4352 99.5819 20.4306 99.2907 20.7422 99.0969C21.0394 98.9117 21.0172 98.8125 20.6461 98.6694C20.3806 98.5665 20.1632 98.6166 20.1632 98.78C20.1632 98.9437 19.9482 99.0776 19.6854 99.0776C19.3305 99.0776 19.2616 98.8994 19.4177 98.3865C19.5333 98.0063 19.7458 97.5465 19.8894 97.3644C20.0351 97.1801 20.0303 96.6104 19.8787 96.0775C19.729 95.552 19.6787 94.5787 19.7671 93.9147C19.8638 93.1886 19.7928 92.6232 19.5882 92.4961C19.4013 92.3797 19.2485 91.809 19.2485 91.2276C19.2485 90.6462 19.1064 90.1708 18.933 90.1708C18.7278 90.1708 18.7165 89.9828 18.9003 89.6333C19.0961 89.262 19.0522 88.9733 18.7586 88.6999C18.4092 88.3741 18.3339 88.3876 18.3339 88.7767C18.3339 89.0366 18.1281 89.2494 17.8765 89.2494C17.3094 89.2494 17.2786 88.5209 17.8259 88.0633C18.2543 87.7051 18.2717 87.0144 17.8762 86.0752C17.6851 85.621 17.4253 85.5479 16.5381 85.6984C15.5097 85.8725 15.4762 85.8541 16.0292 85.4173C16.3548 85.16 16.835 84.9496 17.0963 84.9499C17.4784 84.9499 17.5506 84.6446 17.4646 83.393C17.3835 82.2143 17.2543 81.8764 16.9317 82.0011C16.6893 82.0948 16.2933 81.839 16.0128 81.4077C15.4076 80.4771 14.4828 80.4234 14.2057 81.3024C13.9758 82.0324 14.5292 82.5721 15.3155 82.3838C15.6777 82.2972 15.7954 82.4855 15.7728 83.1175C15.756 83.585 15.6505 83.9109 15.5383 83.8417C15.4258 83.7723 15.099 83.9523 14.8115 84.2419C14.4737 84.5822 14.4112 84.8098 14.6344 84.8848C14.8246 84.9486 14.9801 85.4038 14.9801 85.8965C14.9801 86.4858 15.1356 86.7924 15.435 86.7924C15.9743 86.7924 15.8987 88.4469 15.3335 89.0163C14.8618 89.4914 14.8877 89.8898 15.4655 91.0569C15.7326 91.5959 15.874 92.239 15.7801 92.4859C15.6859 92.7329 15.7356 92.935 15.8899 92.935C16.0445 92.935 16.1432 93.763 16.1091 94.775C16.075 95.787 15.9445 96.6162 15.8192 96.6178C15.4566 96.6221 15.7786 99.1227 16.1734 99.3684C16.3695 99.4904 16.5923 100.408 16.6683 101.407C16.7445 102.406 16.9518 103.272 17.1289 103.331C17.3064 103.391 17.2061 103.62 16.9058 103.841C16.4058 104.21 16.4003 104.29 16.8433 104.809C17.1091 105.119 17.418 105.632 17.5299 105.948C17.6942 106.412 17.6152 106.492 17.1189 106.361C16.6012 106.224 16.5045 106.348 16.5045 107.146C16.5045 107.837 16.7698 108.316 17.4838 108.917C18.4009 109.688 18.4308 109.773 17.9515 110.256C17.557 110.654 17.4494 111.281 17.4823 112.987C17.5094 114.399 17.3741 115.444 17.1079 115.87C16.7628 116.424 16.7591 116.688 17.0869 117.406C17.6887 118.725 17.7643 121.194 17.2195 121.743C16.8875 122.078 16.86 122.261 17.1186 122.422C17.3137 122.544 17.4384 123.111 17.3957 123.683C17.3533 124.255 17.4192 125.69 17.5424 126.873C17.6689 128.087 17.636 129.601 17.4671 130.353C17.2378 131.374 17.2768 132.004 17.6354 133.065C17.9805 134.085 18.0134 134.536 17.761 134.79C17.2515 135.304 17.3344 137.148 17.8765 137.358C18.4683 137.587 18.4683 138.083 17.8765 138.083C17.2811 138.083 17.2985 138.361 17.9393 139.074C18.3756 139.56 18.397 139.754 18.0707 140.28C17.746 140.803 17.7646 140.998 18.1829 141.463C18.6494 141.982 18.6427 142.033 18.0842 142.212C17.4524 142.414 16.9442 143.611 17.4902 143.611C17.6659 143.611 17.9964 143.37 18.2247 143.074C18.6107 142.575 18.6259 142.58 18.4406 143.151C18.3311 143.489 18.0329 144.009 17.7787 144.307C17.2741 144.899 17.2024 146.474 17.557 149.172C17.7463 150.613 17.7027 150.925 17.2896 151.085C16.882 151.242 16.86 151.38 17.1652 151.872C17.4582 152.345 17.4518 152.569 17.1347 152.954C16.803 153.357 16.8064 153.44 17.1561 153.44C17.3878 153.44 17.757 153.729 17.9765 154.083C18.3128 154.626 18.3003 154.811 17.8973 155.259C17.4061 155.806 17.2533 157.647 17.6524 158.207C17.7756 158.38 18.2421 158.756 18.6891 159.042C19.2501 159.401 19.454 159.746 19.3476 160.155C19.2629 160.481 19.369 161.073 19.5833 161.471C19.7976 161.868 19.9357 162.653 19.8903 163.215C19.8162 164.128 19.8833 164.226 20.519 164.136C21.0425 164.062 21.219 164.178 21.1879 164.573C21.1614 164.91 21.3602 165.111 21.7215 165.111C22.0383 165.111 22.2974 165.249 22.2974 165.418C22.2974 165.587 22.4492 165.725 22.6349 165.725C22.8209 165.725 22.8874 165.501 22.7828 165.227C22.6395 164.851 22.7349 164.767 23.1737 164.882C23.4932 164.967 23.9331 164.924 24.152 164.788C24.4136 164.625 24.6627 164.769 24.8807 165.209C25.139 165.73 25.4692 165.872 26.3744 165.851C27.0162 165.836 27.6582 165.63 27.8089 165.39C27.9586 165.152 28.083 165.078 28.0857 165.225C28.0881 165.372 28.2616 165.35 28.4714 165.175C29.0443 164.698 30.6056 165.081 30.3903 165.647C30.2422 166.036 30.5248 166.074 32.2782 165.904C33.4124 165.794 34.7798 165.708 35.317 165.713C35.8539 165.718 36.4027 165.55 36.5366 165.34C36.6701 165.129 37.4656 164.936 38.304 164.911C39.1425 164.886 40.7544 164.839 41.8864 164.807C43.0185 164.776 43.9444 164.623 43.9444 164.469C43.9444 164.089 45.0808 164.112 45.3167 164.497C45.5219 164.831 47.8491 164.579 48.3757 164.165C48.5489 164.029 48.8918 164.045 49.1379 164.202C49.3836 164.359 49.7836 164.489 50.0269 164.492C50.3709 164.495 50.3876 164.414 50.1032 164.128C49.9019 163.925 49.7373 163.658 49.7373 163.534C49.7373 163.299 50.7825 163.373 51.5666 163.663C52.6597 164.068 53.7008 164.092 53.7008 163.713C53.7008 163.26 57.3049 162.944 57.4497 163.385C57.5491 163.687 58.7519 163.728 60.4846 163.487C61.1136 163.4 61.6279 163.448 61.6279 163.592C61.6279 163.99 63.8628 163.732 63.9993 163.319C64.1436 162.883 65.2866 162.837 65.2866 163.268C65.2866 163.619 66.2945 163.686 66.6214 163.356C66.7409 163.236 66.5235 162.894 66.1387 162.596C65.754 162.297 65.6107 162.05 65.8201 162.046C66.0299 162.042 66.2012 161.763 66.2012 161.425C66.2012 160.221 66.7439 160.706 67.2321 162.346C67.4263 163 67.9321 163.268 68.9705 163.268C70.1736 163.268 70.1785 163.263 70.0602 162.181C69.9828 161.473 70.0599 161.135 70.2819 161.21C70.4691 161.273 70.791 161.106 70.9974 160.838C71.3154 160.424 71.4157 160.416 71.6551 160.783C71.8106 161.021 71.8627 161.413 71.7709 161.653C71.634 162.013 71.5584 162.018 71.3465 161.681C71.2026 161.452 71.0868 161.42 71.084 161.608C71.077 162.119 72.2142 163.064 72.3484 162.658C72.4261 162.423 72.8109 162.465 73.5899 162.793C75.2454 163.49 75.7625 163.434 75.3232 162.607C75.0201 162.037 75.0427 161.974 75.4896 162.146C75.7744 162.256 76.1336 162.346 76.2875 162.346C76.4415 162.346 76.5674 162.536 76.5674 162.768C76.5674 163.101 77.0973 163.166 79.0827 163.075C82.2749 162.929 82.4807 162.906 82.6652 162.684C82.749 162.583 83.1396 162.318 83.5332 162.095C84.3146 161.652 84.9092 161.894 84.1808 162.358C83.8442 162.573 83.9539 162.645 84.6216 162.649C85.1107 162.651 85.4241 162.566 85.3183 162.46C85.2125 162.353 85.2698 161.994 85.4464 161.662C85.7635 161.065 85.7726 161.065 86.3467 161.686C86.8089 162.186 87.1839 162.282 88.1971 162.159C89.0498 162.055 89.5556 162.137 89.7343 162.406C89.8999 162.655 89.9273 162.488 89.8069 161.964L89.6124 161.122L90.7554 161.603C91.3841 161.868 92.2219 162.002 92.6173 161.902C93.0128 161.802 93.3366 161.827 93.3366 161.957C93.3369 162.087 93.8826 162.231 94.5494 162.276C95.5226 162.344 95.7269 162.269 95.5857 161.899C95.44 161.517 95.7696 161.434 97.4983 161.42C100.954 161.392 101.521 161.299 101.962 160.693C102.369 160.131 102.403 160.135 103.039 160.824C103.745 161.587 104.35 161.443 103.709 160.665C103.445 160.345 103.431 160.197 103.665 160.197C103.853 160.197 104.007 160.349 104.007 160.537C104.007 160.724 104.228 160.791 104.498 160.687C104.83 160.558 104.939 160.631 104.833 160.908C104.702 161.252 104.934 161.252 106.238 160.912C107.096 160.687 108.318 160.504 108.952 160.504C109.743 160.504 110.105 160.367 110.105 160.068C110.105 159.829 109.933 159.572 109.724 159.496C109.515 159.42 110.097 159.332 111.02 159.3C113.223 159.224 114.016 159.124 114.245 158.893C114.348 158.789 114.607 158.77 114.819 158.853C115.886 159.265 119.945 155.888 119.835 154.68C119.75 153.761 119.87 153.593 120.644 153.548C121.664 153.488 121.741 153.388 121.817 152.001C121.852 151.356 122.078 150.514 122.319 150.128C122.703 149.516 122.701 149.387 122.301 149.101C121.901 148.816 121.904 148.794 122.323 148.927C122.589 149.011 122.962 148.82 123.163 148.495C123.459 148.019 123.441 147.911 123.065 147.911C122.78 147.911 122.605 147.624 122.605 147.153C122.605 146.607 122.733 146.444 123.06 146.571C123.664 146.804 123.957 145.97 123.545 145.194C123.158 144.466 123.409 143.611 124.01 143.611C124.309 143.611 124.435 143.212 124.435 142.267C124.435 141.447 124.613 140.774 124.892 140.54C125.676 139.885 125.391 136.547 124.552 136.547C124.294 136.547 124.132 136.219 124.134 135.703C124.138 135.041 124.204 134.958 124.439 135.319C124.706 135.728 124.773 135.728 125.037 135.319C125.264 134.967 125.185 134.834 124.703 134.756C124.22 134.678 124.113 134.498 124.249 133.988C124.347 133.622 124.428 133.202 124.431 133.055C124.433 132.907 124.633 132.952 124.875 133.155C125.229 133.45 125.393 133.398 125.711 132.885C125.928 132.535 126.305 132.248 126.548 132.248C126.871 132.248 126.835 132.133 126.416 131.824C125.876 131.427 125.872 131.37 126.358 130.881C126.952 130.283 127.041 129.284 126.517 129.108C125.907 128.903 126.008 127.7 126.649 127.531C127.086 127.416 127.182 127.213 127.028 126.726C126.914 126.363 126.986 125.878 127.191 125.629C127.481 125.277 127.46 124.977 127.093 124.212C126.535 123.053 126.73 122.31 127.534 122.522C128.057 122.66 128.105 122.499 128.054 120.781C128.017 119.501 127.85 118.778 127.539 118.548C127.003 118.152 127.285 117.038 127.834 117.38C128.272 117.653 127.929 114.146 127.472 113.686C127.012 113.222 127.128 112.591 127.675 112.591C128.101 112.591 128.143 112.333 127.97 110.795C127.81 109.362 127.865 108.917 128.245 108.599C128.673 108.242 128.658 108.141 128.103 107.62C127.266 106.835 127.269 105.527 128.107 105.527C128.655 105.527 128.707 105.396 128.531 104.452C128.4 103.748 128.447 103.377 128.669 103.377C129.11 103.377 129.11 101.942 128.669 101.667C128.483 101.551 128.211 101.646 128.064 101.879C127.744 102.388 127.758 102.46 127.718 100.076C127.7 98.9986 127.55 98.1562 127.375 98.1562C127.204 98.1562 127.457 97.7431 127.937 97.2385C128.737 96.3982 128.776 96.256 128.4 95.5493C128.175 95.1248 127.88 94.7777 127.745 94.7777C127.609 94.7777 127.629 94.4334 127.788 94.0127C128.081 93.2344 127.907 92.321 127.4 91.9773C127.246 91.8729 127.473 91.2252 127.904 90.5378L128.686 89.2884L127.857 88.6603C127.23 88.1864 127.123 87.968 127.422 87.7693C127.739 87.5583 127.723 87.4272 127.346 87.1115C126.759 86.6213 126.743 86.0559 127.302 85.5887C127.63 85.3141 127.766 85.323 127.887 85.6277C127.974 85.8461 128.056 85.7091 128.069 85.324C128.082 84.9385 127.891 84.5451 127.644 84.4496C127.065 84.2257 126.692 82.2425 127.104 81.5776C127.45 81.0204 127.263 79.4212 126.852 79.4212C126.712 79.4212 126.507 78.9031 126.397 78.2695C126.287 77.6362 125.966 76.7031 125.684 76.1963C125.402 75.6896 124.926 74.6186 124.626 73.8161C124.325 73.0139 123.954 72.3572 123.8 72.3572C123.646 72.3572 123.52 72.1499 123.52 71.8965C123.52 71.6431 123.379 71.4358 123.206 71.4358C123.033 71.4358 122.801 71.1978 122.69 70.9073C122.579 70.6164 122.137 70.0276 121.708 69.5986C121.28 69.1698 120.75 68.4708 120.532 68.0457C120.314 67.6203 119.528 66.8614 118.786 66.3596C118.043 65.8574 117.433 65.343 117.429 65.2164C117.425 65.0899 117.208 64.9861 116.947 64.9861C116.686 64.9861 116.552 64.8549 116.651 64.6943C116.749 64.534 116.57 64.2625 116.251 64.0908C115.627 63.7542 115.281 63.9136 115.412 64.4787C115.456 64.6731 115.435 64.7287 115.365 64.6022C115.295 64.4756 115.049 64.3718 114.82 64.3718C114.078 64.3718 112.849 63.671 112.849 63.2474C112.849 63.0214 112.655 62.8362 112.417 62.8362C112.18 62.8362 111.915 62.6636 111.83 62.4523C111.709 62.1503 111.616 62.1547 111.394 62.4716C111.172 62.7898 110.926 62.7167 110.228 62.1252C109.741 61.7127 109.206 61.3408 109.038 61.2987C108.87 61.2566 108.596 61.1807 108.428 61.1298C108.26 61.0788 107.78 61.0619 107.361 61.092C106.789 61.1331 106.621 61.013 106.688 60.6095C106.742 60.2907 106.586 60.072 106.307 60.072C106.049 60.072 105.837 60.22 105.837 60.4009C105.837 60.5821 105.631 60.5229 105.379 60.2695C105.128 60.0161 104.922 59.6595 104.922 59.4771C104.922 59.2569 104.704 59.2753 104.272 59.5321C103.753 59.8407 103.595 59.8413 103.485 59.5345C103.409 59.3235 103.084 59.1506 102.762 59.1506C102.441 59.1506 102.178 58.9433 102.178 58.6899C102.178 58.3696 101.858 58.2292 101.129 58.2292C99.9749 58.2292 99.423 58.7446 100.081 59.2083C100.426 59.4513 100.419 59.4808 100.044 59.3714C99.7922 59.298 99.6057 59.0112 99.6288 58.7335C99.652 58.4562 99.5148 58.22 99.3239 58.2086C99.1328 58.197 98.523 58.1282 97.9681 58.0557C97.4135 57.9829 97.029 58.0363 97.1135 58.1742C97.1983 58.3121 96.8632 58.3653 96.369 58.2925C95.6909 58.1921 95.4705 58.2811 95.4705 58.6552C95.4705 59.0714 95.3732 59.0526 94.8607 58.5363C94.5253 58.1985 94.2509 57.7998 94.2509 57.6509C94.2509 57.5016 93.9735 57.3063 93.6341 57.2169C92.8207 57.0028 92.5624 57.017 92.6286 57.2728C92.6585 57.3886 92.4182 57.4832 92.095 57.4832C91.7716 57.4832 91.5069 57.3057 91.5069 57.0885C91.5069 56.8714 91.3697 56.6936 91.202 56.6936C91.0343 56.6936 90.8971 56.8926 90.8971 57.1361C90.8971 57.3797 90.7545 57.6675 90.5801 57.7762C90.377 57.9024 90.3291 57.7074 90.4471 57.2341C90.5679 56.7498 90.4636 56.3542 90.1456 56.0882C89.7331 55.7433 89.5459 55.7897 88.9065 56.395L88.1532 57.1079V56.4399C88.1532 55.9804 87.966 55.7722 87.5528 55.7722C87.1949 55.7722 87.0123 55.6158 87.1004 55.3846C87.28 54.9134 84.1402 54.8938 83.014 55.3594C82.0682 55.7504 80.531 55.509 80.531 54.9696C80.531 54.7353 80.2678 54.5436 79.9465 54.5436C79.6251 54.5436 79.3166 54.4269 79.2605 54.2841C79.2047 54.1416 78.6525 53.9444 78.0336 53.8458C77.1415 53.704 76.8805 53.7734 76.7732 54.1822C76.6479 54.6604 76.6357 54.6601 76.6028 54.1775C76.572 53.7239 76.2967 53.6809 74.4332 53.8382C73.1896 53.9432 72.299 53.899 72.299 53.7322C72.299 53.567 71.5112 53.5218 70.4352 53.6256C69.3071 53.7344 68.3138 53.6705 67.919 53.4641C67.0696 53.0203 63.7268 52.9785 63.2054 53.4054C62.9091 53.6481 62.7182 53.6186 62.4905 53.2955C62.2359 52.9337 62.2093 52.9463 62.3423 53.367C62.4316 53.649 62.259 54.1647 61.959 54.5132C61.3133 55.2633 60.8986 55.0354 61.4096 54.211C61.681 53.7734 61.6798 53.5516 61.4044 53.2743C60.9767 52.8434 60.1035 53.4177 60.1035 54.1303C60.1035 54.3683 59.8898 54.6456 59.6288 54.7464C59.3675 54.8474 59.226 55.1195 59.3141 55.3511C59.4022 55.5827 59.337 55.7722 59.1687 55.7722C58.8495 55.7722 58.9208 54.4039 59.258 54.0645C59.3644 53.957 59.3779 53.6754 59.2876 53.4386C59.0882 52.9146 56.4448 52.8305 56.4448 53.348C56.4448 53.535 56.243 53.61 55.9963 53.5145C55.7497 53.4192 55.3628 53.5277 55.1369 53.7552C54.8552 54.039 54.5643 54.0783 54.2134 53.8806C53.8929 53.7 53.7008 53.7003 53.7008 53.8812C53.7008 54.0406 53.4896 54.2525 53.2313 54.3523C52.9048 54.4785 52.7886 54.3713 52.8502 54.0013C52.9087 53.6487 52.7664 53.4973 52.4279 53.5538C52.1471 53.6005 51.8304 53.4966 51.724 53.3234C51.4358 52.8535 50.1709 52.9426 49.7422 53.4629C49.4605 53.8047 48.9031 53.8836 47.4945 53.7807C45.5079 53.6361 44.4094 53.4509 43.992 53.1914C43.8518 53.1038 43.6124 53.1566 43.4597 53.3084ZM27.3838 56.137C27.2866 56.3818 27.2143 56.309 27.1997 55.9512C27.1866 55.6275 27.2585 55.4463 27.3598 55.5483C27.461 55.6502 27.472 55.9153 27.3838 56.137ZM62.8475 55.7722C62.8475 55.9411 62.7871 56.0793 62.713 56.0793C62.6389 56.0793 62.4938 55.9411 62.3901 55.7722C62.2865 55.6032 62.3472 55.465 62.5246 55.465C62.702 55.465 62.8475 55.6032 62.8475 55.7722ZM64.3719 58.0975C64.3719 58.834 64.3375 58.8527 63.8652 58.3769C63.4368 57.9454 63.4249 57.8238 63.789 57.5919C64.3789 57.2154 64.3719 57.2092 64.3719 58.0975ZM56.9022 58.8435C57.0058 59.0124 56.8686 59.1506 56.5973 59.1506C56.3259 59.1506 56.1887 59.0124 56.2924 58.8435C56.396 58.6746 56.5332 58.5363 56.5973 58.5363C56.6613 58.5363 56.7985 58.6746 56.9022 58.8435ZM101.486 59.029C101.384 59.1309 101.121 59.142 100.901 59.0532C100.658 58.9553 100.73 58.8825 101.086 58.8677C101.407 58.8545 101.587 58.927 101.486 59.029ZM70.387 59.9504C70.2858 60.0523 70.0227 60.0634 69.8029 59.9746C69.5596 59.8767 69.6318 59.8039 69.987 59.7891C70.3084 59.7759 70.4883 59.8484 70.387 59.9504ZM79.3114 60.3791C79.3114 60.5481 79.251 60.6863 79.177 60.6863C79.1029 60.6863 78.9577 60.5481 78.8541 60.3791C78.7504 60.2102 78.8111 60.072 78.9885 60.072C79.166 60.072 79.3114 60.2102 79.3114 60.3791ZM88.9154 62.529C88.8117 62.698 88.5898 62.8362 88.4221 62.8362C88.2544 62.8362 88.2019 62.698 88.3056 62.529C88.4093 62.3601 88.6312 62.2219 88.7989 62.2219C88.9666 62.2219 89.019 62.3601 88.9154 62.529ZM13.0456 71.6023C13.2453 72.1266 13.8075 72.0621 13.9956 71.4936C14.0627 71.2909 13.838 71.1287 13.4907 71.1287C13.0523 71.1287 12.9191 71.2703 13.0456 71.6023ZM13.7694 73.5738C13.5227 73.731 13.3916 73.9306 13.4779 74.0176C13.7139 74.2556 14.9801 73.8615 14.9801 73.5498C14.9801 73.1975 14.3398 73.2101 13.7694 73.5738ZM13.6843 74.8398C13.0611 75.5274 13.0056 75.943 13.5145 76.1137C13.7258 76.1847 13.9051 76.9368 13.942 77.9052C13.9767 78.8235 14.0188 79.7477 14.0353 79.9587C14.052 80.17 14.4084 80.3426 14.8277 80.3426C15.3947 80.3426 15.5899 80.1801 15.5899 79.7081C15.5899 79.3592 15.732 78.8063 15.9054 78.4796C16.1231 78.0702 16.1231 77.8856 15.9054 77.8856C15.732 77.8856 15.5899 78.0238 15.5899 78.1927C15.5899 78.7796 15.0502 78.4958 14.8737 77.8162C14.77 77.416 14.9246 76.7424 15.2469 76.1924C15.6893 75.4371 15.7216 75.1807 15.4112 74.8886C15.1133 74.6085 14.9905 74.6109 14.8743 74.9C14.7883 75.1134 14.713 75.0434 14.6993 74.7375C14.6688 74.0593 14.3639 74.09 13.6843 74.8398ZM16.2454 79.9916C15.9548 80.5085 15.9323 80.8104 16.1664 81.0462C16.6344 81.5177 16.8716 81.1525 16.7539 80.1402L16.6527 79.2677L16.2454 79.9916ZM126.26 82.2803C126.262 82.417 126.127 82.4434 125.959 82.339C125.792 82.2345 125.656 81.9154 125.659 81.6298C125.663 81.1823 125.705 81.174 125.959 81.5711C126.122 81.8245 126.257 82.1436 126.26 82.2803ZM125.045 86.0064C125.045 86.081 124.907 86.2272 124.74 86.3317C124.572 86.4361 124.435 86.375 124.435 86.1962C124.435 86.0175 124.572 85.871 124.74 85.871C124.907 85.871 125.045 85.9318 125.045 86.0064ZM120.471 89.5445C120.471 90.6057 120.629 90.7159 121.038 89.9404C121.233 89.5691 121.19 89.2804 120.896 89.0071C120.54 88.6748 120.471 88.7617 120.471 89.5445ZM14.9801 92.0136C14.9801 92.1825 15.1173 92.3207 15.285 92.3207C15.4527 92.3207 15.5899 92.1825 15.5899 92.0136C15.5899 91.8446 15.4527 91.7064 15.285 91.7064C15.1173 91.7064 14.9801 91.8446 14.9801 92.0136ZM18.1985 96.552C17.9442 96.8085 17.4195 96.267 17.429 95.7578C17.4375 95.3017 17.4927 95.3106 17.8829 95.8303C18.1275 96.1558 18.2695 96.4805 18.1985 96.552ZM21.2861 112.342C21.1888 112.587 21.1166 112.514 21.1019 112.156C21.0888 111.832 21.1608 111.651 21.262 111.753C21.3632 111.855 21.3742 112.12 21.2861 112.342ZM18.3717 115.13C18.0704 115.431 18.0357 115.396 18.2009 114.958C18.3156 114.656 18.486 114.485 18.5799 114.58C18.6738 114.674 18.5802 114.922 18.3717 115.13ZM22.8105 130.155C22.7133 130.4 22.641 130.327 22.6264 129.97C22.6133 129.646 22.6852 129.465 22.7864 129.567C22.8877 129.669 22.8986 129.934 22.8105 130.155ZM122.91 133.169C122.91 133.338 122.85 133.476 122.776 133.476C122.702 133.476 122.557 133.338 122.453 133.169C122.349 133 122.41 132.862 122.587 132.862C122.765 132.862 122.91 133 122.91 133.169ZM124.892 134.09C124.996 134.259 125.141 134.398 125.215 134.398C125.289 134.398 125.349 134.259 125.349 134.09C125.349 133.922 125.204 133.783 125.027 133.783C124.849 133.783 124.788 133.922 124.892 134.09ZM21.6831 137.666C21.6855 137.86 21.5077 138.087 21.2876 138.172C20.9965 138.285 20.9242 138.077 21.0221 137.406C21.1175 136.75 21.2312 136.604 21.4172 136.9C21.5608 137.129 21.6803 137.473 21.6831 137.666ZM121.887 144.072C122.279 144.467 122.281 144.533 121.902 144.533C121.659 144.533 121.29 144.326 121.081 144.072C120.794 143.724 120.79 143.611 121.065 143.611C121.266 143.611 121.635 143.819 121.887 144.072ZM123.215 145.147C123.215 145.316 123.078 145.454 122.91 145.454C122.743 145.454 122.605 145.316 122.605 145.147C122.605 144.978 122.743 144.84 122.91 144.84C123.078 144.84 123.215 144.978 123.215 145.147ZM101.568 152.825C101.568 152.994 101.705 153.133 101.873 153.133C102.041 153.133 102.178 152.994 102.178 152.825C102.178 152.656 102.041 152.518 101.873 152.518C101.705 152.518 101.568 152.656 101.568 152.825ZM98.8242 154.668C98.8242 155.009 98.6209 155.282 98.3669 155.282C98.1129 155.282 97.9096 155.009 97.9096 154.668C97.9096 154.327 98.1129 154.054 98.3669 154.054C98.6209 154.054 98.8242 154.327 98.8242 154.668ZM96.9949 155.59C96.9949 155.972 96.7931 156.202 96.4613 156.199C96.0046 156.195 95.9936 156.151 96.3851 155.892C96.7915 155.623 96.7915 155.556 96.3851 155.287C95.9936 155.028 96.0046 154.984 96.4613 154.98C96.7931 154.977 96.9949 155.208 96.9949 155.59ZM76.5674 156.511C76.5674 156.68 76.5071 156.818 76.433 156.818C76.3589 156.818 76.2138 156.68 76.1101 156.511C76.0064 156.342 76.0671 156.204 76.2446 156.204C76.422 156.204 76.5674 156.342 76.5674 156.511ZM114.373 156.511C114.373 156.68 114.236 156.818 114.069 156.818C113.901 156.818 113.764 156.68 113.764 156.511C113.764 156.342 113.901 156.204 114.069 156.204C114.236 156.204 114.373 156.342 114.373 156.511ZM90.7941 158.431C90.7096 158.642 90.6404 158.469 90.6404 158.047C90.6404 157.624 90.7096 157.452 90.7941 157.663C90.8789 157.874 90.8789 158.22 90.7941 158.431ZM68.3156 159.404C68.6108 159.763 68.5626 159.811 68.0479 159.676C67.7031 159.585 67.4208 159.388 67.4208 159.239C67.4208 158.825 67.9129 158.916 68.3156 159.404ZM109.038 159.275C109.142 159.444 109.081 159.582 108.904 159.582C108.726 159.582 108.581 159.444 108.581 159.275C108.581 159.106 108.641 158.968 108.715 158.968C108.789 158.968 108.934 159.106 109.038 159.275ZM87.3437 160.056C87.2443 160.317 87.0976 160.464 87.0178 160.384C86.9379 160.303 86.9629 160.09 87.0736 159.91C87.3742 159.42 87.5498 159.515 87.3437 160.056ZM96.6138 160.408C96.3205 160.486 96.0802 160.7 96.0802 160.885C96.0802 161.069 95.9979 161.137 95.8973 161.036C95.5927 160.729 96.0818 160.194 96.6318 160.232C97.0967 160.264 97.0949 160.282 96.6138 160.408ZM73.9298 160.955C74.1085 161.423 73.6152 161.932 73.2951 161.609C73.1945 161.508 73.289 161.425 73.5051 161.425C73.8198 161.425 73.8225 161.333 73.5185 160.964C73.2996 160.699 73.2701 160.504 73.4487 160.504C73.6189 160.504 73.8356 160.707 73.9298 160.955ZM55.1863 161.394C55.4161 161.541 55.5533 161.795 55.4911 161.959C55.4286 162.123 55.1137 162.001 54.7908 161.688C54.1887 161.103 54.439 160.917 55.1863 161.394ZM64.6768 161.886C64.9878 162.263 64.9667 162.346 64.5616 162.346C64.2896 162.346 64.067 162.139 64.067 161.886C64.067 161.632 64.1189 161.425 64.1823 161.425C64.2454 161.425 64.468 161.632 64.6768 161.886ZM95.1656 161.732C95.1656 161.901 94.9598 162.039 94.7082 162.039C94.4567 162.039 94.2509 161.901 94.2509 161.732C94.2509 161.563 94.4567 161.425 94.7082 161.425C94.9598 161.425 95.1656 161.563 95.1656 161.732ZM78.3968 162.039C78.3968 162.208 78.2513 162.346 78.0739 162.346C77.8964 162.346 77.8358 162.208 77.9394 162.039C78.0431 161.87 78.1882 161.732 78.2623 161.732C78.3364 161.732 78.3968 161.87 78.3968 162.039Z" fill="#B6A5FC"/>
<rect x="35" y="26" width="256" height="157" rx="16"/>
</svg>
