<svg width="326" height="209" viewBox="0 0 326 209" fill="none" xmlns="http://www.w3.org/2000/svg">
<rect width="326" height="209" rx="24" fill="#EDF2F7"/>
<path fill-rule="evenodd" clip-rule="evenodd" d="M134.679 44.1105C134.226 44.7514 133.859 44.8197 133.425 44.3422C132.576 43.4092 128.815 45.8671 128.214 47.7473C127.87 48.8188 127.831 48.5469 128.057 46.6693L128.36 44.158L126.207 44.6577C123.06 45.3889 122.147 45.4677 121.606 45.0545C120.908 44.5217 117.769 44.9648 117.103 45.6902C116.732 46.0948 116.463 46.0187 116.321 45.467C116.147 44.7924 115.785 44.7826 114.488 45.4163C113.387 45.9543 112.584 46.0011 111.967 45.5639C111.276 45.0741 110.825 45.2354 110.063 46.2445C109.232 47.3446 108.713 47.4884 106.982 47.1006C105.836 46.8436 104.678 46.7311 104.408 46.8501C104.138 46.9686 102.701 47.1559 101.215 47.2659C96.9213 47.584 96.7946 47.6087 96.7946 48.1324C96.7946 48.4063 96.0981 48.4942 95.2464 48.3289C93.8623 48.0596 93.7272 48.1754 93.9723 49.4173C94.1565 50.3503 94.0195 50.807 93.5558 50.807C93.1761 50.807 92.8652 50.3679 92.8652 49.8311C92.8652 49.1805 92.374 48.8552 91.3916 48.8552C90.5404 48.8552 89.9181 49.1988 89.9181 49.6685C89.9176 50.1707 89.1573 50.5149 87.9284 50.5689C85.6645 50.6678 84.9479 51.25 86.0029 52.1335C86.4921 52.5434 86.5275 52.7418 86.1115 52.749C85.774 52.7542 85.4975 53.1979 85.4975 53.7346C85.4975 54.2713 85.166 54.7105 84.7607 54.7105C84.3555 54.7105 84.024 54.2713 84.024 53.7346C84.024 53.1979 84.245 52.7587 84.5152 52.7587C84.7853 52.7587 85.0063 52.466 85.0063 52.1082C85.0063 51.1271 83.6757 51.3275 83.3786 52.3528C83.2204 52.898 82.66 53.1322 81.9463 52.9513C80.8628 52.6774 80.7891 52.8284 80.9752 54.9395C81.1668 57.1118 82.3825 58.6329 83.0023 57.4755C83.159 57.1834 83.8953 56.8925 84.638 56.8301C85.3806 56.7676 86.2652 56.6831 86.6027 56.6421C86.9406 56.6011 87.7137 56.7696 88.3218 57.0162C89.147 57.3512 89.4269 57.2022 89.4269 56.4287C89.4269 55.5862 89.6612 55.5114 90.6868 56.0279C92.5828 56.9823 94.3387 56.8184 94.3387 55.6864C94.3387 55.0794 94.8024 54.7105 95.5667 54.7105C96.2843 54.7105 96.7946 55.0846 96.7946 55.6096C96.7946 56.8418 100.68 56.9199 101.035 55.6948C101.176 55.2069 101.883 54.823 102.604 54.8413C105.104 54.905 105.636 54.7059 105.636 53.706C105.636 53.1536 105.912 52.749 106.25 52.8075C106.588 52.8654 107.369 52.8785 107.986 52.8355C108.947 52.7698 109.034 52.574 108.589 51.4725C108.165 50.4225 108.207 50.256 108.817 50.5656C109.229 50.7751 109.565 51.3541 109.565 51.8525C109.565 52.3508 109.873 52.7587 110.249 52.7587C110.626 52.7587 111.059 53.1933 111.214 53.7242C111.624 55.1425 117.548 54.7658 118.897 53.2356C119.935 52.0587 121.117 51.6872 120.652 52.6846C120.504 53.0014 120.938 53.4009 121.617 53.5733C122.295 53.745 122.971 53.6273 123.118 53.3117C123.266 52.9956 123.592 52.9058 123.843 53.112C124.095 53.3176 124.301 53.1758 124.301 52.7971C124.301 52.4185 124.756 52.1082 125.312 52.1082C125.868 52.1082 126.187 52.4009 126.02 52.7587C125.833 53.1589 126.531 53.3716 127.833 53.3117C129.244 53.2467 129.509 53.125 128.625 52.9468C127.682 52.7561 127.384 52.3944 127.589 51.6885C127.746 51.144 128.01 50.9423 128.175 51.2403C128.64 52.0802 130.594 53.4093 131.365 53.4093C131.745 53.4093 133.074 52.1361 134.318 50.5793C135.867 48.6419 136.58 48.085 136.58 48.813C136.58 49.3972 135.913 50.3978 135.098 51.0353C133.429 52.3411 133.57 53.4093 135.41 53.4093C136.195 53.4093 136.515 53.1452 136.296 52.6768C136.051 52.1517 136.202 52.1277 136.828 52.5915C137.934 53.4113 139.527 52.8889 139.527 51.7067C139.527 51.2123 139.748 50.807 140.018 50.807C140.288 50.807 140.509 51.1973 140.509 51.6742C140.509 53.0352 146.295 52.8798 146.572 51.5116C146.744 50.6626 146.791 50.6814 146.838 51.6202C146.904 52.9318 147.901 53.1179 148.761 51.978C149.208 51.386 149.351 51.3828 149.351 51.9644C149.351 52.8153 157.977 52.7783 159.01 51.9234C159.324 51.6625 159.694 51.8173 159.831 52.2669C160.023 52.8908 160.199 52.8609 160.578 52.1394C160.851 51.6196 160.967 50.9644 160.835 50.6827C160.704 50.4017 160.939 50.3457 161.359 50.5585C161.778 50.7719 162.121 51.291 162.121 51.7133C162.121 52.5519 163.059 52.7431 166.787 52.6651C168.138 52.6364 171.012 52.68 173.173 52.7613C180.057 53.0209 180.482 52.9903 180.676 52.2227C180.807 51.7002 181.09 51.7666 181.597 52.4393C182.522 53.6637 185.563 53.6891 187.73 52.4901C189.161 51.6983 189.522 51.6983 190.339 52.4901C191.5 53.6143 192.512 53.7177 191.69 52.6286C190.888 51.5662 190.949 50.807 191.838 50.807C192.243 50.807 192.574 51.2461 192.574 51.7829C192.574 52.3196 192.961 52.7828 193.434 52.8114C193.906 52.8407 194.957 52.9337 195.767 53.0183C196.577 53.1029 197.403 52.8596 197.601 52.4777C197.843 52.0132 197.964 52.0522 197.97 52.5961C197.974 53.0437 198.474 53.4048 199.082 53.3996C199.851 53.3924 199.994 53.2265 199.55 52.8537C199.038 52.4237 199.055 52.1622 199.639 51.5207C200.23 50.8708 200.463 50.967 200.898 52.0418C201.217 52.831 201.726 53.2109 202.166 52.9871C202.571 52.7815 203.175 52.9103 203.509 53.2734C204.499 54.3475 206.118 54.449 206.988 53.4919C207.516 52.9123 207.801 52.855 207.801 53.33C207.801 54.1048 209.388 54.3429 209.914 53.6468C210.621 52.7106 214.143 52.7718 214.547 53.7275C214.974 54.7391 217.078 55.0189 220.221 54.4821C221.243 54.3071 222.736 54.4132 223.536 54.717C224.337 55.0215 224.992 55.0345 224.992 54.7463C224.992 54.4581 225.545 54.2226 226.22 54.2226C226.895 54.2226 227.448 54.5908 227.448 55.041C227.448 56.0188 229.298 56.793 229.521 55.9082C229.606 55.5693 230.501 55.0455 231.509 54.7443C233.154 54.2531 233.342 54.3312 233.342 55.5022C233.342 56.657 233.553 56.7546 235.184 56.3513C236.197 56.1008 236.854 56.1242 236.645 56.4033C236.095 57.1385 239.363 58.4891 240.052 57.8112C240.386 57.4826 240.754 57.5327 240.941 57.9315C241.115 58.3069 242.093 58.614 243.113 58.614C244.132 58.614 245.126 58.8248 245.32 59.0824C245.871 59.8111 250.705 59.826 251.393 59.1019C251.834 58.6368 252.007 58.761 252.007 59.5424C252.007 60.4122 252.474 60.6217 254.34 60.5872C255.623 60.5631 257.416 60.7329 258.324 60.9645C259.391 61.2365 260.103 61.1083 260.34 60.6022C260.62 60.0017 260.865 60.0218 261.391 60.688C262.386 61.9508 264.624 63.1538 265.015 62.6365C265.625 61.8272 267.692 62.1161 267.962 63.049C268.171 63.7705 268.378 63.7998 268.937 63.1856C269.645 62.4069 270.882 62.8415 270.47 63.7237C270.279 64.1329 271.666 64.2233 273.496 63.9201C273.834 63.8642 274.128 63.306 274.149 62.6801C274.18 61.77 274.245 61.7374 274.474 62.5175C274.631 63.0542 275.09 63.8147 275.492 64.2077C275.895 64.6007 276.08 65.2324 275.903 65.611C275.704 66.0371 275.938 66.1764 276.519 65.9753C277.034 65.7971 278.259 66.1562 279.241 66.7729C280.223 67.3904 282.122 67.8959 283.462 67.8959C284.802 67.8959 285.898 68.1496 285.898 68.4593C285.898 68.7696 286.23 69.0233 286.635 69.0233C287.04 69.0233 287.372 68.6993 287.372 68.3031C287.372 67.9069 287.703 67.7514 288.108 67.9577C288.514 68.1632 288.845 68.0481 288.845 67.702C288.845 66.6669 290.19 66.9889 290.512 68.1008C290.952 69.6219 290.92 69.6739 289.547 69.6739C288.347 69.6739 288.326 69.7298 289.139 70.8066C289.748 71.6133 290.052 71.7089 290.196 71.1384C290.333 70.5938 290.914 70.8599 292.013 71.9698C293.034 73.0023 293.941 73.4427 294.479 73.1695C294.982 72.9138 295.503 73.1077 295.755 73.6451C295.989 74.1447 296.574 74.5539 297.056 74.5539C297.538 74.5546 297.959 74.9208 297.993 75.3671C298.027 75.8141 298.082 76.4256 298.116 76.7256C298.288 78.2512 302.598 79.4639 302.598 77.9864C302.598 77.5492 302.942 77.8426 303.363 78.6383C303.784 79.4346 304.008 80.3448 303.86 80.6609C303.502 81.4286 304.496 82.4071 306.173 82.938C306.986 83.1956 308.078 84.4057 308.874 85.9307C309.61 87.3392 310.484 88.5024 310.816 88.5161C311.149 88.5297 311.571 89.3358 311.756 90.3084C311.94 91.2804 312.498 92.6544 312.995 93.3623C313.61 94.236 313.785 95.0785 313.541 95.9867C313.342 96.7219 313.229 98.4772 313.288 99.8863C313.347 101.296 313.066 103.115 312.663 103.93C312.26 104.744 311.931 105.859 311.931 106.409C311.931 106.958 311.709 107.334 311.438 107.245C311.168 107.155 310.667 107.814 310.325 108.709C309.983 109.603 309.209 110.624 308.606 110.977C308.004 111.331 307.51 112.121 307.51 112.734C307.51 113.348 307.198 114.083 306.816 114.369C306.434 114.655 306.047 115.768 305.956 116.841C305.836 118.263 305.522 118.811 304.802 118.859C303.503 118.946 301.182 120.581 299.662 122.478C298.993 123.314 298.388 123.933 298.317 123.852C297.954 123.445 293.391 126.161 292.414 127.367C292.072 127.789 291.792 128.481 291.792 128.906C291.792 129.349 291.388 129.539 290.848 129.352C290.329 129.172 289.218 129.577 288.38 130.252C287.542 130.927 286.538 131.479 286.149 131.479C285.76 131.479 284.624 132.43 283.624 133.592C282.625 134.755 281.401 135.614 280.905 135.503C280.271 135.361 280.004 135.702 280.004 136.655C280.004 137.798 279.799 137.942 278.695 137.575C277.612 137.215 277.44 137.325 277.697 138.213C277.905 138.93 277.752 139.286 277.235 139.286C276.748 139.286 276.566 138.923 276.744 138.31C276.936 137.647 276.717 137.335 276.059 137.335C275.527 137.335 275.092 137.578 275.092 137.876C275.092 138.175 274.816 138.468 274.478 138.53C269.08 139.505 266.359 140.881 266.157 142.741C266.021 144.004 265.934 144.042 265.29 143.123C264.559 142.083 264.535 142.086 260.274 143.808C259.283 144.209 257.644 144.678 256.631 144.849C255.619 145.021 254.537 145.441 254.226 145.782C253.916 146.124 252.35 146.596 250.746 146.83C249.13 147.067 246.799 147.987 245.512 148.896C243.648 150.211 243.05 150.379 242.473 149.744C241.948 149.167 241.491 149.142 240.774 149.651C240.234 150.033 239.038 150.346 238.116 150.346C237.194 150.346 235.755 150.799 234.917 151.353C233.979 151.973 231.471 152.482 228.389 152.679C225.636 152.854 223.002 153.269 222.536 153.6C222.069 153.93 220.165 154.248 218.305 154.307C216.445 154.365 214.033 154.805 212.946 155.283C211.859 155.762 209.539 156.206 207.789 156.271C205.562 156.354 204.262 156.746 203.454 157.579C202.452 158.611 202.208 158.645 201.596 157.834C201.083 157.155 200.566 157.065 199.696 157.503C199.039 157.834 197.665 158.082 196.643 158.054C195.621 158.026 194.564 158.066 194.293 158.143C194.023 158.221 193.106 158.235 192.256 158.175C191.405 158.114 190.563 158.378 190.385 158.76C190.206 159.141 189.548 159.454 188.921 159.454C188.295 159.454 187.513 159.885 187.183 160.412C186.688 161.202 186.47 161.22 185.939 160.517C185.141 159.46 179.514 159.724 178.475 160.867C177.918 161.479 177.677 161.461 177.361 160.783C177.059 160.137 175.58 159.947 171.5 160.031C165.533 160.152 163.603 160.761 163.58 162.528C163.566 163.598 163.526 163.593 163.031 162.467C162.6 161.482 162.415 161.42 162.064 162.141C161.723 162.841 161.571 162.747 161.354 161.704C161.166 160.802 160.614 160.329 159.635 160.23C158.841 160.15 158.192 160.343 158.192 160.66C158.192 160.977 157.529 161.133 156.718 161.008C155.908 160.883 155.245 161.046 155.245 161.371C155.245 162.215 153.74 162.536 152.257 162.01C151.303 161.671 150.845 161.863 150.411 162.784C150.093 163.457 149.46 164.008 149.003 164.008C148.356 164.008 148.303 163.835 148.761 163.228C150.011 161.573 149.331 161.081 145.904 161.163C144.009 161.208 142.343 161 142.203 160.7C141.829 159.899 139.608 161.412 139.361 162.635C139.191 163.479 139.139 163.451 139.093 162.487C139.042 161.42 138.628 161.31 135.229 161.467C133.136 161.563 130.933 161.871 130.335 162.15C129.694 162.449 129.119 162.382 128.934 161.988C128.762 161.619 128.285 161.489 127.872 161.698C127.46 161.908 126.875 161.824 126.571 161.511C124.978 159.872 122.872 160.45 122.209 162.707C121.981 163.483 121.914 163.447 121.883 162.534C121.856 161.72 121.451 161.393 120.494 161.413C119.751 161.427 118.598 161.359 117.93 161.26C116.594 161.063 115.858 163.129 116.948 164.02C117.279 164.291 117.398 164.839 117.212 165.237C116.725 166.281 115.951 166.126 115.951 164.984C115.951 164.448 115.722 164.008 115.442 164.008C115.106 164.008 115.12 163.546 115.486 162.64C116.019 161.322 115.948 161.281 113.538 161.502C111.663 161.674 111.038 161.508 111.038 160.839C111.039 160.119 110.896 160.102 110.302 160.755C109.855 161.247 109.565 161.299 109.565 160.888C109.565 160.491 108.293 160.206 106.495 160.202C104.807 160.197 100.958 160.096 97.9425 159.977C94.9267 159.858 92.5616 159.981 92.6874 160.251C92.9919 160.903 91.4329 160.121 89.9928 158.898C89.1563 158.189 88.6165 158.104 88.0281 158.59C87.5757 158.964 86.7819 159.036 86.2343 158.753C84.7873 158.004 81.1054 158.059 78.9216 158.863C77.4825 159.392 76.922 159.373 76.648 158.786C76.4412 158.342 75.0413 157.968 73.4003 157.917C71.0107 157.843 70.3275 158.078 69.4114 159.292C68.0366 161.113 67.0901 161.234 67.9153 159.484C68.6108 158.009 68.0759 156.897 67.2173 158.034C66.371 159.155 65.621 158.978 66.3416 157.828C66.678 157.291 66.8706 156.837 66.7699 156.819C66.6697 156.801 65.1898 156.624 63.4819 156.425C60.6975 156.1 60.2466 156.22 59.1149 157.596L57.853 159.129L58.1772 157.34C58.5304 155.391 58.5628 155.414 55.1673 155.223C54.0189 155.158 53.0798 155.373 53.0798 155.7C53.0798 156.027 52.7325 155.834 52.3081 155.272C51.8833 154.71 51.1465 154.25 50.6706 154.25C50.1946 154.25 49.6641 154.062 49.4912 153.834C49.3188 153.605 48.3424 153.343 47.3222 153.253C42.6103 152.833 39.6028 152.22 39.0007 151.559C38.5144 151.024 38.1396 151.062 37.5546 151.706C36.8856 152.441 36.6676 152.398 36.1307 151.425C35.6543 150.563 35.4322 150.488 35.2387 151.125C35.0364 151.79 34.8885 151.8 34.5521 151.171C34.3158 150.731 33.609 150.501 32.9813 150.661C32.3531 150.822 30.6035 150.377 29.0926 149.674C27.5822 148.97 25.951 148.561 25.4687 148.764C24.9309 148.99 24.5885 148.801 24.5841 148.275C24.5782 147.644 24.448 147.676 24.089 148.394C23.672 149.23 23.4784 149.163 22.7461 147.936C22.2751 147.147 20.6193 145.862 19.0657 145.08C17.5121 144.299 16.2414 143.466 16.2414 143.23C16.2414 142.994 15.4678 142.92 14.5223 143.066C12.9417 143.311 12.8032 143.194 12.8032 141.618C12.8032 140.225 12.5208 139.83 11.2923 139.504C10.226 139.222 9.40669 138.318 8.50735 136.43C7.80644 134.959 7.2853 133.657 7.34915 133.534C7.41349 133.412 7.1458 132.973 6.75433 132.559C6.36336 132.144 5.90509 130.125 5.73563 128.072C5.46548 124.789 5.54702 124.242 6.41444 123.524C6.9567 123.076 7.40023 122.047 7.40023 121.238C7.40023 120.43 7.61095 119.769 7.86832 119.769C8.1257 119.769 8.70382 118.744 9.15226 117.492C9.60071 116.239 10.2746 115.215 10.6489 115.215C11.0232 115.215 11.3297 114.846 11.3297 114.396C11.3297 113.945 11.7717 113.21 12.312 112.763C12.8523 112.316 13.2944 111.402 13.2944 110.731C13.2944 110.035 13.7418 109.356 14.3376 109.15C15.1766 108.859 15.319 108.463 15.0651 107.122C14.7566 105.496 15.3887 104.806 15.9958 106.107C16.1628 106.464 16.4836 106.757 16.709 106.757C17.3196 106.757 17.771 104.8 17.3603 103.934C17.1639 103.519 17.0661 102.667 17.1442 102.04C17.2218 101.415 17.0376 100.902 16.7346 100.902C16.4315 100.902 16.3161 101.186 16.4782 101.534C16.6403 101.881 16.2193 102.349 15.5425 102.574C14.8656 102.799 14.1785 103.539 14.0154 104.219C13.8528 104.9 13.5134 105.456 13.2615 105.456C13.0095 105.456 12.8032 105.812 12.8032 106.248C12.8032 106.684 12.2152 107.71 11.4971 108.528C10.7786 109.345 9.94846 110.672 9.65277 111.476C9.35708 112.28 8.40224 113.377 7.53138 113.914C6.65904 114.451 5.9434 115.392 5.9375 116.008C5.93063 116.732 5.66687 116.993 5.18993 116.751C4.33528 116.317 4.26161 117.064 4.92863 119.389C5.32255 120.76 5.23512 121.166 4.42369 121.741C3.88438 122.124 3.57887 122.727 3.74489 123.083C3.9109 123.438 3.76453 124.179 3.41973 124.729C2.9536 125.474 2.931 126.022 3.3323 126.874C3.66286 127.574 3.70166 128.373 3.43348 128.935C2.83621 130.185 2.86322 133.431 3.47081 133.431C3.74096 133.431 3.97967 134.236 4.00079 135.22C4.02191 136.204 4.15109 136.644 4.28715 136.196C4.60887 135.141 5.3422 135.141 5.27245 136.196C5.18158 137.569 7.0515 141.889 7.73669 141.889C8.09181 141.889 8.38259 142.3 8.38259 142.803C8.38259 143.378 8.72543 143.6 9.30256 143.4C9.93225 143.182 10.5619 143.713 11.3007 145.088C11.8935 146.191 12.8061 147.093 13.3278 147.093C13.8499 147.093 14.2767 147.532 14.2767 148.069C14.2767 148.606 14.6083 149.045 15.0135 149.045C15.4187 149.045 15.7503 149.362 15.7503 149.75C15.7503 150.137 16.0268 150.32 16.3642 150.156C16.7022 149.992 16.9256 149.539 16.8613 149.15C16.797 148.76 17.0735 148.608 17.4753 148.813C17.8771 149.017 18.2061 149.559 18.2061 150.016C18.2061 150.828 21.0122 152.949 22.0869 152.949C22.3841 152.949 22.6267 153.197 22.6267 153.5C22.6267 153.803 23.3119 154.077 24.1499 154.109C24.9873 154.14 26.0665 154.639 26.5478 155.216C27.1353 155.92 27.8455 156.124 28.7085 155.837C29.463 155.587 29.9944 155.683 29.9944 156.07C29.9944 156.433 30.4365 156.577 30.9768 156.39C32.0854 156.006 32.2651 155.172 31.3452 154.68C31.0077 154.5 31.2287 154.329 31.8363 154.301C32.4754 154.271 32.9415 154.634 32.9415 155.162C32.9415 156.248 35.6769 157.797 37.2393 157.596C37.8469 157.518 38.3444 157.726 38.3444 158.059C38.3444 159.065 39.8966 159.527 40.6171 158.735C41.1392 158.161 41.2915 158.22 41.2915 158.998C41.2915 159.756 42.0415 160.091 44.3614 160.366C46.05 160.567 48.0609 160.7 48.8311 160.662C50.0924 160.6 50.2039 160.413 49.9574 158.781C49.7648 157.506 49.9077 156.856 50.4397 156.585C51.5871 156.002 51.7384 156.108 51.4058 157.256C51.1711 158.067 51.3292 158.231 52.0901 157.967C53.3514 157.531 53.3612 158.247 52.1107 159.441C51.2182 160.294 51.204 160.458 51.927 161.516C52.481 162.327 52.955 162.493 53.5366 162.081C54.0037 161.75 54.6579 161.74 55.0474 162.059C55.4252 162.368 55.8923 162.493 56.0848 162.334C56.2778 162.176 57.0618 162.366 57.8275 162.755C58.5933 163.145 60.3246 163.595 61.6754 163.755C63.0261 163.915 64.5458 164.216 65.0522 164.423C65.652 164.667 65.8563 164.547 65.6372 164.078C65.1333 162.998 66.1289 163.211 66.8328 164.334C67.6962 165.712 68.3063 165.544 68.3063 163.929C68.3063 162.919 68.4713 162.719 68.9203 163.183C69.2582 163.533 70.2528 164.14 71.1306 164.531C72.6287 165.198 72.7269 165.148 72.7269 163.725C72.7269 162.756 73.081 162.086 73.7078 161.869C74.4794 161.601 74.5983 161.742 74.2653 162.531C73.5236 164.286 75.3051 165.888 77.979 165.872C79.2777 165.865 81.2808 166.144 82.4306 166.492C83.6512 166.861 84.634 166.883 84.7927 166.542C84.942 166.222 84.83 165.96 84.5441 165.96C84.2583 165.96 84.024 165.732 84.024 165.452C84.024 164.649 86.8055 163.471 87.4524 164.001C87.8355 164.314 87.642 164.625 86.89 164.906L85.7431 165.332L86.861 166.578C88.2805 168.158 95.213 168.391 95.6531 166.872C96.0043 165.66 96.7946 165.704 96.7946 166.936C96.7946 167.536 97.2548 167.912 97.9896 167.912C98.9951 167.912 99.1783 167.607 99.1434 165.993C99.1135 164.59 98.8359 164.021 98.1129 163.878C97.2504 163.708 97.2185 163.58 97.8659 162.874C98.4936 162.189 98.7893 162.532 99.7888 165.107L100.97 168.149L101.248 166.241C101.401 165.192 101.355 163.689 101.146 162.901C100.852 161.791 100.927 161.551 101.482 161.832C101.875 162.032 102.201 162.53 102.205 162.939C102.209 163.384 102.385 163.323 102.642 162.787C103.245 161.525 104.264 162.556 103.903 164.063C103.739 164.749 103.826 165.31 104.096 165.31C104.366 165.31 104.728 165.895 104.899 166.611C105.07 167.326 105.527 167.912 105.914 167.912C106.301 167.912 106.618 168.205 106.618 168.562C106.618 169.43 108.397 169.391 109.66 168.495C110.438 167.944 110.77 167.982 111.094 168.658C111.421 169.342 111.517 169.285 111.523 168.4C111.531 167.043 112.861 166.905 113.947 168.149C114.374 168.637 115.552 169.205 116.565 169.41C118.001 169.7 118.406 169.566 118.406 168.803C118.406 167.821 119.6 167.995 121.327 169.227C121.718 169.506 122.54 169.482 123.152 169.173C123.821 168.836 124.383 168.862 124.558 169.238C124.986 170.156 128.113 170.002 128.355 169.05C128.504 168.464 128.754 168.428 129.255 168.924C129.637 169.303 131.219 169.685 132.771 169.775C135.267 169.919 135.73 169.741 136.785 168.234L137.977 166.53L138.138 168.034C138.289 169.447 138.493 169.53 141.492 169.397C143.248 169.32 144.905 169.226 145.176 169.188C145.446 169.151 148.685 169.323 152.373 169.569C158.665 169.989 159.095 169.942 159.316 168.802C159.524 167.729 159.558 167.72 159.608 168.725C159.659 169.741 160.207 170.152 161.241 169.95C161.988 169.804 176.198 169.074 177.471 169.116C178.213 169.141 178.821 168.887 178.821 168.552C178.821 168.184 179.273 168.171 179.967 168.521C180.598 168.839 181.407 168.859 181.765 168.565C182.127 168.269 182.785 168.335 183.242 168.714C183.756 169.138 184.794 169.197 185.988 168.87C187.044 168.581 188.109 168.408 188.354 168.487C188.6 168.566 188.958 168.292 189.151 167.879C189.416 167.311 189.761 167.311 190.557 167.875C191.138 168.286 191.813 168.458 192.059 168.257C192.305 168.056 193.89 167.748 195.582 167.574C197.274 167.4 198.801 166.951 198.976 166.576C199.151 166.202 199.716 165.906 200.232 165.919C201.524 165.952 202.972 165.949 203.994 165.911C204.467 165.894 204.854 165.459 204.854 164.944C204.854 164.429 205.185 164.008 205.59 164.008C205.996 164.008 206.327 164.301 206.327 164.659C206.327 165.017 206.645 165.31 207.033 165.31C207.536 165.31 207.732 164.549 207.712 162.676C207.697 161.227 207.821 159.861 207.988 159.64C208.155 159.419 208.292 160.004 208.292 160.942C208.292 162.845 209.231 165.96 209.804 165.96C210.724 165.96 211.73 165.094 211.73 164.302C211.73 162.837 212.826 162.443 213.5 163.666C214.257 165.036 215.908 164.504 215.48 163.027C215.316 162.46 215.477 162.057 215.868 162.057C216.236 162.057 216.664 162.496 216.82 163.033C216.975 163.569 217.607 163.975 218.223 163.933C219.055 163.877 219.122 163.781 218.484 163.56C217.486 163.215 217.319 162.057 218.267 162.057C218.621 162.057 219.339 162.472 219.862 162.979C220.534 163.63 220.995 163.702 221.43 163.224C221.863 162.748 222.045 162.773 222.045 163.308C222.045 163.812 222.581 163.934 223.641 163.672C225.346 163.25 225.924 163.12 230.886 162.042C232.642 161.66 234.521 161.079 235.061 160.75C235.601 160.42 236.596 160.182 237.271 160.219C239.027 160.318 242.346 159.45 242.895 158.749C243.152 158.421 243.781 158.153 244.293 158.153C244.805 158.153 245.811 157.607 246.528 156.938C247.416 156.11 248.145 155.888 248.814 156.242C250.368 157.062 251.018 156.937 250.711 155.876C250.532 155.258 250.717 154.9 251.217 154.9C251.652 154.9 252.007 155.193 252.007 155.551C252.007 155.909 252.338 156.201 252.744 156.201C253.614 156.201 253.622 156.13 253.001 153.967C252.69 152.882 252.69 152.298 253.001 152.298C253.265 152.298 253.48 152.737 253.48 153.274C253.48 153.811 253.904 154.25 254.422 154.25C254.94 154.25 255.437 154.533 255.527 154.88C255.623 155.25 256.627 155.064 257.951 154.432C259.661 153.616 260.348 152.872 260.774 151.378L261.337 149.403L262.085 150.817C262.797 152.163 262.93 152.185 264.84 151.293C265.944 150.777 267.012 150.491 267.215 150.657C267.417 150.822 267.483 150.269 267.362 149.427C267.145 147.923 268.24 146.214 268.573 147.536C268.666 147.907 269.029 148.729 269.38 149.364C269.942 150.383 270.243 150.426 271.94 149.725C272.999 149.288 274.801 148.372 275.946 147.687C277.092 147.003 278.367 146.443 278.78 146.443C279.194 146.443 280.408 145.711 281.478 144.816C282.547 143.922 283.743 143.19 284.134 143.19C284.525 143.19 285.138 142.823 285.495 142.377C285.851 141.93 286.886 141.485 287.793 141.389C288.7 141.293 289.909 140.781 290.481 140.25C291.052 139.72 291.913 139.286 292.393 139.286C292.873 139.286 293.266 138.847 293.266 138.31C293.266 137.763 293.704 137.335 294.263 137.335C294.812 137.335 295.389 136.895 295.544 136.359C295.7 135.822 296.361 135.383 297.014 135.383C297.829 135.383 298.348 134.872 298.669 133.756C299.126 132.165 300.142 131.492 300.142 132.78C300.142 133.743 301.09 133.57 301.932 132.455C302.337 131.918 303.042 131.479 303.499 131.479C303.956 131.479 304.548 130.844 304.815 130.069C305.082 129.293 305.74 128.342 306.279 127.954C306.817 127.567 307.746 126.592 308.342 125.787C308.939 124.982 309.604 124.31 309.819 124.296C310.035 124.28 310.764 123.348 311.439 122.224C312.115 121.1 313.277 119.413 314.022 118.476C315.829 116.202 318.7 108.566 317.325 109.692C316.331 110.506 316.68 107.43 317.947 104.207C318.709 102.268 319.16 100.512 318.948 100.304C318.735 100.096 318.561 97.9007 318.56 95.4259C318.559 92.4092 318.357 90.8361 317.946 90.6545C317.609 90.5056 317.333 90.0007 317.333 89.5323C317.333 89.0632 317.023 88.5219 316.643 88.3294C316.263 88.1361 315.804 87.0835 315.623 85.9899C315.441 84.8962 315.089 83.8345 314.84 83.6302C314.59 83.4266 314.379 82.6179 314.369 81.8339C314.359 81.05 313.862 79.6649 313.264 78.756C311.775 76.4927 308.492 73.3555 308.492 74.1948C308.492 74.5708 308.161 74.8786 307.756 74.8786C307.35 74.8786 307.019 74.6326 307.019 74.3327C307.019 74.0322 306.466 73.4525 305.791 73.0452C305.115 72.6373 304.557 71.7857 304.551 71.1514C304.538 69.9738 301.747 67.7221 300.299 67.7221C299.867 67.7221 299.199 67.2095 298.815 66.5836C298.334 65.801 298.039 65.6865 297.871 66.218C297.704 66.7411 297.304 66.5654 296.631 65.6735C295.94 64.7587 295.274 64.477 294.451 64.7503C293.786 64.9715 293.266 64.857 293.266 64.4901C293.266 63.4283 289.743 60.8039 287.617 60.2814C286.537 60.016 285.426 59.5508 285.149 59.2483C284.132 58.1358 279.001 56.2179 275.415 55.6102C274.292 55.4203 272.655 55.0169 271.777 54.7144C270.696 54.3423 270.18 54.3943 270.18 54.8764C270.18 55.2674 269.683 54.9792 269.075 54.2349C268.382 53.3859 267.056 52.7626 265.514 52.5603C264.163 52.3827 261.953 51.9097 260.602 51.5083C259.252 51.1076 256.867 50.6652 255.302 50.5246C253.737 50.3848 252.19 49.9886 251.863 49.6444C251.537 49.3002 249.723 48.9919 247.832 48.9587C244.444 48.8995 243.638 48.7661 242.183 48.0264C240.861 47.3544 236.289 47.0798 236.289 47.6725C236.289 47.9906 235.881 47.9613 235.382 47.6074C234.758 47.165 234.298 47.1982 233.908 47.7148C233.481 48.2814 233.342 48.243 233.342 47.5599C233.342 46.9009 233.174 46.9594 232.724 47.7746C232.026 49.0381 230.049 48.9177 229.422 47.5742C229.153 46.9985 228.509 46.8501 227.473 47.1247C226.421 47.4031 226.031 47.3088 226.255 46.8287C226.461 46.3863 226.164 46.4208 225.459 46.9211C224.527 47.5814 224.237 47.545 223.776 46.7109C223.277 45.8066 223.162 45.8151 222.661 46.7909C222.144 47.8 222.1 47.7961 222.074 46.7409C222.058 46.115 221.989 45.5757 221.922 45.5431C221.855 45.5113 219.603 45.3551 216.919 45.197C214.234 45.0383 211.767 44.6115 211.437 44.2485C211.025 43.7957 210.726 43.821 210.49 44.3278C210.265 44.8106 209.523 44.9043 208.358 44.5965C205.317 43.7924 203.38 43.8581 203.38 44.7657C203.38 45.2256 203.159 45.6023 202.889 45.6023C202.619 45.6023 202.453 45.2731 202.521 44.8704C202.588 44.4677 202.091 44.0591 201.415 43.9622C200.74 43.8653 199.69 43.5751 199.082 43.3168C198.246 42.9623 197.977 43.1041 197.977 43.8998C197.977 44.4788 198.235 44.9517 198.55 44.9517C198.865 44.9517 198.958 45.171 198.756 45.4384C198.553 45.7064 198.11 45.4221 197.77 44.8067C196.931 43.2856 194.642 43.1789 192.641 44.5673C191.339 45.4696 190.869 45.5431 190.43 44.9114C190.009 44.307 190.023 44.2231 190.487 44.5692C190.864 44.8509 191.101 44.6369 191.101 44.0143C191.101 43.4567 190.818 43 190.474 43C189.71 43 187.643 44.7722 186.803 46.1469C186.269 47.0213 186.189 46.9607 186.189 45.683C186.189 44.5094 185.991 44.2966 185.207 44.6265C184.507 44.9205 184.224 44.7436 184.224 44.0097C184.224 43.2557 183.796 43.0124 182.628 43.1021C181.75 43.1705 180.674 43.4574 180.236 43.7404C179.799 44.0234 179.308 44.078 179.144 43.8614C178.98 43.6441 176.819 43.3832 174.341 43.2811C170.933 43.1412 169.555 43.339 168.685 44.0943C167.719 44.9322 167.492 44.9472 167.272 44.188C166.997 43.2375 165.192 43.0709 164.176 43.9024C163.847 44.171 163.684 44.616 163.812 44.8906C163.94 45.1651 163.743 45.9615 163.374 46.6589C162.802 47.7414 161.167 48.1409 159.665 47.5658C159.25 47.407 161.847 46.0408 162.304 46.1781C162.54 46.2484 162.595 45.8313 162.427 45.2504C162.259 44.67 162.121 43.9238 162.121 43.5933C162.121 43.244 160.524 43.1516 158.315 43.3728C153.825 43.8217 153.905 43.823 152.175 43.2758C151.141 42.9486 150.824 43.0865 150.824 43.8614C150.824 44.7592 150.67 44.7683 149.473 43.9414C147.624 42.6636 143.949 42.7463 142.491 44.0982C141.652 44.8769 141.251 44.9713 141.113 44.4235C140.828 43.2895 138.28 43.4814 137.521 44.6935C136.926 45.642 136.797 45.6218 136.093 44.4697C135.435 43.393 135.223 43.339 134.679 44.1105ZM141.001 45.9276C141.001 46.4644 140.78 46.9399 140.509 46.9848C140.239 47.0297 139.789 47.1026 139.509 47.1475C139.229 47.1924 138.79 47.6679 138.534 48.2047C137.874 49.5885 137.898 47.8533 138.562 46.21C139.161 44.7279 141.001 44.5152 141.001 45.9276ZM114.968 47.1904C114.968 47.3485 114.747 47.6582 114.477 47.8794C114.207 48.1006 113.986 47.9711 113.986 47.5925C113.986 47.2138 114.207 46.9035 114.477 46.9035C114.747 46.9035 114.968 47.0323 114.968 47.1904ZM100.5 50.7608C100.017 51.7959 99.2392 50.9527 99.5825 49.7667C99.7716 49.1142 100.039 48.9893 100.354 49.4056C100.618 49.7563 100.684 50.3659 100.5 50.7608ZM220.571 49.8311C220.571 50.3679 220.247 50.807 219.85 50.807C219.411 50.807 219.239 50.4258 219.411 49.8311C219.567 49.2944 219.892 48.8552 220.133 48.8552C220.374 48.8552 220.571 49.2944 220.571 49.8311ZM225.693 49.3432C225.449 49.6119 225.084 50.1239 224.883 50.4817C224.673 50.8532 224.513 50.6437 224.508 49.9938C224.504 49.3607 224.864 48.8552 225.32 48.8552C225.77 48.8552 225.938 49.0745 225.693 49.3432ZM98.2681 50.807C98.2681 51.1648 98.0471 51.4576 97.777 51.4576C97.5068 51.4576 97.2858 51.1648 97.2858 50.807C97.2858 50.4492 97.5068 50.1564 97.777 50.1564C98.0471 50.1564 98.2681 50.4492 98.2681 50.807ZM113.853 50.5494C113.69 50.7654 113.266 50.7888 112.912 50.6008C112.52 50.3932 112.636 50.239 113.208 50.2078C113.726 50.1798 114.016 50.3334 113.853 50.5494ZM233.342 51.507C233.342 51.8147 233.011 51.8987 232.605 51.6931C232.2 51.4869 231.869 51.0659 231.869 50.7575C231.869 50.4498 232.2 50.3659 232.605 50.5715C233.011 50.7777 233.342 51.1986 233.342 51.507ZM243.657 50.807C243.657 51.1648 243.27 51.453 242.797 51.4478C242.062 51.4394 242.045 51.3457 242.674 50.807C243.601 50.0133 243.657 50.0133 243.657 50.807ZM89.1814 52.1082C89.3484 52.466 89.2506 52.7587 88.9647 52.7587C88.6789 52.7587 88.4446 52.466 88.4446 52.1082C88.4446 51.7503 88.5418 51.4576 88.6612 51.4576C88.7805 51.4576 89.0144 51.7503 89.1814 52.1082ZM217.624 52.1082C217.624 52.466 217.39 52.7587 217.104 52.7587C216.818 52.7587 216.721 52.466 216.888 52.1082C217.055 51.7503 217.288 51.4576 217.408 51.4576C217.527 51.4576 217.624 51.7503 217.624 52.1082ZM229.882 53.6988C230.328 54.4119 230.348 54.7105 229.949 54.7105C229.637 54.7105 229.254 54.2713 229.099 53.7346C228.944 53.1979 228.508 52.7587 228.132 52.7587C227.756 52.7587 227.448 52.4556 227.448 52.0854C227.448 51.2429 228.978 52.2571 229.882 53.6988ZM223.385 52.5011C223.222 52.7171 222.798 52.7405 222.444 52.5525C222.052 52.345 222.169 52.1908 222.741 52.1596C223.259 52.1316 223.548 52.2851 223.385 52.5011ZM79.4398 54.4938C78.7998 55.3409 79.1255 56.6622 79.9718 56.6525C80.6516 56.6447 80.6899 56.5237 80.1545 56.0741C79.7822 55.7618 79.6294 55.1809 79.8151 54.7834C80.1864 53.9877 79.956 53.8101 79.4398 54.4938ZM241.559 56.4046C241.396 56.6206 240.972 56.644 240.618 56.456C240.226 56.2485 240.342 56.0943 240.915 56.0631C241.432 56.0351 241.722 56.1886 241.559 56.4046ZM243.166 57.3128C243.166 57.6706 242.945 57.9634 242.674 57.9634C242.404 57.9634 242.183 57.6706 242.183 57.3128C242.183 56.955 242.404 56.6622 242.674 56.6622C242.945 56.6622 243.166 56.955 243.166 57.3128ZM248.569 57.6381C248.569 58.1748 248.348 58.614 248.077 58.614C247.807 58.614 247.586 58.1748 247.586 57.6381C247.586 57.1014 247.807 56.6622 248.077 56.6622C248.348 56.6622 248.569 57.1014 248.569 57.6381ZM262.322 58.9777C262.322 59.5352 262.101 59.8111 261.83 59.5899C261.56 59.3687 261.339 58.9126 261.339 58.5756C261.339 58.2386 261.56 57.9634 261.83 57.9634C262.101 57.9634 262.322 58.4201 262.322 58.9777ZM280.495 64.7945C280.495 65.3313 280.164 65.7704 279.758 65.7704C279.353 65.7704 279.022 65.3313 279.022 64.7945C279.022 64.2578 279.353 63.8187 279.758 63.8187C280.164 63.8187 280.495 64.2578 280.495 64.7945ZM297.52 70.4871C297.384 70.9347 297.273 70.5684 297.273 69.6739C297.273 68.7793 297.384 68.4137 297.52 68.8607C297.657 69.3083 297.657 70.0402 297.52 70.4871ZM66.096 78.1315C65.929 78.4893 66.0267 78.7821 66.3126 78.7821C66.5985 78.7821 66.8328 78.4893 66.8328 78.1315C66.8328 77.7737 66.7355 77.4809 66.6161 77.4809C66.4968 77.4809 66.263 77.7737 66.096 78.1315ZM59.5427 80.7338C59.5427 81.6284 59.6542 81.9946 59.7903 81.547C59.9268 81.1001 59.9268 80.3682 59.7903 79.9206C59.6542 79.4736 59.5427 79.8393 59.5427 80.7338ZM49.2417 81.5236C48.4765 82.5372 48.4951 83.5235 49.2731 83.1501C49.6111 82.9881 50.2599 83.2847 50.7157 83.8098C51.1716 84.3354 51.7791 84.5722 52.0665 84.3374C52.7664 83.7642 52.7315 82.6856 52.0134 82.6856C51.6971 82.6856 51.0748 82.2503 50.6313 81.7188C50.0089 80.9726 49.6911 80.9283 49.2417 81.5236ZM42.6354 84.3758C42.4738 84.5898 42.46 85.1734 42.6049 85.6737C42.8161 86.403 42.433 86.5038 40.6712 86.1837C39.2723 85.93 38.3508 86.0497 38.1347 86.5123C37.9481 86.9124 38.0296 87.2396 38.3155 87.2396C38.6013 87.2396 38.8356 87.9351 38.8356 88.7848C38.8356 89.9994 39.0984 90.3299 40.0636 90.3299C40.9285 90.3299 41.2915 89.976 41.2915 89.1328C41.2915 87.8154 42.6594 86.5982 43.6251 87.0568C44.0357 87.252 44.13 86.9716 43.91 86.2117C43.685 85.4362 43.7631 85.2241 44.1551 85.5449C44.4714 85.8038 44.7298 85.7368 44.7298 85.3959C44.7298 85.055 44.38 84.5989 43.9527 84.3816C42.9993 83.8969 42.9964 83.8969 42.6354 84.3758ZM45.7121 85.77C45.7121 86.9696 46.6198 87.3671 47.5501 86.5754C48.2466 85.9821 48.2589 85.9027 47.6139 86.1636C47.1739 86.3418 46.5663 86.159 46.2632 85.7576C45.856 85.2183 45.7121 85.2215 45.7121 85.77ZM35.1518 87.8902C34.9848 88.248 35.0825 88.5408 35.3684 88.5408C35.6543 88.5408 35.8885 88.9559 35.8885 89.4627C35.8885 90.7983 37.0232 91.0995 37.6705 89.9356C38.0885 89.1842 38.0669 88.7308 37.5826 88.0899C36.8208 87.0802 35.5771 86.9781 35.1518 87.8902ZM31.8363 89.6396C31.3633 89.8036 30.9768 90.4659 30.9768 91.1113C30.9768 91.7566 30.604 92.687 30.1482 93.1782C29.4266 93.9549 29.3588 93.9302 29.626 92.9862C29.8083 92.3402 29.6472 91.7566 29.2267 91.5426C28.8387 91.3455 28.5209 91.4678 28.5209 91.8139C28.5209 92.1606 28.1893 92.4443 27.7841 92.4443C27.3789 92.4443 27.0473 92.728 27.0473 93.0747C27.0473 93.4208 26.7384 93.5477 26.3602 93.3551C25.2629 92.7976 25.1254 93.9582 26.1279 95.3231C26.9388 96.4278 27.0473 96.4473 27.0473 95.4858C27.0473 94.8866 27.3789 94.396 27.7841 94.396C28.1893 94.396 28.5209 94.8554 28.5209 95.4175C28.5209 97.1259 30.6408 96.2632 31.0303 94.396C31.244 93.3727 31.3884 93.1918 31.4188 93.9081C31.4738 95.1793 32.216 95.4253 32.7224 94.3394C32.9037 93.9504 33.4656 93.7754 33.971 93.9504C34.7215 94.21 34.804 94.0577 34.4239 93.1163C34.168 92.4833 34.0928 91.7872 34.2569 91.5699C34.5835 91.1366 33.5004 89.1452 33.0044 89.2668C32.8344 89.3085 32.3093 89.4763 31.8363 89.6396ZM34.9062 91.7937C34.2765 92.3324 34.2942 92.4261 35.029 92.4345C35.502 92.4397 35.8885 92.1515 35.8885 91.7937C35.8885 91 35.833 91 34.9062 91.7937ZM22.0393 96.6542C19.5107 98.8148 19.2455 99.3691 20.5392 99.79C21.0118 99.9436 20.6807 99.9507 19.8025 99.8056C18.1502 99.5324 17.604 100.457 18.9984 101.165C19.5014 101.421 19.6979 102.041 19.5358 102.861C19.3953 103.573 19.4808 104.155 19.7259 104.155C19.9705 104.155 20.1709 103.569 20.1709 102.854C20.1709 101.435 20.5329 101.258 21.6007 102.154C22.4052 102.828 24.1003 101.666 24.1003 100.441C24.1003 99.9735 24.4579 99.7939 24.9598 100.008C25.6529 100.303 25.6829 100.246 25.1141 99.712C24.5389 99.1713 24.5242 98.8656 25.034 98.0517C25.5414 97.2423 25.5355 96.8305 25.0026 95.869C24.3783 94.7422 24.2319 94.7805 22.0393 96.6542ZM12.0664 110.661C12.2359 111.024 11.8685 111.307 11.2358 111.301C10.3232 111.293 10.2456 111.168 10.8385 110.661C11.7526 109.879 11.7015 109.879 12.0664 110.661ZM298.914 127.576C299.081 127.934 298.86 128.226 298.423 128.226C297.986 128.226 297.765 127.934 297.932 127.576C298.099 127.218 298.32 126.925 298.423 126.925C298.526 126.925 298.747 127.218 298.914 127.576ZM290.488 134.435C290.328 134.987 290.092 135.299 289.963 135.129C289.834 134.959 289.875 134.506 290.053 134.125C290.537 133.087 290.82 133.289 290.488 134.435ZM289.015 138.338C288.854 138.891 288.618 139.203 288.49 139.033C288.361 138.862 288.401 138.41 288.579 138.029C289.064 136.99 289.347 137.192 289.015 138.338ZM277.548 140.587C277.548 140.945 277.314 141.238 277.028 141.238C276.742 141.238 276.644 140.945 276.811 140.587C276.978 140.23 277.212 139.937 277.331 139.937C277.451 139.937 277.548 140.23 277.548 140.587ZM279.267 140.587C279.434 140.945 279.226 141.238 278.805 141.238C278.384 141.238 278.039 140.945 278.039 140.587C278.039 140.23 278.247 139.937 278.501 139.937C278.756 139.937 279.1 140.23 279.267 140.587ZM246.604 153.599C246.604 153.957 246.383 154.25 246.113 154.25C245.843 154.25 245.622 153.957 245.622 153.599C245.622 153.241 245.843 152.949 246.113 152.949C246.383 152.949 246.604 153.241 246.604 153.599ZM56.6821 159.519C56.907 159.742 56.7415 160.102 56.3137 160.319C55.7533 160.604 55.5357 160.325 55.5357 159.326C55.5357 158.562 55.7017 158.201 55.904 158.525C56.1064 158.849 56.4566 159.296 56.6821 159.519ZM65.2261 160.498C65.063 160.714 64.6392 160.737 64.285 160.549C63.8931 160.342 64.0095 160.188 64.5817 160.156C65.0994 160.128 65.3892 160.282 65.2261 160.498ZM185.698 163.033C185.698 163.593 185.255 164.008 184.656 164.008C183.784 164.008 183.713 163.848 184.224 163.033C184.561 162.496 185.03 162.057 185.267 162.057C185.504 162.057 185.698 162.496 185.698 163.033ZM131.914 163.358C132.081 163.716 131.86 164.008 131.423 164.008C130.985 164.008 130.764 163.716 130.931 163.358C131.098 163 131.32 162.707 131.423 162.707C131.526 162.707 131.747 163 131.914 163.358ZM112.512 163.604C112.512 163.738 112.181 164.213 111.776 164.659C111.172 165.323 111.039 165.278 111.039 164.413C111.039 163.833 111.37 163.358 111.776 163.358C112.181 163.358 112.512 163.468 112.512 163.604ZM144.93 163.645C144.93 163.803 144.709 164.113 144.439 164.334C144.169 164.555 143.948 164.425 143.948 164.047C143.948 163.668 144.169 163.358 144.439 163.358C144.709 163.358 144.93 163.487 144.93 163.645ZM123.113 165.31C123.497 165.31 123.809 165.895 123.809 166.611C123.809 167.326 123.683 167.912 123.529 167.912C122.965 167.912 122.087 166.252 121.982 164.984C121.922 164.269 121.996 164.049 122.145 164.496C122.295 164.944 122.731 165.31 123.113 165.31ZM102.689 166.611C102.689 167.449 102.937 167.911 103.303 167.749C103.641 167.6 103.917 167.088 103.917 166.611C103.917 166.134 103.641 165.621 103.303 165.472C102.937 165.311 102.689 165.772 102.689 166.611ZM133.968 166.733C133.812 167.252 133.695 167.097 133.672 166.339C133.651 165.654 133.767 165.27 133.93 165.486C134.093 165.702 134.11 166.263 133.968 166.733ZM135.352 168.562C135.519 168.92 135.311 169.213 134.89 169.213C134.469 169.213 134.124 168.92 134.124 168.562C134.124 168.205 134.332 167.912 134.586 167.912C134.841 167.912 135.185 168.205 135.352 168.562Z" fill="#FCE293"/>
<rect x="35" y="26" width="256" height="157" rx="16"/>
</svg>
