<svg width="206" height="14" viewBox="0 0 206 14" fill="none" xmlns="http://www.w3.org/2000/svg">
<path fill-rule="evenodd" clip-rule="evenodd" d="M97.1614 0.0374037C97.0979 0.096169 93.5666 0.249485 89.3138 0.378177C78.4529 0.706475 75.9589 0.811529 72.9023 1.06957C71.4268 1.194 69.7225 1.33582 69.115 1.38474C65.2378 1.69629 63.1194 1.89491 62.0139 2.05118C61.3195 2.14902 59.9703 2.30036 59.0156 2.38703C58.0609 2.4737 56.588 2.61027 55.7424 2.69071C54.8969 2.77081 54.0221 2.99471 53.798 3.18808C53.5139 3.43332 53.3287 3.43529 53.1857 3.19431C53.0727 3.00423 52.6697 2.92971 52.2897 3.02853C51.9097 3.12734 51.2438 3.25571 50.8098 3.31381C50.3759 3.37159 49.0977 3.54297 47.9694 3.69398C46.8411 3.845 45.8024 3.93561 45.661 3.89523C45.5196 3.85518 44.8805 3.96089 44.2408 4.13062C43.6011 4.30002 42.1199 4.51538 40.9497 4.60895C39.7797 4.70251 38.6994 4.8578 38.5492 4.95432C38.2648 5.13718 37.5304 5.24749 32.914 5.80001C28.5454 6.32332 27.6872 6.45694 26.5081 6.79673C25.9006 6.97204 24.7635 7.11616 23.9811 7.11715C23.199 7.11813 22.0628 7.279 21.4562 7.47433C20.2566 7.86107 16.6641 8.38109 13.8375 8.57741C12.8575 8.64537 11.7924 8.83841 11.4704 9.00617C11.1488 9.17393 10.2566 9.34268 9.48813 9.38109C8.71962 9.41917 7.94797 9.54228 7.77375 9.65456C7.45404 9.86007 6.0275 10.082 4.9213 10.0984C4.17584 10.1096 2.52206 10.9773 2.52206 11.3571C2.52206 12.2018 5.36946 12.2655 6.70069 11.4503C7.3581 11.0479 7.65351 11.0124 7.9325 11.3026C8.20771 11.5889 8.46556 11.5912 8.96138 11.3128C9.32527 11.1083 10.0906 10.9723 10.6616 11.0111C11.2328 11.0495 11.8719 10.9681 12.0818 10.8302C12.292 10.6923 13.1738 10.5433 14.0417 10.4996C16.5031 10.3755 25.3944 9.37649 28.0862 8.9218C29.4928 8.68411 30.8146 8.49042 32.0944 8.33447C32.6498 8.26684 33.3246 8.02161 33.5935 7.78917C33.9565 7.47597 34.1922 7.46153 34.5062 7.7327C34.7392 7.93362 35.0298 7.99436 35.152 7.86731C35.2738 7.74025 36.042 7.60237 36.8585 7.561C37.6752 7.51964 39.4796 7.33152 40.8682 7.14308C42.2569 6.95497 44.1032 6.72286 44.9711 6.62765C45.839 6.53245 47.5433 6.30658 48.7584 6.12569C50.9389 5.801 53.0863 5.55478 55.8595 5.31216C59.3353 5.0075 60.3506 4.83876 60.7435 4.49963C61.0532 4.23207 61.1974 4.24257 61.2927 4.54001C61.394 4.85681 62.1265 4.84795 64.7161 4.4993C66.528 4.25537 68.5785 4.08663 69.2728 4.12438C69.9671 4.16181 72.1685 4.04362 74.1647 3.86142C78.3657 3.47764 86.7075 3.17429 97.0462 3.02918C101.039 2.97304 104.376 2.89261 104.463 2.85026C104.55 2.80824 104.763 2.82006 104.936 2.87685C105.11 2.93365 107.879 3.00226 111.091 3.02918C118.678 3.09287 133.616 3.7058 135.077 4.01309C135.987 4.20482 139.625 4.43889 144.95 4.649C146.995 4.72976 148.814 4.88932 148.992 5.00356C149.17 5.11814 150.763 5.27408 152.532 5.35057C154.302 5.42707 156.175 5.62437 156.696 5.78951C157.887 6.16672 159.334 6.14637 159.57 5.7488C159.679 5.56594 159.895 5.5643 160.117 5.74519C160.318 5.91 160.696 6.06758 160.956 6.09581C162.328 6.24387 163.742 6.44381 164.586 6.60828C166.505 6.9832 167.204 7.07939 171.687 7.58563C176.801 8.1631 176.78 8.15982 178.315 8.67426C178.922 8.87781 180.13 9.11714 180.997 9.20611C183.243 9.43624 186.496 10.0042 187.749 10.3857C188.338 10.5649 188.932 10.6395 189.068 10.5515C189.205 10.4635 189.406 10.5416 189.516 10.7251C189.625 10.9087 190.33 11.0587 191.082 11.0587C191.835 11.0587 193.37 11.3542 194.495 11.7156C196.759 12.4431 197.785 12.5741 198.552 12.2333C198.865 12.0938 199.13 12.1861 199.235 12.471C199.334 12.7406 200.076 13.0288 200.999 13.1562C201.874 13.277 202.676 13.5193 202.78 13.6946C203.015 14.0899 205.144 14.1059 205.734 13.7166C206.292 13.3492 205.914 12.7002 205.141 12.7002C204.815 12.7002 204.467 12.5652 204.369 12.4004C204.271 12.2356 203.594 11.9957 202.864 11.8673C202.134 11.7392 201.318 11.5111 201.05 11.3607C200.433 11.0134 194.007 9.16539 191.412 8.58956C191.065 8.51241 188.793 8.00125 186.363 7.45332C182.759 6.64111 174.432 5.16016 170.74 4.67494C170.306 4.61781 169.738 4.49569 169.478 4.40311C169.217 4.31085 167.513 4.05839 165.691 3.84237C163.868 3.62603 161.88 3.38144 161.272 3.29839C160.665 3.21533 159.315 3.0863 158.274 3.01145C157.232 2.9366 153.753 2.57744 150.541 2.21402C144.286 1.50555 131.478 0.673974 122.399 0.387042C114.835 0.148041 97.304 -0.0949003 97.1614 0.0374037ZM0.375939 11.4526C-0.287465 12.1427 -0.0498116 12.7002 0.907107 12.7002C1.62732 12.7002 1.84888 12.5288 1.96818 11.8794C2.09126 11.2087 1.99437 11.0587 1.43669 11.0587C1.06175 11.0587 0.58424 11.236 0.375939 11.4526Z" fill="#071827"/>
</svg>
