<svg width="37" height="14" viewBox="0 0 37 14" fill="none" xmlns="http://www.w3.org/2000/svg">
<path fill-rule="evenodd" clip-rule="evenodd" d="M0.219422 7.93521C0.544567 7.99916 0.560719 7.9941 0.633788 7.80515C0.670675 7.70977 0.733377 7.63173 0.773085 7.63173C0.875848 7.63173 0.858568 7.34247 0.747201 7.19819C0.607128 7.01673 0.445542 7.0512 0.340382 7.2849C0.288824 7.39935 0.210535 7.493 0.166383 7.493C0.0986035 7.493 0.00338759 7.69645 2.13732e-06 7.8485C-0.000562105 7.87236 0.0981804 7.91135 0.219422 7.93521ZM1.05584 7.24924C1.18449 7.3637 1.21623 7.36856 1.27181 7.28212C1.30764 7.22642 1.3374 7.1574 1.33803 7.12882C1.3386 7.10025 1.38374 7.0768 1.43826 7.0768C1.55111 7.0768 1.50787 7.35621 1.38261 7.43723C1.34149 7.46373 1.32499 7.50222 1.34579 7.52276C1.40476 7.58068 1.85114 7.4366 1.9173 7.33817C1.96272 7.27061 1.99326 7.27831 2.04919 7.37161C2.08918 7.43841 2.154 7.493 2.19314 7.493C2.23229 7.493 2.24689 7.46532 2.22566 7.43147C2.15343 7.3166 2.39204 7.19722 2.60878 7.23981C2.74039 7.26575 2.82023 7.25285 2.82023 7.20568C2.82023 7.16233 2.89556 7.14415 2.99656 7.16316C3.13148 7.18848 3.17288 7.16718 3.17288 7.07229C3.17288 7.00403 3.11737 6.93397 3.04945 6.91649C2.93576 6.88729 2.93611 6.88417 3.05411 6.87675C3.1245 6.87231 3.25145 6.9063 3.33623 6.95229C3.42094 6.99821 3.56905 7.04711 3.66525 7.06085C3.76153 7.07458 3.85759 7.11336 3.87875 7.147C3.90068 7.18196 3.96183 7.18043 4.02108 7.1436C4.07828 7.10801 4.0902 7.07846 4.0476 7.07784C4.005 7.07729 3.96748 6.98316 3.96416 6.8687C3.96021 6.73156 3.99259 6.6606 4.05924 6.6606C4.11481 6.6606 4.16031 6.70742 4.16031 6.76465C4.16031 6.82188 4.2113 6.8687 4.27365 6.8687C4.34919 6.8687 4.37232 6.90623 4.34312 6.98114C4.30757 7.07222 4.32951 7.0836 4.459 7.04128C4.54688 7.01257 4.77745 6.99016 4.97141 6.99141C5.16536 6.99273 5.3474 6.95784 5.3759 6.91393C5.40996 6.86135 5.42809 6.87307 5.42879 6.94799C5.43084 7.16483 5.78053 7.16642 5.78476 6.94965C5.78681 6.84449 5.79548 6.84505 5.88068 6.95541C5.93224 7.02221 6.01053 7.0768 6.05475 7.0768C6.09897 7.0768 6.13516 7.11017 6.13516 7.15102C6.13516 7.19181 6.2066 7.21519 6.29385 7.20305C6.3811 7.19084 6.44225 7.15116 6.42969 7.11495C6.41714 7.07867 6.47998 7.02235 6.56948 6.98981C6.67316 6.95208 6.74115 6.95728 6.75709 7.00417C6.77078 7.04461 6.81895 7.05426 6.86409 7.02568C6.98067 6.95187 7.26364 6.95423 7.26364 7.02901C7.26364 7.06341 7.30963 7.0743 7.36584 7.05308C7.43418 7.02727 7.45506 7.0478 7.42882 7.11502C7.40463 7.1771 7.43299 7.21553 7.50295 7.21553C7.5653 7.21553 7.61629 7.1882 7.61629 7.15484C7.61629 7.07312 7.96076 7.07708 8.01253 7.15935C8.03531 7.19562 8.11078 7.17357 8.18265 7.10961C8.30425 7.0014 8.30954 7.00313 8.27321 7.13978C8.25107 7.22302 8.26821 7.2849 8.31334 7.2849C8.35672 7.2849 8.39213 7.23808 8.39213 7.18085C8.39213 7.11148 8.46266 7.0768 8.60372 7.0768C8.76827 7.0768 8.81531 7.046 8.81531 6.93807C8.81531 6.86176 8.84705 6.79933 8.88584 6.79933C8.92463 6.79933 8.95637 6.83242 8.95637 6.87279C8.95637 6.91316 8.99347 6.92371 9.03889 6.8961C9.09362 6.86281 9.10688 6.88313 9.07832 6.95631C9.01787 7.11127 9.19625 7.24189 9.35741 7.16066C9.58487 7.046 10.004 7.07548 10.2603 7.2242L10.507 7.36737L10.6309 7.1538C10.6991 7.03636 10.8017 6.92246 10.8589 6.90068C10.9769 6.85573 11.1623 7.06542 11.114 7.18924C11.0933 7.24245 11.1684 7.27103 11.329 7.27103C11.4776 7.27103 11.5912 7.23169 11.6144 7.17211C11.6628 7.04808 11.8481 7.17801 11.8481 7.33602C11.8481 7.42426 11.8751 7.42217 12.0304 7.32215C12.2025 7.21123 12.2205 7.21165 12.3521 7.32874C12.4474 7.41357 12.5069 7.42842 12.5401 7.37563C12.5668 7.33325 12.7474 7.2799 12.9413 7.25708C13.1353 7.23433 13.2544 7.23385 13.2058 7.25611C13.1573 7.27831 13.1177 7.35107 13.1177 7.4178C13.1177 7.56992 13.3451 7.5632 13.5219 7.4058C13.5997 7.33651 13.7512 7.2978 13.9121 7.30605C14.131 7.31729 14.1751 7.3449 14.1753 7.47101C14.1755 7.56229 14.2327 7.64019 14.3196 7.66731C14.4934 7.72156 15.0054 7.64491 15.0611 7.55633C15.1331 7.44174 15.2207 7.48994 15.2927 7.68375C15.3316 7.78871 15.366 7.83546 15.3691 7.7878C15.3721 7.74008 15.454 7.7011 15.551 7.7011C15.6607 7.7011 15.7273 7.66177 15.7273 7.59705C15.7273 7.53982 15.759 7.493 15.7978 7.493C15.8366 7.493 15.8683 7.53982 15.8683 7.59705C15.8683 7.70845 15.9345 7.71774 16.6132 7.70228C17.008 7.69326 17.0471 7.70609 17.1231 7.87021C17.2142 8.06693 17.4697 8.11285 17.5354 7.94429C17.5577 7.88727 17.6021 7.85655 17.6341 7.87604C17.6662 7.89553 17.7144 7.87638 17.7413 7.83359C17.7773 7.77636 17.8037 7.77698 17.8407 7.83587C17.8684 7.88006 17.9676 7.92002 18.0611 7.9248C18.1546 7.92952 18.2909 7.98258 18.3639 8.04273C18.4885 8.14525 18.4937 8.14234 18.4474 7.9959C18.4071 7.86868 18.4249 7.83983 18.5438 7.83983C18.624 7.83983 18.6896 7.86577 18.6896 7.89754C18.6896 7.98321 19.1776 8.1148 19.313 8.06575C19.3774 8.04245 19.4535 7.98987 19.482 7.94894C19.5135 7.90365 19.5342 7.92043 19.5349 7.99181C19.5365 8.17258 19.6522 8.20282 19.8865 8.08365C20.0236 8.01394 20.1002 8.00256 20.1002 8.05195C20.1002 8.09426 20.1399 8.11487 20.1883 8.09773C20.2975 8.0593 20.5391 8.17487 20.4952 8.24465C20.4776 8.27267 20.5164 8.2998 20.5814 8.30479C20.7742 8.3197 20.9391 8.36438 20.9915 8.41585C21.0185 8.44241 21.1274 8.46412 21.2334 8.46412C21.3725 8.46412 21.4694 8.40114 21.5805 8.23868C21.6927 8.07436 21.7257 8.0532 21.7021 8.16051C21.6765 8.27718 21.6972 8.30077 21.8019 8.27385C21.8745 8.25512 21.934 8.2758 21.934 8.31977C21.934 8.37839 21.9718 8.37971 22.0765 8.32463C22.2709 8.22231 22.3778 8.30437 22.3241 8.51476C22.2846 8.66959 22.2914 8.67743 22.3854 8.58496C22.6277 8.34662 23.5907 8.35938 23.8396 8.60418C23.9474 8.71017 24.0372 8.74041 24.1445 8.70677C24.4099 8.62367 24.7173 8.61187 24.762 8.68311C24.788 8.72446 24.8494 8.70836 24.9162 8.64267C25.0593 8.50193 25.1784 8.50318 25.1784 8.64538C25.1784 8.73014 25.2294 8.74998 25.3883 8.72702C25.5036 8.71038 25.6108 8.73028 25.6264 8.77121C25.6439 8.81706 25.7695 8.78321 25.9532 8.68318C26.1689 8.56575 26.2729 8.54175 26.3286 8.59648C26.371 8.63816 26.4945 8.67222 26.6031 8.67222C26.7433 8.67222 26.8012 8.70739 26.8027 8.79361C26.8047 8.90849 26.8087 8.90842 26.8774 8.79244C26.9286 8.706 26.9828 8.68804 27.0616 8.73139C27.1931 8.80374 27.4353 8.75532 27.4353 8.65669C27.4353 8.61895 27.4865 8.6073 27.5489 8.63088C27.6303 8.66161 27.651 8.64399 27.6217 8.56894C27.5685 8.43249 27.6392 8.43568 27.7979 8.57705C27.8846 8.65419 28.0678 8.69269 28.3758 8.69844C28.7046 8.70462 28.8177 8.73042 28.7935 8.79361C28.7502 8.90668 29.0701 8.90953 29.1845 8.79708C29.2326 8.74971 29.2691 8.74402 29.2691 8.7839C29.2691 8.82393 29.5115 8.86104 29.8334 8.87047C30.2103 8.88143 30.3976 8.86132 30.3976 8.80978C30.3976 8.76739 30.4849 8.73916 30.5916 8.747C30.8254 8.7642 31.1029 8.68027 31.1029 8.59231C31.1029 8.55603 31.0453 8.55895 30.9689 8.59918C30.8659 8.65342 30.8249 8.6442 30.7918 8.55923C30.7554 8.46607 30.7902 8.45552 31.014 8.49194C31.1599 8.51573 31.3347 8.53668 31.4027 8.53862C31.4705 8.54057 31.5261 8.56748 31.5261 8.59849C31.5261 8.62949 31.6054 8.65488 31.7024 8.65488C31.7994 8.65488 31.8787 8.62755 31.8787 8.59419C31.8787 8.56082 31.9263 8.53349 31.9845 8.53349C32.0427 8.53349 32.0903 8.48667 32.0903 8.42944C32.0903 8.30299 32.2408 8.29341 32.3627 8.4121C32.434 8.48154 32.4656 8.47467 32.5214 8.37742C32.5597 8.31062 32.6688 8.25603 32.7639 8.25603C32.8589 8.25603 32.9367 8.21995 32.9367 8.17591C32.9367 8.12915 32.9926 8.14552 33.071 8.21531C33.1863 8.31797 33.2282 8.32192 33.3675 8.2434C33.4568 8.19311 33.5822 8.0917 33.6462 8.01803C33.8017 7.83927 34.4437 7.79516 34.6795 7.947C34.8431 8.0525 34.8437 8.05681 34.7198 8.26664C34.6507 8.38359 34.5427 8.49929 34.4798 8.52378C34.271 8.60494 33.8036 9.06789 33.7606 9.23617C33.7374 9.32739 33.6297 9.45356 33.5215 9.51662C33.1374 9.74039 32.9367 9.95585 32.9367 10.1445C32.9367 10.2537 32.8759 10.371 32.788 10.4316C32.7062 10.488 32.6605 10.5677 32.6864 10.6089C32.7123 10.6501 32.6964 10.6838 32.6512 10.6838C32.606 10.6838 32.5872 10.7307 32.6096 10.7879C32.6371 10.8586 32.6058 10.8919 32.5113 10.8919C32.4349 10.8919 32.3725 10.9209 32.3725 10.9564C32.3725 10.9918 32.3181 11.0742 32.2517 11.1395C32.1853 11.2049 32.1239 11.3054 32.1153 11.3629C32.1068 11.4206 32.0735 11.4864 32.0415 11.5093C31.9306 11.5885 31.602 12.13 31.5565 12.3083C31.5314 12.4068 31.4836 12.4874 31.4503 12.4874C31.4171 12.4874 31.2925 12.581 31.1734 12.6955C31.0544 12.8099 30.9116 12.9036 30.8561 12.9036C30.7364 12.9036 30.5844 13.1547 30.6454 13.2519C30.6689 13.2892 30.6521 13.3198 30.6083 13.3198C30.4613 13.3198 30.3122 13.5307 30.302 13.7532C30.2896 14.0218 30.4702 14.0921 30.5741 13.8592C30.6128 13.7723 30.7079 13.6968 30.7855 13.6913C30.8631 13.6858 30.9944 13.678 31.0772 13.6739C31.2691 13.6646 31.8786 13.0881 32.0568 12.7475C32.1317 12.6045 32.2415 12.4874 32.301 12.4874C32.4381 12.4874 32.5941 12.2471 32.5426 12.1151C32.5156 12.046 32.5705 12.0005 32.7201 11.9682C32.9213 11.9247 32.9722 11.8433 32.9437 11.6104C32.9384 11.5669 32.9888 11.5357 33.0557 11.5411C33.1257 11.5468 33.2195 11.4666 33.2761 11.3529C33.3898 11.1245 33.6099 10.8919 33.7125 10.8919C33.7513 10.8919 33.7831 10.8362 33.7831 10.7681C33.7831 10.7 33.9428 10.5051 34.138 10.335C34.3333 10.1648 34.5757 9.9084 34.6766 9.76516C34.7776 9.62185 34.9022 9.50462 34.9535 9.50462C35.1992 9.50462 35.5469 9.24928 35.6618 8.98437C35.7281 8.83177 35.7768 8.68346 35.7701 8.65488C35.7634 8.6263 35.8214 8.60286 35.899 8.60286C35.9766 8.60286 36.04 8.57164 36.04 8.53349C36.04 8.49534 36.1194 8.46412 36.2164 8.46412C36.3261 8.46412 36.3927 8.42479 36.3927 8.36007C36.3927 8.30285 36.4562 8.1936 36.5337 8.11729C36.6113 8.04099 36.6748 7.94735 36.6748 7.90919C36.6748 7.87104 36.7065 7.83983 36.7453 7.83983C36.7841 7.83983 36.8159 7.79564 36.8159 7.74154C36.8159 7.6875 36.8514 7.63166 36.8949 7.61737C36.9384 7.60315 36.9811 7.47565 36.9899 7.33415C37.0016 7.14464 36.9778 7.0768 36.8999 7.0768C36.8115 7.0768 36.8142 7.05488 36.9164 6.94382C37.0143 6.83742 37.0229 6.78185 36.9596 6.66546C36.8967 6.54996 36.8532 6.53442 36.7481 6.58978C36.6537 6.63944 36.6075 6.63556 36.5874 6.57625C36.5719 6.53047 36.4349 6.48524 36.283 6.47567C36.131 6.4661 35.9957 6.4258 35.9823 6.38605C35.9688 6.3463 35.8811 6.31377 35.7873 6.31377C35.6935 6.31377 35.6168 6.28179 35.6168 6.24267C35.6168 6.20362 35.5375 6.14195 35.4405 6.10567C35.3435 6.06939 35.2642 6.00988 35.2642 5.97332C35.2642 5.93683 35.2007 5.8871 35.1231 5.86289C35.0456 5.83868 34.9821 5.77916 34.9821 5.73061C34.9821 5.68205 34.9027 5.60679 34.8057 5.56337C34.7088 5.51987 34.6294 5.45814 34.6294 5.42609C34.6294 5.39404 34.4391 5.24504 34.2066 5.09507C33.9741 4.9451 33.7836 4.79964 33.7834 4.7719C33.7828 4.69317 32.9847 3.88637 32.9033 3.88234C32.8635 3.88033 32.6722 3.68826 32.4782 3.45546C32.2843 3.22274 31.9986 2.94118 31.8435 2.82978C31.6883 2.71845 31.5693 2.61398 31.579 2.59768C31.6266 2.51763 31.5753 2.42933 31.3321 2.17233C31.1867 2.01861 30.9279 1.73483 30.7571 1.54165C30.5863 1.34846 30.3721 1.17199 30.281 1.14952C30.1156 1.10866 30.0762 0.99178 30.1081 0.63711C30.1285 0.41063 29.9865 0.252059 29.8575 0.357287C29.735 0.457383 29.6969 0.421382 29.6771 0.186576C29.6607 -0.00848137 29.4807 -0.0775016 29.4807 0.111244C29.4807 0.171662 29.4413 0.208219 29.3932 0.192403C29.345 0.176588 29.2707 0.197397 29.228 0.23867C29.1853 0.279874 29.0522 0.386976 28.9321 0.476736C28.7034 0.647516 28.5312 1.00336 28.6137 1.13461C28.6403 1.17685 28.6556 1.29415 28.6477 1.39528C28.6399 1.49642 28.6812 1.61816 28.7397 1.66588C28.7981 1.71354 28.8459 1.79449 28.8459 1.84568C28.8459 1.89694 28.9094 1.9722 28.987 2.01306C29.0646 2.05392 29.1276 2.12523 29.127 2.17156C29.1262 2.23032 29.1075 2.22733 29.0653 2.16171C29.0223 2.09512 28.9903 2.09033 28.9557 2.14541C28.8728 2.27735 29.2823 2.83304 29.4807 2.85801C29.6132 2.87466 29.6589 2.92328 29.6646 3.05355C29.681 3.42341 29.6956 3.46975 29.7959 3.46975C29.8528 3.46975 29.8846 3.50874 29.8663 3.55646C29.8284 3.65565 30.2206 4.0937 30.3483 4.09474C30.3948 4.09516 30.4963 4.17465 30.5739 4.27135C30.6515 4.36811 30.8023 4.54056 30.9089 4.65453C31.0157 4.76857 31.1029 4.8935 31.1029 4.93213C31.1029 5.00004 31.2287 5.12788 31.6324 5.47021C31.7705 5.5873 31.8452 5.61144 31.9007 5.55691C32.0582 5.40195 32.1745 5.47041 32.1256 5.6894C32.0872 5.86136 32.0986 5.89008 32.1913 5.85512C32.2765 5.82293 32.292 5.84242 32.2554 5.93593C32.2247 6.01473 32.2345 6.04262 32.2826 6.01334C32.3239 5.98823 32.4325 6.02888 32.5238 6.10373C32.6151 6.17857 32.6649 6.2408 32.6345 6.24211C32.604 6.24336 32.6124 6.30565 32.6532 6.38057C32.6939 6.45542 32.7703 6.50043 32.823 6.4806C32.8853 6.45701 32.932 6.5123 32.9567 6.63924C32.9777 6.74634 32.9897 6.83797 32.9834 6.84276C32.9771 6.84754 32.8966 6.87432 32.8044 6.9022C32.698 6.93439 32.6529 6.92745 32.6808 6.88306C32.7214 6.81855 32.634 6.81508 32.0374 6.85746C31.9267 6.8653 31.8787 6.91289 31.8787 7.01485C31.8787 7.11502 31.8461 7.14866 31.775 7.12182C31.7179 7.10031 31.625 7.1282 31.5684 7.18376C31.5111 7.24023 31.3349 7.2849 31.1698 7.2849C30.9149 7.2849 30.8862 7.27054 30.9618 7.18085C31.0102 7.12362 31.0378 7.07423 31.0233 7.07104C30.8772 7.03886 30.6797 7.03886 30.6797 7.07104C30.6796 7.12112 29.9593 7.11703 29.866 7.06639C29.8286 7.04614 29.5584 7.03414 29.2653 7.03976C28.8922 7.0469 28.6813 7.08512 28.5619 7.16739C28.4504 7.24425 28.2531 7.2849 27.9921 7.2849C27.6401 7.2849 27.5868 7.26638 27.5419 7.12882C27.4954 6.98662 27.4878 6.9844 27.456 7.1042C27.428 7.20957 27.4089 7.21643 27.3598 7.13888C27.3097 7.05974 27.2725 7.058 27.1554 7.12938C27.0766 7.17745 27.0121 7.19195 27.0121 7.16163C27.0121 7.13132 26.9566 7.10045 26.8887 7.09303C26.8209 7.08561 26.6569 7.06612 26.5243 7.04961C26.3918 7.0331 26.2075 7.04801 26.1147 7.0827C26.022 7.11738 25.9609 7.12244 25.9789 7.09393C25.997 7.06542 25.7766 7.05238 25.4892 7.06494C25.0657 7.08346 24.9668 7.06841 24.9668 6.98565C24.9668 6.84435 24.7822 6.78775 24.6875 6.89998C24.5723 7.03657 24.332 7.08311 24.332 6.96887C24.332 6.8943 24.172 6.87467 23.5861 6.87737C22.9728 6.88015 22.8162 6.85927 22.7045 6.75993C22.578 6.64735 22.5599 6.64694 22.4397 6.7539C22.3688 6.81702 22.2577 6.8687 22.1929 6.8687C22.1281 6.8687 22.075 6.89492 22.075 6.9269C22.075 6.95895 21.9918 7.02248 21.89 7.06806C21.7136 7.14714 21.7066 7.1427 21.7396 6.97275C21.7587 6.87474 21.7588 6.80974 21.7399 6.82833C21.721 6.84692 21.6595 6.81674 21.6032 6.76132C21.4674 6.62786 21.3697 6.63376 21.3697 6.7754C21.3697 6.87862 21.3555 6.87758 21.2287 6.76465C21.1018 6.65172 21.0876 6.65068 21.0876 6.7539C21.0876 6.89804 21.0211 6.90068 20.917 6.76056C20.8552 6.67753 20.7952 6.66789 20.6586 6.71894C20.5456 6.76125 20.4368 6.76132 20.3604 6.71929C20.2943 6.68287 20.205 6.67441 20.1622 6.70042C20.1194 6.72643 20.0538 6.70472 20.0164 6.65214C19.9689 6.58541 19.9383 6.58048 19.9151 6.63591C19.8786 6.72303 19.6739 6.6871 19.3968 6.54483C19.1797 6.43343 18.8306 6.42385 18.8306 6.52929C18.8306 6.57153 18.783 6.58811 18.7248 6.56612C18.6666 6.5442 18.619 6.55648 18.619 6.59339C18.619 6.63036 18.5873 6.6606 18.5485 6.6606C18.5097 6.6606 18.478 6.61863 18.478 6.5673C18.478 6.51597 18.4182 6.42087 18.3453 6.35594C18.2255 6.24933 18.202 6.24829 18.1035 6.34519C18.0434 6.40422 17.9603 6.4525 17.9187 6.4525C17.8772 6.4525 17.8432 6.50418 17.8432 6.5673C17.8432 6.67184 17.831 6.67121 17.7066 6.56058C17.6039 6.46908 17.4341 6.43648 17.019 6.42843C16.5918 6.42018 16.4725 6.39632 16.4885 6.32223C16.5037 6.25196 16.4664 6.24024 16.3475 6.27805C16.0998 6.35678 15.8565 6.33749 15.7897 6.23386C15.7439 6.16269 15.7292 6.16137 15.7283 6.22838C15.7276 6.28755 15.6695 6.30212 15.551 6.27291C15.4446 6.24662 15.3746 6.25904 15.3746 6.30406C15.3746 6.34519 15.329 6.36156 15.2733 6.34055C15.2171 6.31932 15.1903 6.25536 15.213 6.19696C15.2427 6.12086 15.217 6.0995 15.1204 6.1201C15.0469 6.13578 14.9947 6.18579 15.0043 6.23116C15.0141 6.27659 14.9744 6.31377 14.9162 6.31377C14.858 6.31377 14.8104 6.34499 14.8104 6.38314C14.8104 6.48594 14.6743 6.46728 14.5528 6.34783C14.4943 6.29026 14.4208 6.25869 14.3895 6.2777C14.3582 6.29671 14.2942 6.2666 14.2471 6.2109C14.1723 6.12218 14.1482 6.12274 14.054 6.21541C13.9947 6.27368 13.863 6.31183 13.7612 6.30017C13.6097 6.2829 13.5798 6.24766 13.5969 6.10567C13.6122 5.97825 13.6 5.95799 13.551 6.02923C13.4944 6.11164 13.4412 6.10928 13.1973 6.01328C12.8618 5.88127 12.6706 5.92261 12.7324 6.11386C12.799 6.32022 12.4934 6.27923 12.2776 6.05281C12.1123 5.8794 12.0449 5.86019 11.566 5.84964C11.2751 5.84326 10.918 5.81607 10.7725 5.78936C10.5978 5.75718 10.508 5.76647 10.508 5.81669C10.508 5.85852 10.4398 5.92865 10.3563 5.97256C10.2278 6.04019 10.2111 6.03561 10.2474 5.94252C10.3111 5.77923 10.1754 5.73387 9.92659 5.83521C9.75767 5.90402 9.69969 5.90562 9.67811 5.84194C9.64305 5.73852 9.45008 5.73158 9.45008 5.83369C9.45008 5.88037 9.37243 5.89181 9.24392 5.86407C9.05674 5.82363 9.04087 5.83431 9.07148 5.97998C9.09461 6.0902 9.07289 6.07203 9.00186 5.92185C8.91391 5.73574 8.86073 5.70335 8.64336 5.70335C8.50293 5.70335 8.34142 5.74927 8.28429 5.80539C8.22723 5.86157 8.18054 5.88099 8.18054 5.84867C8.18054 5.77029 7.60494 5.82481 7.49287 5.91387C7.43482 5.96 7.4047 5.96028 7.4047 5.91471C7.4047 5.78666 6.65433 5.78603 6.44641 5.91394C6.2717 6.02146 5.78878 6.08958 5.75923 6.01092C5.73765 5.95362 5.70485 5.95522 5.63862 6.01654C5.56675 6.08313 5.52944 6.0764 5.4611 5.98449C5.38803 5.8862 5.35699 5.88252 5.26114 5.9607C5.19879 6.01161 5.14773 6.03006 5.14773 6.00162C5.14773 5.97318 5.09871 5.98997 5.03869 6.03894C4.97874 6.08784 4.94545 6.1681 4.96463 6.21728C4.9865 6.27333 4.96139 6.29234 4.89728 6.26813C4.78231 6.22477 4.75657 6.03631 4.86561 6.03631C4.9044 6.03631 4.93614 6.00024 4.93614 5.95619C4.93614 5.90826 4.8843 5.9222 4.80714 5.99087C4.73619 6.05399 4.60923 6.10567 4.52502 6.10567C4.4408 6.10567 4.3719 6.13689 4.3719 6.17504C4.3719 6.21319 4.33473 6.2444 4.28931 6.2444C4.24388 6.2444 4.14867 6.29608 4.07772 6.35921C3.95654 6.46707 3.94871 6.46492 3.94871 6.32452C3.94871 6.24232 3.92488 6.17247 3.89582 6.16935C3.86676 6.16623 3.75567 6.14951 3.64896 6.13231C3.54183 6.11497 3.455 6.13307 3.455 6.17268C3.455 6.21215 3.40739 6.2444 3.34921 6.2444C3.29102 6.2444 3.24341 6.29123 3.24341 6.34845C3.24341 6.40568 3.21167 6.4525 3.17288 6.4525C3.13409 6.4525 3.10235 6.42379 3.10235 6.38862C3.10235 6.35352 3.00149 6.30302 2.87828 6.27638C2.71175 6.24038 2.63276 6.25682 2.57076 6.34027C2.52485 6.40201 2.45114 6.4525 2.40692 6.4525C2.3627 6.4525 2.32652 6.49724 2.32652 6.55191C2.32652 6.61746 2.25436 6.6493 2.11493 6.64541C1.99855 6.64215 1.90333 6.61371 1.90333 6.58215C1.90333 6.51056 1.55096 6.66019 1.4128 6.79046C1.34241 6.85684 1.30178 6.86274 1.28365 6.80918C1.26454 6.75279 1.21806 6.75168 1.11636 6.80523C1.03884 6.84595 0.992082 6.92177 1.01225 6.97358C1.0325 7.0254 1.01663 7.07846 0.977059 7.09144C0.937492 7.10441 0.972969 7.17544 1.05584 7.24924ZM6.97665 6.76763C7.01277 6.74564 7.06221 6.75945 7.08661 6.79822C7.11094 6.837 7.08139 6.8687 7.02095 6.8687C6.89702 6.8687 6.87883 6.82708 6.97665 6.76763ZM7.51417 6.21791C7.57694 6.19425 7.60522 6.20591 7.58053 6.24517C7.55684 6.2829 7.50761 6.31377 7.47107 6.31377C7.36965 6.31377 7.39201 6.26403 7.51417 6.21791ZM7.80122 5.89757C7.95837 5.89757 7.9729 5.91339 7.89771 6.00245C7.83035 6.0823 7.78606 6.08854 7.71271 6.02868C7.57701 5.9179 7.59069 5.89757 7.80122 5.89757ZM7.82788 6.48719C7.86668 6.51077 7.89841 6.5594 7.89841 6.59533C7.89841 6.63126 7.86668 6.6606 7.82788 6.6606C7.78909 6.6606 7.75735 6.61191 7.75735 6.55246C7.75735 6.49301 7.78909 6.4636 7.82788 6.48719ZM8.76495 6.08632C8.81778 6.06634 8.85558 6.10331 8.85558 6.17504C8.85558 6.24676 8.81778 6.28374 8.76495 6.26376C8.71509 6.24496 8.67425 6.205 8.67425 6.17504C8.67425 6.14507 8.71509 6.10512 8.76495 6.08632ZM19.7769 7.12327C19.8319 7.10253 19.8944 7.13042 19.9158 7.18522C19.9415 7.25105 19.9075 7.2849 19.8159 7.2849C19.6553 7.2849 19.6298 7.17884 19.7769 7.12327ZM21.7793 7.73398C21.801 7.75527 21.7794 7.81125 21.7311 7.85835C21.6614 7.92633 21.6534 7.91835 21.6916 7.8195C21.7181 7.75111 21.7576 7.71261 21.7793 7.73398ZM22.2866 7.14617C22.3397 7.06535 22.3552 7.08568 22.3561 7.23697C22.3567 7.34941 22.3273 7.41371 22.2866 7.38895C22.199 7.33574 22.199 7.27942 22.2866 7.14617ZM30.2843 8.46412C30.2995 8.46412 30.3302 8.51095 30.3526 8.56817C30.3749 8.6254 30.3624 8.67222 30.3249 8.67222C30.2873 8.67222 30.2565 8.6254 30.2565 8.56817C30.2565 8.51095 30.269 8.46412 30.2843 8.46412ZM30.2876 7.14617C30.3048 7.14616 30.3384 7.17738 30.3623 7.21553C30.3863 7.25368 30.3723 7.2849 30.3312 7.2849C30.2902 7.2849 30.2565 7.25368 30.2565 7.21553C30.2565 7.17738 30.2705 7.14617 30.2876 7.14617Z" fill="#F6A300"/>
</svg>
